<svg width="223" height="61" viewBox="0 0 223 61" fill="none" xmlns="http://www.w3.org/2000/svg">
<rect width="221.458" height="60.1875" transform="translate(0.722656 0.557617)" fill="#3B1004"/>
<rect width="221.458" height="60.1875" transform="translate(0.722656 0.557617)" fill="url(#paint0_linear_1140_1569)" fill-opacity="0.85"/>
<rect x="5.50391" y="5.33887" width="211.438" height="50.4375" stroke="white" stroke-width="0.5625"/>
<path d="M8.40332 58.0264H214.132" stroke="white" stroke-width="0.5625"/>
<path d="M8.96016 3.08887H7.74442V7.57938L3.25391 7.59587V8.80336" stroke="white" stroke-width="0.5625"/>
<circle cx="218.348" cy="3.93262" r="1.125" fill="white"/>
<circle cx="218.348" cy="57.1826" r="1.125" fill="white"/>
<circle cx="4.09766" cy="3.93262" r="1.125" fill="white"/>
<circle cx="4.09766" cy="57.1826" r="1.125" fill="white"/>
<path d="M214.067 3.08887H214.719V7.58475H219.19V8.22695" stroke="white" stroke-width="0.5625"/>
<path d="M219.191 52.9697V53.5172H214.705V58.0243H213.999" stroke="white" stroke-width="0.5625"/>
<path d="M3.25391 52.6719V53.5225H7.78556V58.0297H8.55879" stroke="white" stroke-width="0.5625"/>
<path d="M3.25391 8.34082V52.7742" stroke="white" stroke-width="0.5625"/>
<path d="M8.86816 3.08887H214.146" stroke="white" stroke-width="0.5625"/>
<path d="M219.191 7.98633V53.1296" stroke="white" stroke-width="0.5625"/>
<ellipse cx="35.7327" cy="30.651" rx="19.26" ry="19.2604" fill="white" stroke="#3B1004" stroke-width="0.84375"/>
<ellipse cx="35.7327" cy="30.65" rx="17.7884" ry="17.7887" fill="white" stroke="#3B1004" stroke-width="0.84375"/>
<path d="M35.7334 11.5254V49.7754" stroke="#3B1004" stroke-width="0.804375"/>
<path d="M26.1709 14.0879L45.2959 47.2134" stroke="#3B1004" stroke-width="0.804375"/>
<path d="M19.1699 21.0879L52.2954 40.2129" stroke="#3B1004" stroke-width="0.804375"/>
<path d="M16.6084 30.6504L54.8584 30.6504" stroke="#3B1004" stroke-width="0.804375"/>
<path d="M19.1699 40.2129L52.2954 21.0879" stroke="#3B1004" stroke-width="0.804375"/>
<path d="M26.1709 47.2139L45.2959 14.0884" stroke="#3B1004" stroke-width="0.804375"/>
<path d="M40.3024 13.596C38.3674 13.0775 36.3785 14.2258 35.8601 16.1608L42.8671 18.0383C43.3856 16.1034 42.2373 14.1145 40.3024 13.596Z" fill="white"/>
<path d="M42.8671 18.0383C43.3856 16.1034 42.2373 14.1145 40.3024 13.596C38.3674 13.0775 36.3785 14.2258 35.8601 16.1608" stroke="#3B1004" stroke-width="0.5625"/>
<path d="M31.1625 47.7067C33.0974 48.2252 35.0863 47.0769 35.6048 45.142L28.5977 43.2644C28.0792 45.1994 29.2275 47.1883 31.1625 47.7067Z" fill="white"/>
<path d="M28.5977 43.2644C28.0792 45.1994 29.2275 47.1883 31.1625 47.7067C33.0974 48.2252 35.0863 47.0769 35.6048 45.142" stroke="#3B1004" stroke-width="0.5625"/>
<path d="M31.1627 13.5964C29.2278 14.1149 28.0795 16.1037 28.598 18.0387L35.605 16.1612C35.0866 14.2262 33.0977 13.0779 31.1627 13.5964Z" fill="white"/>
<path d="M35.605 16.1612C35.0866 14.2262 33.0977 13.0779 31.1627 13.5964C29.2278 14.1149 28.0795 16.1037 28.598 18.0387" stroke="#3B1004" stroke-width="0.5625"/>
<path d="M40.3031 47.7073C42.2381 47.1889 43.3863 45.2 42.8679 43.265L35.8608 45.1426C36.3792 47.0775 38.3681 48.2258 40.3031 47.7073Z" fill="white"/>
<path d="M35.8608 45.1416C36.3792 47.0765 38.3681 48.2248 40.3031 47.7064C42.2381 47.1879 43.3863 45.199 42.8679 43.264" stroke="#3B1004" stroke-width="0.5625"/>
<path d="M23.2484 18.1657C21.8319 19.5822 21.8319 21.8788 23.2484 23.2952L28.3779 18.1657C26.9614 16.7492 24.6649 16.7492 23.2484 18.1657Z" fill="white"/>
<path d="M28.3779 18.1657C26.9614 16.7492 24.6649 16.7492 23.2484 18.1657C21.8319 19.5822 21.8319 21.8788 23.2484 23.2952" stroke="#3B1004" stroke-width="0.5625"/>
<path d="M48.2194 43.1361C49.6359 41.7196 49.6359 39.423 48.2194 38.0065L43.0899 43.1361C44.5063 44.5525 46.8029 44.5525 48.2194 43.1361Z" fill="white"/>
<path d="M43.0889 43.1361C44.5054 44.5525 46.8019 44.5525 48.2184 43.1361C49.6349 41.7196 49.6349 39.423 48.2184 38.0065" stroke="#3B1004" stroke-width="0.5625"/>
<path d="M18.678 26.0804C18.1596 28.0154 19.3078 30.0043 21.2428 30.5228L23.1203 23.5157C21.1854 22.9972 19.1965 24.1455 18.678 26.0804Z" fill="white"/>
<path d="M23.1203 23.5157C21.1854 22.9972 19.1965 24.1455 18.678 26.0804C18.1596 28.0154 19.3078 30.0043 21.2428 30.5228" stroke="#3B1004" stroke-width="0.5625"/>
<path d="M52.7897 35.2203C53.3082 33.2854 52.1599 31.2965 50.225 30.778L48.3474 37.7851C50.2824 38.3036 52.2713 37.1553 52.7897 35.2203Z" fill="white"/>
<path d="M48.3465 37.7851C50.2814 38.3036 52.2703 37.1553 52.7888 35.2203C53.3072 33.2854 52.1589 31.2965 50.224 30.778" stroke="#3B1004" stroke-width="0.5625"/>
<path d="M18.6784 35.2201C19.1969 37.155 21.1858 38.3033 23.1207 37.7849L21.2432 30.7778C19.3082 31.2962 18.1599 33.2851 18.6784 35.2201Z" fill="white"/>
<path d="M21.2432 30.7778C19.3082 31.2962 18.1599 33.2851 18.6784 35.2201C19.1969 37.155 21.1858 38.3033 23.1207 37.7849" stroke="#3B1004" stroke-width="0.5625"/>
<path d="M52.7894 26.0797C52.2709 24.1448 50.282 22.9965 48.347 23.5149L50.2246 30.522C52.1595 30.0036 53.3078 28.0147 52.7894 26.0797Z" fill="white"/>
<path d="M50.2236 30.522C52.1586 30.0036 53.3068 28.0147 52.7884 26.0797C52.2699 24.1448 50.281 22.9965 48.3461 23.5149" stroke="#3B1004" stroke-width="0.5625"/>
<path d="M23.2477 43.1344C24.6642 44.5509 26.9608 44.5509 28.3773 43.1344L23.2477 38.0049C21.8312 39.4214 21.8312 41.718 23.2477 43.1344Z" fill="white"/>
<path d="M23.2477 38.0049C21.8312 39.4214 21.8312 41.718 23.2477 43.1344C24.6642 44.5509 26.9608 44.5509 28.3773 43.1344" stroke="#3B1004" stroke-width="0.5625"/>
<path d="M48.2181 18.1634C46.8016 16.7469 44.505 16.7469 43.0885 18.1634L48.2181 23.293C49.6346 21.8765 49.6346 19.5799 48.2181 18.1634Z" fill="white"/>
<path d="M48.2181 23.2939C49.6346 21.8774 49.6346 19.5809 48.2181 18.1644C46.8016 16.7479 44.505 16.7479 43.0885 18.1644" stroke="#3B1004" stroke-width="0.5625"/>
<path d="M46.7172 30.6504C46.7172 36.7168 41.7994 41.6346 35.7331 41.6346C29.6668 41.6346 24.7491 36.7168 24.7491 30.6504C24.7491 24.5839 29.6668 19.6661 35.7331 19.6661C41.7994 19.6661 46.7172 24.5839 46.7172 30.6504Z" fill="#3B1004" stroke="#3B1004" stroke-width="0.683804"/>
<path d="M35.7338 25.9449L36.0866 21.5541L36.098 25.959L36.7901 21.6098L36.4608 26.0026L37.4874 21.722L36.8186 26.0751L38.1744 21.8887L37.1701 26.1751L38.8457 22.11L37.512 26.3033L39.498 22.3831L37.8432 26.4578L40.1268 22.7075L38.1618 26.638L40.7291 23.0813L38.4651 26.8438L41.3003 23.5013L38.752 27.0721L41.8367 23.9656L39.0199 27.3234L42.3363 24.4708L39.2675 27.5947L42.7948 25.0145L39.4936 27.8845L43.2096 25.5929L39.6962 28.1916L43.5781 26.2027L39.8748 28.5141L43.8986 26.8394L40.0274 28.8501L44.169 27.4998L40.154 29.1963L44.3875 28.1794L40.2528 29.5522L44.5521 28.8745L40.3238 29.9145L44.6623 29.5804L40.3668 30.2813L44.718 30.2934L40.3814 30.6506L44.718 31.0084L40.3668 31.0199L44.6623 31.7207L40.3238 31.3867L44.5521 32.4266L40.2528 31.7489L44.3875 33.1217L40.154 32.1048L44.169 33.8014L40.0274 32.4517L43.8986 34.4618L39.8748 32.787L43.5781 35.0991L39.6962 33.1095L43.2096 35.7082L39.4936 33.4166L42.7948 36.2866L39.2675 33.7071L42.3363 36.8303L39.0199 33.9783L41.8367 37.3356L38.752 34.229L41.3003 37.7998L38.4651 34.4579L40.7291 38.2198L38.1618 34.6631L40.1268 38.5936L37.8432 34.8433L39.498 38.918L37.512 34.9985L38.8457 39.1918L37.1701 35.1261L38.1744 39.4124L36.8186 35.2267L37.4874 39.5791L36.4608 35.2985L36.7901 39.6913L36.098 35.3421L36.0866 39.7471L35.7338 35.3562L35.3805 39.7471L35.3691 35.3421L34.6769 39.6913L35.0062 35.2985L33.9797 39.5791L34.6484 35.2267L33.2932 39.4124L34.2976 35.1261L32.6213 39.1918L33.955 34.9985L31.9691 38.918L33.6238 34.8433L31.3402 38.5936L33.3053 34.6631L30.7386 38.2198L33.0019 34.4579L30.1668 37.7998L32.7151 34.229L29.6304 37.3356L32.4472 33.9783L29.1314 36.8303L32.1996 33.7071L28.6729 36.2866L31.9735 33.4166L28.2575 35.7082L31.7708 33.1095L27.8889 35.0991L31.5923 32.787L27.5685 34.4618L31.4396 32.4517L27.2981 33.8014L31.313 32.1048L27.0796 33.1217L31.2142 31.7489L26.9149 32.4266L31.1433 31.3867L26.8047 31.7207L31.1002 31.0199L26.749 31.0084L31.0856 30.6506L26.749 30.2934L31.1002 30.2813L26.8047 29.5804L31.1433 29.9145L26.9149 28.8745L31.2142 29.5522L27.0796 28.1794L31.313 29.1963L27.2981 27.4998L31.4396 28.8501L27.5685 26.8394L31.5923 28.5141L27.8889 26.2027L31.7708 28.1916L28.2575 25.5929L31.9735 27.8845L28.6729 25.0145L32.1996 27.5947L29.1314 24.4708L32.4472 27.3234L29.6304 23.9656L32.7151 27.0721L30.1668 23.5013L33.0019 26.8438L30.7386 23.0813L33.3053 26.638L31.3402 22.7075L33.6238 26.4578L31.9691 22.3831L33.955 26.3033L32.6213 22.11L34.2976 26.1751L33.2932 21.8887L34.6484 26.0751L33.9797 21.722L35.0062 26.0026L34.6769 21.6098L35.3691 25.959L35.3805 21.5541L35.7338 25.9449Z" fill="#3B1004"/>
<path d="M35.7338 25.9449L36.0866 21.5541L36.098 25.959L36.7901 21.6098L36.4608 26.0026L37.4874 21.722L36.8186 26.0751L38.1744 21.8887L37.1701 26.1751L38.8457 22.11L37.512 26.3033L39.498 22.3831L37.8432 26.4578L40.1268 22.7075L38.1618 26.638L40.7291 23.0813L38.4651 26.8438L41.3003 23.5013L38.752 27.0721L41.8367 23.9656L39.0199 27.3234L42.3363 24.4708L39.2675 27.5947L42.7948 25.0145L39.4936 27.8845L43.2096 25.5929L39.6962 28.1916L43.5781 26.2027L39.8748 28.5141L43.8986 26.8394L40.0274 28.8501L44.169 27.4998L40.154 29.1963L44.3875 28.1794L40.2528 29.5522L44.5521 28.8745L40.3238 29.9145L44.6623 29.5804L40.3668 30.2813L44.718 30.2934L40.3814 30.6506L44.718 31.0084L40.3668 31.0199L44.6623 31.7207L40.3238 31.3867L44.5521 32.4266L40.2528 31.7489L44.3875 33.1217L40.154 32.1048L44.169 33.8014L40.0274 32.4517L43.8986 34.4618L39.8748 32.787L43.5781 35.0991L39.6962 33.1095L43.2096 35.7082L39.4936 33.4166L42.7948 36.2866L39.2675 33.7071L42.3363 36.8303L39.0199 33.9783L41.8367 37.3356L38.752 34.229L41.3003 37.7998L38.4651 34.4579L40.7291 38.2198L38.1618 34.6631L40.1268 38.5936L37.8432 34.8433L39.498 38.918L37.512 34.9985L38.8457 39.1918L37.1701 35.1261L38.1744 39.4124L36.8186 35.2267L37.4874 39.5791L36.4608 35.2985L36.7901 39.6913L36.098 35.3421L36.0866 39.7471L35.7338 35.3562L35.3805 39.7471L35.3691 35.3421L34.6769 39.6913L35.0062 35.2985L33.9797 39.5791L34.6484 35.2267L33.2932 39.4124L34.2976 35.1261L32.6213 39.1918L33.955 34.9985L31.9691 38.918L33.6238 34.8433L31.3402 38.5936L33.3053 34.6631L30.7386 38.2198L33.0019 34.4579L30.1668 37.7998L32.7151 34.229L29.6304 37.3356L32.4472 33.9783L29.1314 36.8303L32.1996 33.7071L28.6729 36.2866L31.9735 33.4166L28.2575 35.7082L31.7708 33.1095L27.8889 35.0991L31.5923 32.787L27.5685 34.4618L31.4396 32.4517L27.2981 33.8014L31.313 32.1048L27.0796 33.1217L31.2142 31.7489L26.9149 32.4266L31.1433 31.3867L26.8047 31.7207L31.1002 31.0199L26.749 31.0084L31.0856 30.6506L26.749 30.2934L31.1002 30.2813L26.8047 29.5804L31.1433 29.9145L26.9149 28.8745L31.2142 29.5522L27.0796 28.1794L31.313 29.1963L27.2981 27.4998L31.4396 28.8501L27.5685 26.8394L31.5923 28.5141L27.8889 26.2027L31.7708 28.1916L28.2575 25.5929L31.9735 27.8845L28.6729 25.0145L32.1996 27.5947L29.1314 24.4708L32.4472 27.3234L29.6304 23.9656L32.7151 27.0721L30.1668 23.5013L33.0019 26.8438L30.7386 23.0813L33.3053 26.638L31.3402 22.7075L33.6238 26.4578L31.9691 22.3831L33.955 26.3033L32.6213 22.11L34.2976 26.1751L33.2932 21.8887L34.6484 26.0751L33.9797 21.722L35.0062 26.0026L34.6769 21.6098L35.3691 25.959L35.3805 21.5541L35.7338 25.9449Z" stroke="white" stroke-width="0.117353"/>
<path d="M20.8284 22.2793C20.8284 22.2793 23.1233 17.9468 18.3242 12.9756C23.1196 17.9504 27.3824 15.6624 27.3824 15.6624C24.348 18.651 31.5938 26.6998 33.5117 28.7256C31.557 26.7369 23.7877 19.213 20.8284 22.2793Z" fill="white" stroke="#3B1004" stroke-width="0.564183"/>
<path d="M44.2278 15.5725C44.2278 15.5725 48.4056 17.9524 53.1992 12.9756C48.402 17.9486 50.6083 22.3692 50.6083 22.3692C47.7265 19.2225 39.9652 26.7366 38.0117 28.7256C39.9294 26.6985 47.1846 18.6414 44.2278 15.5725Z" fill="white" stroke="#3B1004" stroke-width="0.564183"/>
<path d="M27.2957 45.8162C27.2957 45.8162 23.1179 43.4363 18.3242 48.4131C23.1214 43.4401 20.9151 39.0195 20.9151 39.0195C23.7969 42.1662 31.5582 34.6521 33.5117 32.6631C31.594 34.6902 24.3388 42.7472 27.2957 45.8162Z" fill="white" stroke="#3B1004" stroke-width="0.564183"/>
<path d="M50.695 39.1094C50.695 39.1094 48.4002 43.4419 53.1992 48.4131C48.4038 43.4382 44.1411 45.7263 44.1411 45.7263C47.1754 42.7377 39.9297 34.6889 38.0117 32.6631C39.9664 34.6518 47.7357 42.1757 50.695 39.1094Z" fill="white" stroke="#3B1004" stroke-width="0.564183"/>
<path fill-rule="evenodd" clip-rule="evenodd" d="M35.733 46.2224C44.3336 46.2224 51.3058 39.2503 51.3058 30.6498C51.3058 22.0493 44.3336 15.0771 35.733 15.0771C27.1323 15.0771 20.1602 22.0493 20.1602 30.6498C20.1602 39.2503 27.1323 46.2224 35.733 46.2224ZM35.7329 44.7216C43.6082 44.7216 49.9923 38.4216 49.9923 30.65C49.9923 22.8785 43.6082 16.5784 35.7329 16.5784C27.8577 16.5784 21.4736 22.8785 21.4736 30.65C21.4736 38.4216 27.8577 44.7216 35.7329 44.7216Z" fill="white"/>
<path d="M50.9045 30.6498C50.9045 39.0287 44.112 45.8212 35.733 45.8212V46.6237C44.5552 46.6237 51.707 39.4719 51.707 30.6498H50.9045ZM35.733 15.4784C44.112 15.4784 50.9045 22.2709 50.9045 30.6498H51.707C51.707 21.8277 44.5552 14.6759 35.733 14.6759V15.4784ZM20.5614 30.6498C20.5614 22.2709 27.3539 15.4784 35.733 15.4784V14.6759C26.9107 14.6759 19.7589 21.8277 19.7589 30.6498H20.5614ZM35.733 45.8212C27.3539 45.8212 20.5614 39.0287 20.5614 30.6498H19.7589C19.7589 39.4719 26.9107 46.6237 35.733 46.6237V45.8212ZM49.5911 30.65C49.5911 38.195 43.3916 44.3204 35.7329 44.3204V45.1229C43.8248 45.1229 50.3936 38.6482 50.3936 30.65H49.5911ZM35.7329 16.9797C43.3916 16.9797 49.5911 23.1051 49.5911 30.65H50.3936C50.3936 22.6519 43.8248 16.1772 35.7329 16.1772V16.9797ZM21.8748 30.65C21.8748 23.1051 28.0743 16.9797 35.7329 16.9797V16.1772C27.6411 16.1772 21.0723 22.6519 21.0723 30.65H21.8748ZM35.7329 44.3204C28.0743 44.3204 21.8748 38.195 21.8748 30.65H21.0723C21.0723 38.6482 27.6411 45.1229 35.7329 45.1229V44.3204Z" fill="#3B1004"/>
<path d="M26.5435 26.7843C26.5435 26.7843 28.4323 23.3458 24.4824 19.4004C28.4293 23.3487 31.9377 21.5328 31.9377 21.5328C29.4403 23.9047 35.4039 30.2926 36.9824 31.9004C35.3736 30.322 28.9791 24.3507 26.5435 26.7843Z" fill="white" stroke="#3B1004" stroke-width="0.564183"/>
<path d="M39.5995 21.4614C39.5995 21.4614 43.038 23.3502 46.9834 19.4004C43.0351 23.3472 44.851 26.8557 44.851 26.8557C42.4791 24.3582 36.0912 30.3218 34.4834 31.9004C36.0618 30.2916 42.0331 23.8971 39.5995 21.4614Z" fill="white" stroke="#3B1004" stroke-width="0.564183"/>
<path d="M31.8663 39.8393C31.8663 39.8393 28.4278 37.9506 24.4824 41.9004C28.4307 37.9535 26.6148 34.4451 26.6148 34.4451C28.9867 36.9425 35.3746 30.979 36.9824 29.4004C35.4041 31.0092 29.4327 37.4037 31.8663 39.8393Z" fill="white" stroke="#3B1004" stroke-width="0.564183"/>
<path d="M44.9204 34.5165C44.9204 34.5165 43.0316 37.955 46.9814 41.9004C43.0346 37.9521 39.5262 39.768 39.5262 39.768C42.0236 37.3961 36.06 31.0082 34.4814 29.4004C36.0902 30.9787 42.4847 36.9501 44.9204 34.5165Z" fill="white" stroke="#3B1004" stroke-width="0.564183"/>
<path d="M55.0412 30.6515C55.0412 32.2027 53.7837 33.4603 52.2325 33.4603C50.6812 33.4603 49.4237 32.2027 49.4237 30.6515C49.4237 29.1002 50.6812 27.8427 52.2325 27.8427C53.7837 27.8427 55.0412 29.1002 55.0412 30.6515Z" fill="white" stroke="#3B1004" stroke-width="0.802508"/>
<ellipse cx="52.2302" cy="30.6511" rx="0.802501" ry="0.802516" fill="#3B1004"/>
<path d="M22.0412 30.6515C22.0412 32.2027 20.7837 33.4603 19.2325 33.4603C17.6812 33.4603 16.4237 32.2027 16.4237 30.6515C16.4237 29.1002 17.6812 27.8427 19.2325 27.8427C20.7837 27.8427 22.0412 29.1002 22.0412 30.6515Z" fill="white" stroke="#3B1004" stroke-width="0.802508"/>
<ellipse cx="19.2322" cy="30.6511" rx="0.802501" ry="0.802516" fill="#3B1004"/>
<path d="M41.258 45.2794C41.5797 45.1253 41.9381 44.9425 42.3074 44.7341C41.7492 44.9029 40.9656 45.1559 39.8942 45.5319L39.8877 45.5346C39.8767 45.5391 39.8619 45.545 39.8434 45.5517C39.8064 45.5653 39.7545 45.5825 39.6899 45.5996C39.561 45.6337 39.3792 45.6681 39.1617 45.6711C38.7219 45.6773 38.1444 45.5547 37.5775 45.0647C36.8196 44.4095 36.1099 43.1245 35.7324 40.6894C35.3557 43.1247 34.6464 44.4095 33.8886 45.0642C33.3218 45.5539 32.7443 45.6759 32.3046 45.6694C32.0871 45.6662 31.9053 45.6317 31.7764 45.5974C31.7118 45.5803 31.66 45.563 31.623 45.5495C31.6045 45.5427 31.5896 45.5368 31.5787 45.5323L31.5722 45.5296C30.4943 45.1508 29.7077 44.897 29.149 44.7282C29.5212 44.939 29.8823 45.1237 30.2063 45.2792C30.5824 45.4598 30.9062 45.5999 31.1354 45.6947C31.25 45.742 31.3408 45.778 31.4026 45.8021C31.4336 45.8141 31.4572 45.8231 31.473 45.829L31.4906 45.8356L31.4943 45.837C33.7 46.6144 34.8361 47.9663 35.4156 49.1347C35.5477 49.401 35.6505 49.6571 35.7306 49.8938C35.8106 49.6571 35.9134 49.4011 36.0454 49.1347C36.6245 47.9663 37.7607 46.6144 39.9679 45.837L39.9717 45.8356L39.9893 45.829C40.0051 45.823 40.0288 45.814 40.0598 45.802C40.1217 45.778 40.2127 45.742 40.3275 45.6946C40.5571 45.5999 40.8813 45.4599 41.258 45.2794Z" fill="white" stroke="#3B1004" stroke-width="0.564183"/>
<path d="M30.2088 16.0224C29.8871 16.1765 29.5287 16.3593 29.1594 16.5677C29.7176 16.3989 30.5012 16.1459 31.5726 15.7699L31.5791 15.7671C31.5901 15.7626 31.6049 15.7568 31.6234 15.75C31.6604 15.7365 31.7122 15.7193 31.7769 15.7022C31.9057 15.668 32.0876 15.6337 32.3051 15.6307C32.7449 15.6245 33.3224 15.747 33.8893 16.2371C34.6472 16.8922 35.3569 18.1773 35.7344 20.6124C36.1111 18.1771 36.8204 16.8923 37.5782 16.2376C38.145 15.7479 38.7225 15.6258 39.1622 15.6323C39.3797 15.6356 39.5615 15.6701 39.6904 15.7043C39.755 15.7215 39.8068 15.7388 39.8438 15.7523C39.8623 15.7591 39.8772 15.765 39.8881 15.7695L39.8946 15.7722C40.9725 16.1509 41.7591 16.4048 42.3178 16.5736C41.9456 16.3628 41.5845 16.178 41.2605 16.0225C40.8844 15.8419 40.5606 15.7018 40.3314 15.6071C40.2168 15.5597 40.126 15.5237 40.0642 15.4997C40.0332 15.4877 40.0096 15.4787 39.9938 15.4727L39.9762 15.4661L39.9725 15.4647C37.7668 14.6874 36.6307 13.3354 36.0512 12.1671C35.9191 11.9007 35.8163 11.6446 35.7361 11.4079C35.6562 11.6446 35.5534 11.9007 35.4214 12.167C34.8423 13.3354 33.7061 14.6874 31.4989 15.4648L31.4951 15.4662L31.4775 15.4728C31.4617 15.4787 31.438 15.4877 31.407 15.4997C31.3451 15.5238 31.2541 15.5598 31.1393 15.6071C30.9097 15.7019 30.5855 15.8419 30.2088 16.0224Z" fill="white" stroke="#3B1004" stroke-width="0.564183"/>
<path d="M63.2919 23.3389V23.0959L64.5069 22.4884V14.1656L63.2919 13.5581V13.3151H67.1343C67.8026 13.3151 68.3999 13.4012 68.9264 13.5733C69.4631 13.7353 69.8833 13.9834 70.187 14.3175C70.4908 14.6415 70.6426 15.0566 70.6426 15.5629C70.6426 16.0792 70.4705 16.5551 70.1263 16.9905C69.782 17.4157 69.2859 17.7195 68.6379 17.9017C69.539 18.0232 70.2427 18.3067 70.7489 18.7522C71.2552 19.1876 71.5083 19.7445 71.5083 20.4229C71.5083 20.9797 71.3311 21.4809 70.9768 21.9264C70.6325 22.3618 70.1566 22.7061 69.5491 22.9592C68.9416 23.2123 68.2531 23.3389 67.4836 23.3389H63.2919ZM66.785 14.1504H65.8738V17.7499H66.8761C67.595 17.7499 68.1569 17.598 68.5619 17.2942C68.9669 16.9804 69.1694 16.545 69.1694 15.9881C69.1694 14.763 68.3746 14.1504 66.785 14.1504ZM67.3621 18.5852H65.8738V22.5036H67.4684C68.2683 22.5036 68.8961 22.3213 69.3517 21.9568C69.8073 21.5923 70.0351 21.1215 70.0351 20.5444C70.0351 19.8559 69.8023 19.3597 69.3365 19.056C68.8809 18.7421 68.2228 18.5852 67.3621 18.5852ZM79.3705 23.4907C78.6111 23.4907 77.9327 23.349 77.3353 23.0655C76.7481 22.782 76.2823 22.3466 75.9381 21.7594C75.5938 21.162 75.4217 20.3925 75.4217 19.4509V14.1656L74.2067 13.5581V13.3151H78.0036V13.5581L76.7886 14.1656V19.2231C76.7886 20.0634 76.9202 20.7317 77.1835 21.2278C77.4467 21.7239 77.8011 22.0783 78.2466 22.2909C78.7022 22.5036 79.2085 22.6099 79.7653 22.6099C80.2108 22.6099 80.6209 22.5137 80.9955 22.3213C81.3803 22.1289 81.684 21.8252 81.9068 21.4101C82.1396 20.9949 82.2561 20.4431 82.2561 19.7546V14.1352L80.7373 13.5581V13.3151H84.519V13.5581L83.3192 14.1504V19.4509C83.3192 20.3925 83.1471 21.162 82.8028 21.7594C82.4586 22.3466 81.9878 22.782 81.3904 23.0655C80.8031 23.349 80.1298 23.4907 79.3705 23.4907ZM87.7782 23.3389V23.0959L88.9932 22.4884V14.1656L87.7782 13.5581V13.3151H91.575V13.5581L90.36 14.1656V22.4884L91.575 23.0959V23.3389H87.7782ZM94.835 23.3389V23.0959L96.05 22.4884V14.1656L94.835 13.5581V13.3151H98.7838V13.5581L97.4169 14.1656V22.5036H101.107L102.14 19.9672H102.383V23.3389H94.835ZM106.818 23.3389V23.0959L108.337 22.4884V14.1504H105.862L104.829 16.383H104.586V13.3151H113.455V16.383H113.212L112.18 14.1504H109.704V22.4884L111.223 23.0959V23.3389H106.818ZM124.524 23.4148L121.73 14.1049L120.591 13.5581V13.3151H124.448V13.5581L123.158 14.1201L125.056 20.6962H125.132L127.759 13.2392H128.321L131.009 20.6962H131.101L132.969 14.1352L131.678 13.5581V13.3151H135.034V13.5581L134.017 14.1201L131.192 23.4148H130.66L127.896 15.9729H127.82L125.056 23.4148H124.524ZM137.547 23.3389V23.0959L138.762 22.4884V14.1656L137.547 13.5581V13.3151H141.344V13.5581L140.129 14.1656V22.4884L141.344 23.0959V23.3389H137.547ZM146.533 23.3389V23.0959L148.051 22.4884V14.1504H145.576L144.543 16.383H144.3V13.3151H153.169V16.383H152.926L151.894 14.1504H149.418V22.4884L150.937 23.0959V23.3389H146.533ZM156.052 23.3389V23.0959L157.267 22.4884V14.1656L156.052 13.5581V13.3151H159.849V13.5581L158.634 14.1656V17.7499H163.798V14.1656L162.583 13.5581V13.3151H166.38V13.5581L165.165 14.1656V22.4884L166.38 23.0959V23.3389H162.583V23.0959L163.798 22.4884V18.5852H158.634V22.4884L159.849 23.0959V23.3389H156.052Z" fill="white"/>
<mask id="path-66-outside-1_1140_1569" maskUnits="userSpaceOnUse" x="63.3047" y="26.3389" width="141" height="24" fill="black">
<rect fill="white" x="63.3047" y="26.3389" width="141" height="24"/>
<path d="M64.9002 48.3389V47.3501L75.437 29.6446H68.052L65.7654 34.2487H65.271V27.9452H81.0298V28.934L70.4313 46.6394H78.4342L80.8753 41.7264H81.3697V48.3389H64.9002ZM98.6846 48.6479C97.1602 48.6479 95.7491 48.3904 94.4513 47.8754C93.1535 47.3398 92.0206 46.6085 91.0524 45.6815C90.1048 44.7339 89.3632 43.6215 88.8276 42.3444C88.292 41.0672 88.0242 39.6664 88.0242 38.142C88.0242 36.6176 88.292 35.2169 88.8276 33.9397C89.3632 32.6625 90.1048 31.5604 91.0524 30.6334C92.0206 29.6858 93.1535 28.9546 94.4513 28.4396C95.7491 27.904 97.1602 27.6362 98.6846 27.6362C100.23 27.6362 101.651 27.904 102.949 28.4396C104.246 28.9546 105.369 29.6858 106.317 30.6334C107.285 31.5604 108.037 32.6625 108.572 33.9397C109.108 35.2169 109.376 36.6176 109.376 38.142C109.376 39.6664 109.108 41.0672 108.572 42.3444C108.037 43.6215 107.285 44.7339 106.317 45.6815C105.369 46.6085 104.246 47.3398 102.949 47.8754C101.651 48.3904 100.23 48.6479 98.6846 48.6479ZM99.1789 47.0411C100.209 47.0411 101.115 46.7115 101.898 46.0523C102.701 45.3931 103.319 44.4661 103.752 43.2713C104.205 42.0766 104.432 40.6758 104.432 39.069C104.432 37.0914 104.154 35.3611 103.598 33.8779C103.062 32.3947 102.331 31.2514 101.404 30.448C100.477 29.624 99.4364 29.212 98.2829 29.212C97.2529 29.212 96.3362 29.5416 95.5328 30.2008C94.7294 30.8394 94.0908 31.7561 93.617 32.9509C93.1638 34.1457 92.9372 35.5465 92.9372 37.1532C92.9372 39.1308 93.2153 40.8612 93.7715 42.3444C94.3277 43.8275 95.0796 44.9811 96.0272 45.8051C96.9748 46.6291 98.0254 47.0411 99.1789 47.0411ZM115.032 48.3389V47.8445L117.659 46.5776V29.7064L115.032 28.4396V27.9452H125.569C128.02 27.9452 130.101 28.3469 131.811 29.1502C133.521 29.9536 134.818 31.0557 135.704 32.4565C136.611 33.8573 137.064 35.4435 137.064 37.215C137.064 38.8218 136.765 40.305 136.168 41.6646C135.591 43.0241 134.777 44.1983 133.727 45.1871C132.676 46.1759 131.44 46.9484 130.019 47.5046C128.597 48.0608 127.042 48.3389 125.353 48.3389H115.032ZM124.302 29.6446H122.325V46.6394H124.735C127.124 46.6394 128.968 45.8772 130.266 44.3528C131.564 42.8078 132.212 40.7479 132.212 38.1729C132.212 35.5774 131.543 33.5071 130.204 31.9621C128.886 30.4171 126.918 29.6446 124.302 29.6446ZM142.649 48.3389V47.8445L145.276 46.5776V29.7064L142.649 28.4396V27.9452H152.568V28.4396L149.941 29.7064V46.5776L152.568 47.8445V48.3389H142.649ZM157.36 48.3389V47.8445L159.245 46.7939L167.31 27.7907H170.029L178.001 46.7321L180.102 47.8445V48.3389H170.338V47.8445L173.026 46.7321L170.925 41.6028H163.602L161.5 46.7321L164.065 47.8445V48.3389H157.36ZM164.312 39.9033H170.214L167.279 32.7037L164.312 39.9033ZM195.057 48.6479C192.894 48.6479 190.999 48.205 189.372 47.3192C187.744 46.4334 186.478 45.2386 185.571 43.7348C184.685 42.2105 184.242 40.4904 184.242 38.5746C184.242 37.0296 184.551 35.598 185.169 34.2796C185.787 32.9612 186.622 31.8076 187.672 30.8188C188.744 29.8094 189.949 29.0267 191.288 28.4705C192.647 27.9143 194.069 27.6362 195.552 27.6362C196.644 27.6362 197.55 27.698 198.271 27.8216C198.992 27.9452 199.641 28.1203 200.218 28.3469C200.794 28.5735 201.371 28.831 201.948 29.1193L202.288 34.8976H201.732L198.796 30.1081C198.281 29.7785 197.797 29.5416 197.344 29.3974C196.891 29.2532 196.345 29.1811 195.706 29.1811C194.45 29.1811 193.317 29.5622 192.307 30.3244C191.318 31.066 190.536 32.1269 189.959 33.5071C189.382 34.8667 189.094 36.4528 189.094 38.2656C189.094 40.0578 189.372 41.6131 189.928 42.9314C190.484 44.2292 191.236 45.2386 192.184 45.9596C193.152 46.66 194.233 47.0102 195.428 47.0102C196.19 47.0102 196.87 46.9175 197.467 46.7321C198.085 46.5261 198.673 46.2686 199.229 45.9596L202.01 41.8191H202.535L202.102 47.0411C201.258 47.5355 200.238 47.9269 199.043 48.2153C197.869 48.5037 196.541 48.6479 195.057 48.6479Z"/>
</mask>
<path d="M64.9002 48.3389V47.3501L75.437 29.6446H68.052L65.7654 34.2487H65.271V27.9452H81.0298V28.934L70.4313 46.6394H78.4342L80.8753 41.7264H81.3697V48.3389H64.9002ZM98.6846 48.6479C97.1602 48.6479 95.7491 48.3904 94.4513 47.8754C93.1535 47.3398 92.0206 46.6085 91.0524 45.6815C90.1048 44.7339 89.3632 43.6215 88.8276 42.3444C88.292 41.0672 88.0242 39.6664 88.0242 38.142C88.0242 36.6176 88.292 35.2169 88.8276 33.9397C89.3632 32.6625 90.1048 31.5604 91.0524 30.6334C92.0206 29.6858 93.1535 28.9546 94.4513 28.4396C95.7491 27.904 97.1602 27.6362 98.6846 27.6362C100.23 27.6362 101.651 27.904 102.949 28.4396C104.246 28.9546 105.369 29.6858 106.317 30.6334C107.285 31.5604 108.037 32.6625 108.572 33.9397C109.108 35.2169 109.376 36.6176 109.376 38.142C109.376 39.6664 109.108 41.0672 108.572 42.3444C108.037 43.6215 107.285 44.7339 106.317 45.6815C105.369 46.6085 104.246 47.3398 102.949 47.8754C101.651 48.3904 100.23 48.6479 98.6846 48.6479ZM99.1789 47.0411C100.209 47.0411 101.115 46.7115 101.898 46.0523C102.701 45.3931 103.319 44.4661 103.752 43.2713C104.205 42.0766 104.432 40.6758 104.432 39.069C104.432 37.0914 104.154 35.3611 103.598 33.8779C103.062 32.3947 102.331 31.2514 101.404 30.448C100.477 29.624 99.4364 29.212 98.2829 29.212C97.2529 29.212 96.3362 29.5416 95.5328 30.2008C94.7294 30.8394 94.0908 31.7561 93.617 32.9509C93.1638 34.1457 92.9372 35.5465 92.9372 37.1532C92.9372 39.1308 93.2153 40.8612 93.7715 42.3444C94.3277 43.8275 95.0796 44.9811 96.0272 45.8051C96.9748 46.6291 98.0254 47.0411 99.1789 47.0411ZM115.032 48.3389V47.8445L117.659 46.5776V29.7064L115.032 28.4396V27.9452H125.569C128.02 27.9452 130.101 28.3469 131.811 29.1502C133.521 29.9536 134.818 31.0557 135.704 32.4565C136.611 33.8573 137.064 35.4435 137.064 37.215C137.064 38.8218 136.765 40.305 136.168 41.6646C135.591 43.0241 134.777 44.1983 133.727 45.1871C132.676 46.1759 131.44 46.9484 130.019 47.5046C128.597 48.0608 127.042 48.3389 125.353 48.3389H115.032ZM124.302 29.6446H122.325V46.6394H124.735C127.124 46.6394 128.968 45.8772 130.266 44.3528C131.564 42.8078 132.212 40.7479 132.212 38.1729C132.212 35.5774 131.543 33.5071 130.204 31.9621C128.886 30.4171 126.918 29.6446 124.302 29.6446ZM142.649 48.3389V47.8445L145.276 46.5776V29.7064L142.649 28.4396V27.9452H152.568V28.4396L149.941 29.7064V46.5776L152.568 47.8445V48.3389H142.649ZM157.36 48.3389V47.8445L159.245 46.7939L167.31 27.7907H170.029L178.001 46.7321L180.102 47.8445V48.3389H170.338V47.8445L173.026 46.7321L170.925 41.6028H163.602L161.5 46.7321L164.065 47.8445V48.3389H157.36ZM164.312 39.9033H170.214L167.279 32.7037L164.312 39.9033ZM195.057 48.6479C192.894 48.6479 190.999 48.205 189.372 47.3192C187.744 46.4334 186.478 45.2386 185.571 43.7348C184.685 42.2105 184.242 40.4904 184.242 38.5746C184.242 37.0296 184.551 35.598 185.169 34.2796C185.787 32.9612 186.622 31.8076 187.672 30.8188C188.744 29.8094 189.949 29.0267 191.288 28.4705C192.647 27.9143 194.069 27.6362 195.552 27.6362C196.644 27.6362 197.55 27.698 198.271 27.8216C198.992 27.9452 199.641 28.1203 200.218 28.3469C200.794 28.5735 201.371 28.831 201.948 29.1193L202.288 34.8976H201.732L198.796 30.1081C198.281 29.7785 197.797 29.5416 197.344 29.3974C196.891 29.2532 196.345 29.1811 195.706 29.1811C194.45 29.1811 193.317 29.5622 192.307 30.3244C191.318 31.066 190.536 32.1269 189.959 33.5071C189.382 34.8667 189.094 36.4528 189.094 38.2656C189.094 40.0578 189.372 41.6131 189.928 42.9314C190.484 44.2292 191.236 45.2386 192.184 45.9596C193.152 46.66 194.233 47.0102 195.428 47.0102C196.19 47.0102 196.87 46.9175 197.467 46.7321C198.085 46.5261 198.673 46.2686 199.229 45.9596L202.01 41.8191H202.535L202.102 47.0411C201.258 47.5355 200.238 47.9269 199.043 48.2153C197.869 48.5037 196.541 48.6479 195.057 48.6479Z" fill="white"/>
<path d="M64.9002 48.3389V47.3501L75.437 29.6446H68.052L65.7654 34.2487H65.271V27.9452H81.0298V28.934L70.4313 46.6394H78.4342L80.8753 41.7264H81.3697V48.3389H64.9002ZM98.6846 48.6479C97.1602 48.6479 95.7491 48.3904 94.4513 47.8754C93.1535 47.3398 92.0206 46.6085 91.0524 45.6815C90.1048 44.7339 89.3632 43.6215 88.8276 42.3444C88.292 41.0672 88.0242 39.6664 88.0242 38.142C88.0242 36.6176 88.292 35.2169 88.8276 33.9397C89.3632 32.6625 90.1048 31.5604 91.0524 30.6334C92.0206 29.6858 93.1535 28.9546 94.4513 28.4396C95.7491 27.904 97.1602 27.6362 98.6846 27.6362C100.23 27.6362 101.651 27.904 102.949 28.4396C104.246 28.9546 105.369 29.6858 106.317 30.6334C107.285 31.5604 108.037 32.6625 108.572 33.9397C109.108 35.2169 109.376 36.6176 109.376 38.142C109.376 39.6664 109.108 41.0672 108.572 42.3444C108.037 43.6215 107.285 44.7339 106.317 45.6815C105.369 46.6085 104.246 47.3398 102.949 47.8754C101.651 48.3904 100.23 48.6479 98.6846 48.6479ZM99.1789 47.0411C100.209 47.0411 101.115 46.7115 101.898 46.0523C102.701 45.3931 103.319 44.4661 103.752 43.2713C104.205 42.0766 104.432 40.6758 104.432 39.069C104.432 37.0914 104.154 35.3611 103.598 33.8779C103.062 32.3947 102.331 31.2514 101.404 30.448C100.477 29.624 99.4364 29.212 98.2829 29.212C97.2529 29.212 96.3362 29.5416 95.5328 30.2008C94.7294 30.8394 94.0908 31.7561 93.617 32.9509C93.1638 34.1457 92.9372 35.5465 92.9372 37.1532C92.9372 39.1308 93.2153 40.8612 93.7715 42.3444C94.3277 43.8275 95.0796 44.9811 96.0272 45.8051C96.9748 46.6291 98.0254 47.0411 99.1789 47.0411ZM115.032 48.3389V47.8445L117.659 46.5776V29.7064L115.032 28.4396V27.9452H125.569C128.02 27.9452 130.101 28.3469 131.811 29.1502C133.521 29.9536 134.818 31.0557 135.704 32.4565C136.611 33.8573 137.064 35.4435 137.064 37.215C137.064 38.8218 136.765 40.305 136.168 41.6646C135.591 43.0241 134.777 44.1983 133.727 45.1871C132.676 46.1759 131.44 46.9484 130.019 47.5046C128.597 48.0608 127.042 48.3389 125.353 48.3389H115.032ZM124.302 29.6446H122.325V46.6394H124.735C127.124 46.6394 128.968 45.8772 130.266 44.3528C131.564 42.8078 132.212 40.7479 132.212 38.1729C132.212 35.5774 131.543 33.5071 130.204 31.9621C128.886 30.4171 126.918 29.6446 124.302 29.6446ZM142.649 48.3389V47.8445L145.276 46.5776V29.7064L142.649 28.4396V27.9452H152.568V28.4396L149.941 29.7064V46.5776L152.568 47.8445V48.3389H142.649ZM157.36 48.3389V47.8445L159.245 46.7939L167.31 27.7907H170.029L178.001 46.7321L180.102 47.8445V48.3389H170.338V47.8445L173.026 46.7321L170.925 41.6028H163.602L161.5 46.7321L164.065 47.8445V48.3389H157.36ZM164.312 39.9033H170.214L167.279 32.7037L164.312 39.9033ZM195.057 48.6479C192.894 48.6479 190.999 48.205 189.372 47.3192C187.744 46.4334 186.478 45.2386 185.571 43.7348C184.685 42.2105 184.242 40.4904 184.242 38.5746C184.242 37.0296 184.551 35.598 185.169 34.2796C185.787 32.9612 186.622 31.8076 187.672 30.8188C188.744 29.8094 189.949 29.0267 191.288 28.4705C192.647 27.9143 194.069 27.6362 195.552 27.6362C196.644 27.6362 197.55 27.698 198.271 27.8216C198.992 27.9452 199.641 28.1203 200.218 28.3469C200.794 28.5735 201.371 28.831 201.948 29.1193L202.288 34.8976H201.732L198.796 30.1081C198.281 29.7785 197.797 29.5416 197.344 29.3974C196.891 29.2532 196.345 29.1811 195.706 29.1811C194.45 29.1811 193.317 29.5622 192.307 30.3244C191.318 31.066 190.536 32.1269 189.959 33.5071C189.382 34.8667 189.094 36.4528 189.094 38.2656C189.094 40.0578 189.372 41.6131 189.928 42.9314C190.484 44.2292 191.236 45.2386 192.184 45.9596C193.152 46.66 194.233 47.0102 195.428 47.0102C196.19 47.0102 196.87 46.9175 197.467 46.7321C198.085 46.5261 198.673 46.2686 199.229 45.9596L202.01 41.8191H202.535L202.102 47.0411C201.258 47.5355 200.238 47.9269 199.043 48.2153C197.869 48.5037 196.541 48.6479 195.057 48.6479Z" fill="url(#paint1_linear_1140_1569)" fill-opacity="0.35" style="mix-blend-mode:hard-light"/>
<path d="M64.9002 48.3389H63.7752C63.7752 48.9602 64.2789 49.4639 64.9002 49.4639V48.3389ZM64.9002 47.3501L63.9335 46.7748C63.8299 46.9488 63.7752 47.1476 63.7752 47.3501H64.9002ZM75.437 29.6446L76.4038 30.22C76.6107 29.8723 76.6149 29.4403 76.415 29.0886C76.215 28.7369 75.8416 28.5196 75.437 28.5196V29.6446ZM68.052 29.6446V28.5196C67.6248 28.5196 67.2344 28.7616 67.0444 29.1442L68.052 29.6446ZM65.7654 34.2487V35.3737C66.1926 35.3737 66.583 35.1317 66.773 34.7491L65.7654 34.2487ZM65.271 34.2487H64.146C64.146 34.87 64.6497 35.3737 65.271 35.3737V34.2487ZM65.271 27.9452V26.8202C64.6497 26.8202 64.146 27.3238 64.146 27.9452H65.271ZM81.0298 27.9452H82.1548C82.1548 27.3238 81.6511 26.8202 81.0298 26.8202V27.9452ZM81.0298 28.934L81.9951 29.5118C82.0996 29.3372 82.1548 29.1375 82.1548 28.934H81.0298ZM70.4313 46.6394L69.466 46.0616C69.2579 46.4092 69.2528 46.8418 69.4526 47.1942C69.6524 47.5466 70.0262 47.7644 70.4313 47.7644V46.6394ZM78.4342 46.6394V47.7644C78.8614 47.7644 79.2517 47.5225 79.4417 47.14L78.4342 46.6394ZM80.8753 41.7264V40.6014C80.4482 40.6014 80.0579 40.8433 79.8678 41.2258L80.8753 41.7264ZM81.3697 41.7264H82.4947C82.4947 41.105 81.991 40.6014 81.3697 40.6014V41.7264ZM81.3697 48.3389V49.4639C81.991 49.4639 82.4947 48.9602 82.4947 48.3389H81.3697ZM66.0252 48.3389V47.3501H63.7752V48.3389H66.0252ZM65.867 47.9254L76.4038 30.22L74.4702 29.0693L63.9335 46.7748L65.867 47.9254ZM75.437 28.5196H68.052V30.7696H75.437V28.5196ZM67.0444 29.1442L64.7579 33.7483L66.773 34.7491L69.0596 30.1451L67.0444 29.1442ZM65.7654 33.1237H65.271V35.3737H65.7654V33.1237ZM66.396 34.2487V27.9452H64.146V34.2487H66.396ZM65.271 29.0702H81.0298V26.8202H65.271V29.0702ZM79.9048 27.9452V28.934H82.1548V27.9452H79.9048ZM80.0645 28.3561L69.466 46.0616L71.3965 47.2172L81.9951 29.5118L80.0645 28.3561ZM70.4313 47.7644H78.4342V45.5144H70.4313V47.7644ZM79.4417 47.14L81.8828 42.2269L79.8678 41.2258L77.4268 46.1388L79.4417 47.14ZM80.8753 42.8514H81.3697V40.6014H80.8753V42.8514ZM80.2447 41.7264V48.3389H82.4947V41.7264H80.2447ZM81.3697 47.2139H64.9002V49.4639H81.3697V47.2139ZM94.4513 47.8754L94.0221 48.9153C94.0269 48.9172 94.0316 48.9192 94.0364 48.9211L94.4513 47.8754ZM91.0524 45.6815L90.2569 46.477C90.2626 46.4828 90.2685 46.4885 90.2743 46.4941L91.0524 45.6815ZM88.8276 33.9397L87.7901 33.5046L87.7901 33.5046L88.8276 33.9397ZM91.0524 30.6334L91.8391 31.4376L91.8393 31.4374L91.0524 30.6334ZM94.4513 28.4396L94.8663 29.4852C94.871 29.4833 94.8758 29.4814 94.8805 29.4795L94.4513 28.4396ZM102.949 28.4396L102.52 29.4795C102.524 29.4814 102.529 29.4833 102.534 29.4852L102.949 28.4396ZM106.317 30.6334L105.521 31.4289C105.527 31.4347 105.533 31.4404 105.539 31.446L106.317 30.6334ZM108.572 33.9397L109.61 33.5046L109.61 33.5046L108.572 33.9397ZM108.572 42.3444L109.61 42.7794L109.61 42.7794L108.572 42.3444ZM106.317 45.6815L107.103 46.4857L107.104 46.4855L106.317 45.6815ZM102.949 47.8754L103.364 48.9211C103.368 48.9192 103.373 48.9172 103.378 48.9153L102.949 47.8754ZM101.898 46.0523L101.185 45.1826C101.181 45.1856 101.177 45.1887 101.173 45.1918L101.898 46.0523ZM103.752 43.2713L102.7 42.8724C102.698 42.8777 102.696 42.883 102.694 42.8883L103.752 43.2713ZM103.598 33.8779L102.539 34.26L102.544 34.2729L103.598 33.8779ZM101.404 30.448L100.656 31.2889L100.667 31.2982L101.404 30.448ZM95.5328 30.2008L96.2328 31.0815C96.2374 31.0779 96.2419 31.0742 96.2464 31.0705L95.5328 30.2008ZM93.617 32.9509L92.5713 32.5362C92.5692 32.5414 92.5671 32.5467 92.5652 32.5519L93.617 32.9509ZM96.0272 45.8051L96.7654 44.9562L96.7654 44.9562L96.0272 45.8051ZM98.6846 47.5229C97.2892 47.5229 96.0203 47.2877 94.8663 46.8297L94.0364 48.9211C95.4779 49.4931 97.0312 49.7729 98.6846 49.7729V47.5229ZM94.8805 46.8355C93.7059 46.3507 92.6927 45.6945 91.8304 44.8689L90.2743 46.4941C91.3484 47.5225 92.6012 48.3289 94.0221 48.9153L94.8805 46.8355ZM91.8479 44.886C91.007 44.0452 90.3461 43.0564 89.8651 41.9093L87.7901 42.7794C88.3803 44.1867 89.2025 45.4227 90.2569 46.477L91.8479 44.886ZM89.8651 41.9093C89.3928 40.7832 89.1492 39.5321 89.1492 38.142H86.8992C86.8992 39.8007 87.1912 41.3512 87.7901 42.7794L89.8651 41.9093ZM89.1492 38.142C89.1492 36.7519 89.3928 35.5009 89.8651 34.3747L87.7901 33.5046C87.1912 34.9328 86.8992 36.4834 86.8992 38.142H89.1492ZM89.8651 34.3747C90.3452 33.2298 91.0037 32.2549 91.8391 31.4376L90.2657 29.8292C89.2059 30.866 88.3812 32.0952 87.7901 33.5046L89.8651 34.3747ZM91.8393 31.4374C92.6974 30.5975 93.7029 29.9469 94.8663 29.4852L94.0364 27.3939C92.6041 27.9622 91.3437 28.7742 90.2655 29.8294L91.8393 31.4374ZM94.8805 29.4795C96.0309 29.0047 97.2947 28.7612 98.6846 28.7612V26.5112C97.0257 26.5112 95.4673 26.8032 94.0221 27.3996L94.8805 29.4795ZM98.6846 28.7612C100.097 28.7612 101.371 29.0055 102.52 29.4795L103.378 27.3996C101.931 26.8025 100.362 26.5112 98.6846 26.5112V28.7612ZM102.534 29.4852C103.695 29.9461 104.687 30.5943 105.521 31.4289L107.112 29.8379C106.052 28.7773 104.798 27.963 103.364 27.3939L102.534 29.4852ZM105.539 31.446C106.392 32.2627 107.057 33.235 107.535 34.3747L109.61 33.5046C109.017 32.09 108.178 30.8581 107.095 29.8208L105.539 31.446ZM107.535 34.3747C108.007 35.5009 108.251 36.7519 108.251 38.142H110.501C110.501 36.4834 110.209 34.9328 109.61 33.5046L107.535 34.3747ZM108.251 38.142C108.251 39.5321 108.007 40.7832 107.535 41.9093L109.61 42.7794C110.209 41.3512 110.501 39.8007 110.501 38.142H108.251ZM107.535 41.9093C107.056 43.0512 106.388 44.0373 105.53 44.8775L107.104 46.4855C108.182 45.4305 109.018 44.1919 109.61 42.7794L107.535 41.9093ZM105.53 44.8773C104.691 45.6977 103.692 46.3515 102.52 46.8355L103.378 48.9153C104.801 48.328 106.047 47.5193 107.103 46.4857L105.53 44.8773ZM102.534 46.8297C101.381 47.287 100.103 47.5229 98.6846 47.5229V49.7729C100.356 49.7729 101.92 49.4938 103.364 48.9211L102.534 46.8297ZM99.1789 48.1661C100.472 48.1661 101.636 47.744 102.623 46.9128L101.173 45.1918C100.595 45.679 99.9456 45.9161 99.1789 45.9161V48.1661ZM102.612 46.922C103.603 46.1087 104.324 44.9971 104.81 43.6543L102.694 42.8883C102.315 43.9352 101.8 44.6775 101.185 45.1826L102.612 46.922ZM104.804 43.6703C105.316 42.32 105.557 40.7784 105.557 39.069H103.307C103.307 40.5731 103.094 41.8331 102.7 42.8724L104.804 43.6703ZM105.557 39.069C105.557 36.9888 105.265 35.1194 104.651 33.4829L102.544 34.2729C103.043 35.6027 103.307 37.1941 103.307 39.069H105.557ZM104.656 33.4958C104.073 31.8821 103.249 30.5582 102.141 29.5979L100.667 31.2982C101.413 31.9446 102.051 32.9073 102.539 34.26L104.656 33.4958ZM102.151 29.6072C101.035 28.6151 99.7337 28.087 98.2829 28.087V30.337C99.1392 30.337 99.9184 30.633 100.656 31.2889L102.151 29.6072ZM98.2829 28.087C96.9901 28.087 95.8218 28.5085 94.8192 29.3311L96.2464 31.0705C96.8506 30.5748 97.5156 30.337 98.2829 30.337V28.087ZM94.8328 29.3202C93.8411 30.1084 93.0995 31.2041 92.5713 32.5362L94.6628 33.3656C95.0821 32.3081 95.6177 31.5704 96.2328 31.0815L94.8328 29.3202ZM92.5652 32.5519C92.053 33.9023 91.8122 35.4438 91.8122 37.1532H94.0622C94.0622 35.6491 94.2747 34.3891 94.6689 33.3499L92.5652 32.5519ZM91.8122 37.1532C91.8122 39.2335 92.1045 41.1029 92.7182 42.7394L94.8249 41.9493C94.3262 40.6195 94.0622 39.0281 94.0622 37.1532H91.8122ZM92.7182 42.7394C93.3232 44.3528 94.168 45.6793 95.289 46.654L96.7654 44.9562C95.9912 44.2829 95.3322 43.3022 94.8249 41.9493L92.7182 42.7394ZM95.289 46.654C96.4217 47.639 97.7292 48.1661 99.1789 48.1661V45.9161C98.3215 45.9161 97.5278 45.6191 96.7654 44.9562L95.289 46.654ZM115.032 48.3389H113.907C113.907 48.9602 114.411 49.4639 115.032 49.4639V48.3389ZM115.032 47.8445L114.544 46.8312C114.155 47.0188 113.907 47.4126 113.907 47.8445H115.032ZM117.659 46.5776L118.148 47.5909C118.537 47.4032 118.784 47.0095 118.784 46.5776H117.659ZM117.659 29.7064H118.784C118.784 29.2746 118.537 28.8808 118.148 28.6932L117.659 29.7064ZM115.032 28.4396H113.907C113.907 28.8714 114.155 29.2652 114.544 29.4528L115.032 28.4396ZM115.032 27.9452V26.8202C114.411 26.8202 113.907 27.3238 113.907 27.9452H115.032ZM131.811 29.1502L132.289 28.1321L132.289 28.132L131.811 29.1502ZM135.704 32.4565L134.753 33.0578L134.76 33.0677L135.704 32.4565ZM136.168 41.6646L135.138 41.212C135.136 41.2164 135.134 41.2208 135.132 41.2252L136.168 41.6646ZM133.727 45.1871L132.956 44.3679L132.956 44.3679L133.727 45.1871ZM130.019 47.5046L130.429 48.5522L130.429 48.5522L130.019 47.5046ZM122.325 29.6446V28.5196C121.703 28.5196 121.2 29.0233 121.2 29.6446H122.325ZM122.325 46.6394H121.2C121.2 47.2607 121.703 47.7644 122.325 47.7644V46.6394ZM130.266 44.3528L131.122 45.0821L131.127 45.0764L130.266 44.3528ZM130.204 31.9621L129.348 32.6924L129.354 32.6989L130.204 31.9621ZM116.157 48.3389V47.8445H113.907V48.3389H116.157ZM115.521 48.8578L118.148 47.5909L117.17 45.5643L114.544 46.8312L115.521 48.8578ZM118.784 46.5776V29.7064H116.534V46.5776H118.784ZM118.148 28.6932L115.521 27.4263L114.544 29.4528L117.17 30.7197L118.148 28.6932ZM116.157 28.4396V27.9452H113.907V28.4396H116.157ZM115.032 29.0702H125.569V26.8202H115.032V29.0702ZM125.569 29.0702C127.902 29.0702 129.81 29.4531 131.332 30.1684L132.289 28.132C130.392 27.2407 128.139 26.8202 125.569 26.8202V29.0702ZM131.332 30.1684C132.876 30.8938 133.997 31.8625 134.753 33.0578L136.655 31.8552C135.639 30.249 134.165 29.0135 132.289 28.1321L131.332 30.1684ZM134.76 33.0677C135.541 34.2749 135.939 35.6463 135.939 37.215H138.189C138.189 35.2407 137.68 33.4396 136.649 31.8453L134.76 33.0677ZM135.939 37.215C135.939 38.6789 135.667 40.0064 135.138 41.212L137.198 42.1171C137.863 40.6035 138.189 38.9647 138.189 37.215H135.939ZM135.132 41.2252C134.615 42.4447 133.89 43.4886 132.956 44.3679L134.498 46.0063C135.665 44.9081 136.567 43.6036 137.203 42.1039L135.132 41.2252ZM132.956 44.3679C132.016 45.2525 130.904 45.95 129.609 46.4569L130.429 48.5522C131.976 47.9467 133.336 47.0993 134.498 46.0063L132.956 44.3679ZM129.609 46.4569C128.331 46.9568 126.917 47.2139 125.353 47.2139V49.4639C127.167 49.4639 128.863 49.1647 130.429 48.5522L129.609 46.4569ZM125.353 47.2139H115.032V49.4639H125.353V47.2139ZM124.302 28.5196H122.325V30.7696H124.302V28.5196ZM121.2 29.6446V46.6394H123.45V29.6446H121.2ZM122.325 47.7644H124.735V45.5144H122.325V47.7644ZM124.735 47.7644C127.384 47.7644 129.569 46.9065 131.122 45.0821L129.409 43.6235C128.367 44.8479 126.865 45.5144 124.735 45.5144V47.7644ZM131.127 45.0764C132.638 43.2781 133.337 40.9378 133.337 38.1729H131.087C131.087 40.5579 130.489 42.3376 129.404 43.6292L131.127 45.0764ZM133.337 38.1729C133.337 35.3818 132.614 33.0252 131.054 31.2253L129.354 32.6989C130.472 33.989 131.087 35.773 131.087 38.1729H133.337ZM131.06 31.2318C129.469 29.3681 127.146 28.5196 124.302 28.5196V30.7696C126.691 30.7696 128.302 31.4661 129.348 32.6924L131.06 31.2318ZM142.649 48.3389H141.524C141.524 48.9602 142.028 49.4639 142.649 49.4639V48.3389ZM142.649 47.8445L142.16 46.8312C141.771 47.0188 141.524 47.4126 141.524 47.8445H142.649ZM145.276 46.5776L145.764 47.5909C146.153 47.4032 146.401 47.0095 146.401 46.5776H145.276ZM145.276 29.7064H146.401C146.401 29.2746 146.153 28.8808 145.764 28.6932L145.276 29.7064ZM142.649 28.4396H141.524C141.524 28.8714 141.771 29.2652 142.16 29.4528L142.649 28.4396ZM142.649 27.9452V26.8202C142.028 26.8202 141.524 27.3238 141.524 27.9452H142.649ZM152.568 27.9452H153.693C153.693 27.3238 153.189 26.8202 152.568 26.8202V27.9452ZM152.568 28.4396L153.057 29.4528C153.446 29.2652 153.693 28.8714 153.693 28.4396H152.568ZM149.941 29.7064L149.453 28.6932C149.064 28.8808 148.816 29.2746 148.816 29.7064H149.941ZM149.941 46.5776H148.816C148.816 47.0095 149.064 47.4032 149.453 47.5909L149.941 46.5776ZM152.568 47.8445H153.693C153.693 47.4126 153.446 47.0188 153.057 46.8312L152.568 47.8445ZM152.568 48.3389V49.4639C153.189 49.4639 153.693 48.9602 153.693 48.3389H152.568ZM143.774 48.3389V47.8445H141.524V48.3389H143.774ZM143.138 48.8578L145.764 47.5909L144.787 45.5643L142.16 46.8312L143.138 48.8578ZM146.401 46.5776V29.7064H144.151V46.5776H146.401ZM145.764 28.6932L143.138 27.4263L142.16 29.4528L144.787 30.7197L145.764 28.6932ZM143.774 28.4396V27.9452H141.524V28.4396H143.774ZM142.649 29.0702H152.568V26.8202H142.649V29.0702ZM151.443 27.9452V28.4396H153.693V27.9452H151.443ZM152.079 27.4263L149.453 28.6932L150.43 30.7197L153.057 29.4528L152.079 27.4263ZM148.816 29.7064V46.5776H151.066V29.7064H148.816ZM149.453 47.5909L152.079 48.8578L153.057 46.8312L150.43 45.5643L149.453 47.5909ZM151.443 47.8445V48.3389H153.693V47.8445H151.443ZM152.568 47.2139H142.649V49.4639H152.568V47.2139ZM157.36 48.3389H156.235C156.235 48.9602 156.739 49.4639 157.36 49.4639V48.3389ZM157.36 47.8445L156.812 46.8618C156.456 47.0604 156.235 47.4365 156.235 47.8445H157.36ZM159.245 46.7939L159.792 47.7766C160.011 47.6548 160.183 47.4636 160.28 47.2334L159.245 46.7939ZM167.31 27.7907V26.6657C166.858 26.6657 166.45 26.9356 166.274 27.3512L167.31 27.7907ZM170.029 27.7907L171.066 27.3543C170.89 26.937 170.481 26.6657 170.029 26.6657V27.7907ZM178.001 46.7321L176.964 47.1685C177.065 47.4078 177.245 47.6049 177.474 47.7264L178.001 46.7321ZM180.102 47.8445H181.227C181.227 47.4278 180.997 47.0452 180.628 46.8502L180.102 47.8445ZM180.102 48.3389V49.4639C180.723 49.4639 181.227 48.9602 181.227 48.3389H180.102ZM170.338 48.3389H169.213C169.213 48.9602 169.716 49.4639 170.338 49.4639V48.3389ZM170.338 47.8445L169.908 46.805C169.487 46.979 169.213 47.3893 169.213 47.8445H170.338ZM173.026 46.7321L173.456 47.7716C174.029 47.5346 174.302 46.8791 174.067 46.3056L173.026 46.7321ZM170.925 41.6028L171.966 41.1763C171.793 40.7538 171.381 40.4778 170.925 40.4778V41.6028ZM163.602 41.6028V40.4778C163.145 40.4778 162.734 40.7538 162.561 41.1763L163.602 41.6028ZM161.5 46.7321L160.459 46.3056C160.227 46.8723 160.491 47.5205 161.053 47.7642L161.5 46.7321ZM164.065 47.8445H165.19C165.19 47.3962 164.924 46.9907 164.513 46.8124L164.065 47.8445ZM164.065 48.3389V49.4639C164.686 49.4639 165.19 48.9602 165.19 48.3389H164.065ZM164.312 39.9033L163.272 39.4747C163.129 39.8218 163.169 40.2173 163.377 40.5292C163.586 40.8411 163.937 41.0283 164.312 41.0283V39.9033ZM170.214 39.9033V41.0283C170.589 41.0283 170.939 40.8418 171.148 40.5309C171.357 40.22 171.397 39.8254 171.256 39.4785L170.214 39.9033ZM167.279 32.7037L168.32 32.279C168.148 31.8562 167.737 31.5795 167.281 31.5787C166.824 31.5779 166.412 31.853 166.238 32.2751L167.279 32.7037ZM158.485 48.3389V47.8445H156.235V48.3389H158.485ZM157.908 48.8271L159.792 47.7766L158.697 45.8112L156.812 46.8618L157.908 48.8271ZM160.28 47.2334L168.345 28.2302L166.274 27.3512L158.209 46.3544L160.28 47.2334ZM167.31 28.9157H170.029V26.6657H167.31V28.9157ZM168.992 28.2271L176.964 47.1685L179.038 46.2957L171.066 27.3543L168.992 28.2271ZM177.474 47.7264L179.576 48.8387L180.628 46.8502L178.527 45.7378L177.474 47.7264ZM178.977 47.8445V48.3389H181.227V47.8445H178.977ZM180.102 47.2139H170.338V49.4639H180.102V47.2139ZM171.463 48.3389V47.8445H169.213V48.3389H171.463ZM170.768 48.884L173.456 47.7716L172.596 45.6926L169.908 46.805L170.768 48.884ZM174.067 46.3056L171.966 41.1763L169.884 42.0292L171.985 47.1585L174.067 46.3056ZM170.925 40.4778H163.602V42.7278H170.925V40.4778ZM162.561 41.1763L160.459 46.3056L162.541 47.1585L164.643 42.0292L162.561 41.1763ZM161.053 47.7642L163.617 48.8766L164.513 46.8124L161.948 45.7L161.053 47.7642ZM162.94 47.8445V48.3389H165.19V47.8445H162.94ZM164.065 47.2139H157.36V49.4639H164.065V47.2139ZM164.312 41.0283H170.214V38.7783H164.312V41.0283ZM171.256 39.4785L168.32 32.279L166.237 33.1284L169.172 40.328L171.256 39.4785ZM166.238 32.2751L163.272 39.4747L165.352 40.3319L168.319 33.1323L166.238 32.2751ZM189.372 47.3192L188.834 48.3073L188.834 48.3073L189.372 47.3192ZM185.571 43.7348L184.598 44.3001C184.601 44.3053 184.605 44.3104 184.608 44.3156L185.571 43.7348ZM185.169 34.2796L186.188 34.7571L186.188 34.7571L185.169 34.2796ZM187.672 30.8188L188.443 31.6381L188.444 31.6376L187.672 30.8188ZM191.288 28.4705L190.862 27.4292L190.856 27.4315L191.288 28.4705ZM198.271 27.8216L198.081 28.9304L198.081 28.9304L198.271 27.8216ZM200.218 28.3469L199.806 29.394L199.806 29.394L200.218 28.3469ZM201.948 29.1193L203.071 29.0533C203.047 28.6516 202.811 28.2931 202.451 28.1131L201.948 29.1193ZM202.288 34.8976V36.0226C202.598 36.0226 202.894 35.8948 203.106 35.6693C203.319 35.4439 203.429 35.1408 203.411 34.8315L202.288 34.8976ZM201.732 34.8976L200.772 35.4854C200.977 35.8191 201.34 36.0226 201.732 36.0226V34.8976ZM198.796 30.1081L199.755 29.5203C199.666 29.3752 199.546 29.2523 199.403 29.1606L198.796 30.1081ZM197.344 29.3974L197.685 28.3254L197.685 28.3254L197.344 29.3974ZM192.307 30.3244L192.982 31.2244L192.985 31.2222L192.307 30.3244ZM189.959 33.5071L190.995 33.9465L190.997 33.9409L189.959 33.5071ZM189.928 42.9314L188.891 43.3687L188.894 43.3746L189.928 42.9314ZM192.184 45.9596L191.502 46.8549C191.51 46.8604 191.517 46.8658 191.524 46.8711L192.184 45.9596ZM197.467 46.7321L197.801 47.8065C197.808 47.8042 197.816 47.8018 197.823 47.7994L197.467 46.7321ZM199.229 45.9596L199.775 46.943C199.931 46.8566 200.063 46.7346 200.163 46.5869L199.229 45.9596ZM202.01 41.8191V40.6941C201.635 40.6941 201.285 40.8807 201.076 41.1918L202.01 41.8191ZM202.535 41.8191L203.656 41.9119C203.682 41.5985 203.576 41.2885 203.363 41.0571C203.15 40.8257 202.85 40.6941 202.535 40.6941V41.8191ZM202.102 47.0411L202.671 48.012C202.987 47.8268 203.193 47.4992 203.224 47.134L202.102 47.0411ZM199.043 48.2153L198.779 47.1217L198.775 47.1227L199.043 48.2153ZM195.057 47.5229C193.051 47.5229 191.346 47.113 189.91 46.3311L188.834 48.3073C190.652 49.2969 192.738 49.7729 195.057 49.7729V47.5229ZM189.91 46.3311C188.448 45.5354 187.332 44.4771 186.535 43.1541L184.608 44.3156C185.623 46.0001 187.041 47.3314 188.834 48.3073L189.91 46.3311ZM186.544 43.1696C185.766 41.8316 185.367 40.3096 185.367 38.5746H183.117C183.117 40.6712 183.604 42.5893 184.598 44.3001L186.544 43.1696ZM185.367 38.5746C185.367 37.1844 185.644 35.917 186.188 34.7571L184.151 33.8021C183.459 35.279 183.117 36.8749 183.117 38.5746H185.367ZM186.188 34.7571C186.746 33.566 187.497 32.5286 188.443 31.6381L186.901 29.9996C185.746 31.0866 184.828 32.3564 184.151 33.8021L186.188 34.7571ZM188.444 31.6376C189.418 30.7201 190.508 30.0126 191.719 29.5094L190.856 27.4315C189.389 28.0407 188.07 28.8988 186.901 30.0001L188.444 31.6376ZM191.714 29.5117C192.937 29.0114 194.213 28.7612 195.552 28.7612V26.5112C193.924 26.5112 192.358 26.8172 190.862 27.4292L191.714 29.5117ZM195.552 28.7612C196.608 28.7612 197.445 28.8214 198.081 28.9304L198.461 26.7127C197.655 26.5745 196.679 26.5112 195.552 26.5112V28.7612ZM198.081 28.9304C198.739 29.0433 199.312 29.1999 199.806 29.394L200.629 27.2998C199.969 27.0406 199.244 26.8471 198.461 26.7127L198.081 28.9304ZM199.806 29.394C200.351 29.6078 200.897 29.8516 201.445 30.1256L202.451 28.1131C201.846 27.8103 201.238 27.5391 200.629 27.2998L199.806 29.394ZM200.825 29.1854L201.165 34.9636L203.411 34.8315L203.071 29.0533L200.825 29.1854ZM202.288 33.7726H201.732V36.0226H202.288V33.7726ZM202.691 34.3097L199.755 29.5203L197.837 30.696L200.772 35.4854L202.691 34.3097ZM199.403 29.1606C198.827 28.7923 198.254 28.5064 197.685 28.3254L197.003 30.4695C197.34 30.5769 197.735 30.7648 198.19 31.0557L199.403 29.1606ZM197.685 28.3254C197.091 28.1364 196.424 28.0561 195.706 28.0561V30.3061C196.266 30.3061 196.69 30.3701 197.003 30.4695L197.685 28.3254ZM195.706 28.0561C194.203 28.0561 192.833 28.5181 191.629 29.4266L192.985 31.2222C193.801 30.6064 194.696 30.3061 195.706 30.3061V28.0561ZM191.632 29.4244C190.452 30.3093 189.559 31.547 188.921 33.0733L190.997 33.9409C191.513 32.7068 192.185 31.8227 192.982 31.2244L191.632 29.4244ZM188.923 33.0677C188.276 34.594 187.969 36.3353 187.969 38.2656H190.219C190.219 36.5704 190.489 35.1393 190.995 33.9465L188.923 33.0677ZM187.969 38.2656C187.969 40.1714 188.264 41.8818 188.891 43.3687L190.965 42.4942C190.479 41.3443 190.219 39.9442 190.219 38.2656H187.969ZM188.894 43.3746C189.512 44.8178 190.374 45.9961 191.502 46.8549L192.865 45.0643C192.098 44.4812 191.456 43.6407 190.962 42.4883L188.894 43.3746ZM191.524 46.8711C192.684 47.7103 193.997 48.1352 195.428 48.1352V45.8852C194.47 45.8852 193.619 45.6097 192.843 45.0481L191.524 46.8711ZM195.428 48.1352C196.28 48.1352 197.075 48.0318 197.801 47.8065L197.134 45.6576C196.665 45.8031 196.101 45.8852 195.428 45.8852V48.1352ZM197.823 47.7994C198.506 47.5719 199.157 47.2866 199.775 46.943L198.682 44.9762C198.188 45.2506 197.665 45.4803 197.112 45.6648L197.823 47.7994ZM200.163 46.5869L202.944 42.4463L201.076 41.1918L198.295 45.3324L200.163 46.5869ZM202.01 42.9441H202.535V40.6941H202.01V42.9441ZM201.414 41.7262L200.981 46.9482L203.224 47.134L203.656 41.9119L201.414 41.7262ZM201.534 46.0702C200.805 46.4969 199.893 46.8528 198.779 47.1217L199.307 49.3089C200.583 49.0009 201.711 48.574 202.671 48.012L201.534 46.0702ZM198.775 47.1227C197.706 47.3854 196.47 47.5229 195.057 47.5229V49.7729C196.611 49.7729 198.033 49.622 199.312 49.3078L198.775 47.1227Z" fill="#3B1004" fill-opacity="0.2" mask="url(#path-66-outside-1_1140_1569)"/>
<defs>
<linearGradient id="paint0_linear_1140_1569" x1="10.431" y1="6.45442" x2="114.451" y2="137.17" gradientUnits="userSpaceOnUse">
<stop stop-color="#445993"/>
<stop offset="0.518694" stop-color="#7A7D32"/>
<stop offset="1" stop-color="#BB2810"/>
</linearGradient>
<linearGradient id="paint1_linear_1140_1569" x1="69.0402" y1="28.3415" x2="111.895" y2="103.091" gradientUnits="userSpaceOnUse">
<stop stop-color="#445993"/>
<stop offset="0.518694" stop-color="#7A7D32"/>
<stop offset="1" stop-color="#BB2810"/>
</linearGradient>
</defs>
</svg>
