<svg width="223" height="61" viewBox="0 0 223 61" fill="none" xmlns="http://www.w3.org/2000/svg">
<rect width="221.458" height="60.1875" transform="translate(0.722656 0.245117)" fill="white"/>
<rect width="221.458" height="60.1875" transform="translate(0.722656 0.245117)" fill="url(#paint0_linear_1140_1570)" fill-opacity="0.3" style="mix-blend-mode:hard-light"/>
<rect x="5.50391" y="5.02637" width="211.438" height="50.4375" stroke="#3B1004" stroke-width="0.5625"/>
<path d="M8.40332 57.7139H214.132" stroke="#3B1004" stroke-width="0.5625"/>
<path d="M8.96016 2.77637H7.74442V7.26688L3.25391 7.28337V8.49086" stroke="#3B1004" stroke-width="0.5625"/>
<circle cx="218.348" cy="3.62012" r="1.125" fill="#3B1004"/>
<circle cx="218.348" cy="56.8701" r="1.125" fill="#3B1004"/>
<circle cx="4.09766" cy="3.62012" r="1.125" fill="#3B1004"/>
<circle cx="4.09766" cy="56.8701" r="1.125" fill="#3B1004"/>
<path d="M214.067 2.77637H214.719V7.27225H219.19V7.91445" stroke="#3B1004" stroke-width="0.5625"/>
<path d="M219.191 52.6572V53.2047H214.705V57.7118H213.999" stroke="#3B1004" stroke-width="0.5625"/>
<path d="M3.25391 52.3594V53.21H7.78556V57.7172H8.55879" stroke="#3B1004" stroke-width="0.5625"/>
<path d="M3.25391 8.02832V52.4617" stroke="#3B1004" stroke-width="0.5625"/>
<path d="M8.86816 2.77637H214.146" stroke="#3B1004" stroke-width="0.5625"/>
<path d="M219.191 7.67383V52.8171" stroke="#3B1004" stroke-width="0.5625"/>
<ellipse cx="35.7327" cy="30.3385" rx="19.26" ry="19.2604" fill="white" stroke="#3B1004" stroke-width="0.84375"/>
<ellipse cx="35.7327" cy="30.3375" rx="17.7884" ry="17.7887" fill="white" stroke="#3B1004" stroke-width="0.84375"/>
<path d="M35.7334 11.2129V49.4629" stroke="#3B1004" stroke-width="0.804375"/>
<path d="M26.1709 13.7754L45.2959 46.9009" stroke="#3B1004" stroke-width="0.804375"/>
<path d="M19.1699 20.7754L52.2954 39.9004" stroke="#3B1004" stroke-width="0.804375"/>
<path d="M16.6084 30.3379L54.8584 30.3379" stroke="#3B1004" stroke-width="0.804375"/>
<path d="M19.1699 39.9004L52.2954 20.7754" stroke="#3B1004" stroke-width="0.804375"/>
<path d="M26.1709 46.9014L45.2959 13.7759" stroke="#3B1004" stroke-width="0.804375"/>
<path d="M40.3024 13.2835C38.3674 12.765 36.3785 13.9133 35.8601 15.8483L42.8671 17.7258C43.3856 15.7909 42.2373 13.802 40.3024 13.2835Z" fill="white"/>
<path d="M42.8671 17.7258C43.3856 15.7909 42.2373 13.802 40.3024 13.2835C38.3674 12.765 36.3785 13.9133 35.8601 15.8483" stroke="#3B1004" stroke-width="0.5625"/>
<path d="M31.1625 47.3942C33.0974 47.9127 35.0863 46.7644 35.6048 44.8295L28.5977 42.9519C28.0792 44.8869 29.2275 46.8758 31.1625 47.3942Z" fill="white"/>
<path d="M28.5977 42.9519C28.0792 44.8869 29.2275 46.8758 31.1625 47.3942C33.0974 47.9127 35.0863 46.7644 35.6048 44.8295" stroke="#3B1004" stroke-width="0.5625"/>
<path d="M31.1627 13.2839C29.2278 13.8024 28.0795 15.7912 28.598 17.7262L35.605 15.8487C35.0866 13.9137 33.0977 12.7654 31.1627 13.2839Z" fill="white"/>
<path d="M35.605 15.8487C35.0866 13.9137 33.0977 12.7654 31.1627 13.2839C29.2278 13.8024 28.0795 15.7912 28.598 17.7262" stroke="#3B1004" stroke-width="0.5625"/>
<path d="M40.3031 47.3948C42.2381 46.8764 43.3863 44.8875 42.8679 42.9525L35.8608 44.8301C36.3792 46.765 38.3681 47.9133 40.3031 47.3948Z" fill="white"/>
<path d="M35.8608 44.8291C36.3792 46.764 38.3681 47.9123 40.3031 47.3939C42.2381 46.8754 43.3863 44.8865 42.8679 42.9515" stroke="#3B1004" stroke-width="0.5625"/>
<path d="M23.2484 17.8532C21.8319 19.2697 21.8319 21.5663 23.2484 22.9827L28.3779 17.8532C26.9614 16.4367 24.6649 16.4367 23.2484 17.8532Z" fill="white"/>
<path d="M28.3779 17.8532C26.9614 16.4367 24.6649 16.4367 23.2484 17.8532C21.8319 19.2697 21.8319 21.5663 23.2484 22.9827" stroke="#3B1004" stroke-width="0.5625"/>
<path d="M48.2194 42.8236C49.6359 41.4071 49.6359 39.1105 48.2194 37.694L43.0899 42.8236C44.5063 44.24 46.8029 44.24 48.2194 42.8236Z" fill="white"/>
<path d="M43.0889 42.8236C44.5054 44.24 46.8019 44.24 48.2184 42.8236C49.6349 41.4071 49.6349 39.1105 48.2184 37.694" stroke="#3B1004" stroke-width="0.5625"/>
<path d="M18.678 25.7679C18.1596 27.7029 19.3078 29.6918 21.2428 30.2103L23.1203 23.2032C21.1854 22.6847 19.1965 23.833 18.678 25.7679Z" fill="white"/>
<path d="M23.1203 23.2032C21.1854 22.6847 19.1965 23.833 18.678 25.7679C18.1596 27.7029 19.3078 29.6918 21.2428 30.2103" stroke="#3B1004" stroke-width="0.5625"/>
<path d="M52.7897 34.9078C53.3082 32.9729 52.1599 30.984 50.225 30.4655L48.3474 37.4726C50.2824 37.9911 52.2713 36.8428 52.7897 34.9078Z" fill="white"/>
<path d="M48.3465 37.4726C50.2814 37.9911 52.2703 36.8428 52.7888 34.9078C53.3072 32.9729 52.1589 30.984 50.224 30.4655" stroke="#3B1004" stroke-width="0.5625"/>
<path d="M18.6784 34.9076C19.1969 36.8425 21.1858 37.9908 23.1207 37.4724L21.2432 30.4653C19.3082 30.9837 18.1599 32.9726 18.6784 34.9076Z" fill="white"/>
<path d="M21.2432 30.4653C19.3082 30.9837 18.1599 32.9726 18.6784 34.9076C19.1969 36.8425 21.1858 37.9908 23.1207 37.4724" stroke="#3B1004" stroke-width="0.5625"/>
<path d="M52.7894 25.7672C52.2709 23.8323 50.282 22.684 48.347 23.2024L50.2246 30.2095C52.1595 29.6911 53.3078 27.7022 52.7894 25.7672Z" fill="white"/>
<path d="M50.2236 30.2095C52.1586 29.6911 53.3068 27.7022 52.7884 25.7672C52.2699 23.8323 50.281 22.684 48.3461 23.2024" stroke="#3B1004" stroke-width="0.5625"/>
<path d="M23.2477 42.8219C24.6642 44.2384 26.9608 44.2384 28.3773 42.8219L23.2477 37.6924C21.8312 39.1089 21.8312 41.4055 23.2477 42.8219Z" fill="white"/>
<path d="M23.2477 37.6924C21.8312 39.1089 21.8312 41.4055 23.2477 42.8219C24.6642 44.2384 26.9608 44.2384 28.3773 42.8219" stroke="#3B1004" stroke-width="0.5625"/>
<path d="M48.2181 17.8509C46.8016 16.4344 44.505 16.4344 43.0885 17.8509L48.2181 22.9805C49.6346 21.564 49.6346 19.2674 48.2181 17.8509Z" fill="white"/>
<path d="M48.2181 22.9814C49.6346 21.5649 49.6346 19.2684 48.2181 17.8519C46.8016 16.4354 44.505 16.4354 43.0885 17.8519" stroke="#3B1004" stroke-width="0.5625"/>
<path d="M46.7172 30.3379C46.7172 36.4043 41.7994 41.3221 35.7331 41.3221C29.6668 41.3221 24.7491 36.4043 24.7491 30.3379C24.7491 24.2714 29.6668 19.3536 35.7331 19.3536C41.7994 19.3536 46.7172 24.2714 46.7172 30.3379Z" fill="#3B1004" stroke="#3B1004" stroke-width="0.683804"/>
<path d="M35.7338 25.6324L36.0866 21.2416L36.098 25.6465L36.7901 21.2973L36.4608 25.6901L37.4874 21.4095L36.8186 25.7626L38.1744 21.5762L37.1701 25.8626L38.8457 21.7975L37.512 25.9908L39.498 22.0706L37.8432 26.1453L40.1268 22.395L38.1618 26.3255L40.7291 22.7688L38.4651 26.5313L41.3003 23.1888L38.752 26.7596L41.8367 23.6531L39.0199 27.0109L42.3363 24.1583L39.2675 27.2822L42.7948 24.702L39.4936 27.572L43.2096 25.2804L39.6962 27.8791L43.5781 25.8902L39.8748 28.2016L43.8986 26.5269L40.0274 28.5376L44.169 27.1873L40.154 28.8838L44.3875 27.8669L40.2528 29.2397L44.5521 28.562L40.3238 29.602L44.6623 29.2679L40.3668 29.9688L44.718 29.9809L40.3814 30.3381L44.718 30.6959L40.3668 30.7074L44.6623 31.4082L40.3238 31.0742L44.5521 32.1141L40.2528 31.4364L44.3875 32.8092L40.154 31.7923L44.169 33.4889L40.0274 32.1392L43.8986 34.1493L39.8748 32.4745L43.5781 34.7866L39.6962 32.797L43.2096 35.3957L39.4936 33.1041L42.7948 35.9741L39.2675 33.3946L42.3363 36.5178L39.0199 33.6658L41.8367 37.0231L38.752 33.9165L41.3003 37.4873L38.4651 34.1454L40.7291 37.9073L38.1618 34.3506L40.1268 38.2811L37.8432 34.5308L39.498 38.6055L37.512 34.686L38.8457 38.8793L37.1701 34.8136L38.1744 39.0999L36.8186 34.9142L37.4874 39.2666L36.4608 34.986L36.7901 39.3788L36.098 35.0296L36.0866 39.4346L35.7338 35.0437L35.3805 39.4346L35.3691 35.0296L34.6769 39.3788L35.0062 34.986L33.9797 39.2666L34.6484 34.9142L33.2932 39.0999L34.2976 34.8136L32.6213 38.8793L33.955 34.686L31.9691 38.6055L33.6238 34.5308L31.3402 38.2811L33.3053 34.3506L30.7386 37.9073L33.0019 34.1454L30.1668 37.4873L32.7151 33.9165L29.6304 37.0231L32.4472 33.6658L29.1314 36.5178L32.1996 33.3946L28.6729 35.9741L31.9735 33.1041L28.2575 35.3957L31.7708 32.797L27.8889 34.7866L31.5923 32.4745L27.5685 34.1493L31.4396 32.1392L27.2981 33.4889L31.313 31.7923L27.0796 32.8092L31.2142 31.4364L26.9149 32.1141L31.1433 31.0742L26.8047 31.4082L31.1002 30.7074L26.749 30.6959L31.0856 30.3381L26.749 29.9809L31.1002 29.9688L26.8047 29.2679L31.1433 29.602L26.9149 28.562L31.2142 29.2397L27.0796 27.8669L31.313 28.8838L27.2981 27.1873L31.4396 28.5376L27.5685 26.5269L31.5923 28.2016L27.8889 25.8902L31.7708 27.8791L28.2575 25.2804L31.9735 27.572L28.6729 24.702L32.1996 27.2822L29.1314 24.1583L32.4472 27.0109L29.6304 23.6531L32.7151 26.7596L30.1668 23.1888L33.0019 26.5313L30.7386 22.7688L33.3053 26.3255L31.3402 22.395L33.6238 26.1453L31.9691 22.0706L33.955 25.9908L32.6213 21.7975L34.2976 25.8626L33.2932 21.5762L34.6484 25.7626L33.9797 21.4095L35.0062 25.6901L34.6769 21.2973L35.3691 25.6465L35.3805 21.2416L35.7338 25.6324Z" fill="#3B1004"/>
<path d="M35.7338 25.6324L36.0866 21.2416L36.098 25.6465L36.7901 21.2973L36.4608 25.6901L37.4874 21.4095L36.8186 25.7626L38.1744 21.5762L37.1701 25.8626L38.8457 21.7975L37.512 25.9908L39.498 22.0706L37.8432 26.1453L40.1268 22.395L38.1618 26.3255L40.7291 22.7688L38.4651 26.5313L41.3003 23.1888L38.752 26.7596L41.8367 23.6531L39.0199 27.0109L42.3363 24.1583L39.2675 27.2822L42.7948 24.702L39.4936 27.572L43.2096 25.2804L39.6962 27.8791L43.5781 25.8902L39.8748 28.2016L43.8986 26.5269L40.0274 28.5376L44.169 27.1873L40.154 28.8838L44.3875 27.8669L40.2528 29.2397L44.5521 28.562L40.3238 29.602L44.6623 29.2679L40.3668 29.9688L44.718 29.9809L40.3814 30.3381L44.718 30.6959L40.3668 30.7074L44.6623 31.4082L40.3238 31.0742L44.5521 32.1141L40.2528 31.4364L44.3875 32.8092L40.154 31.7923L44.169 33.4889L40.0274 32.1392L43.8986 34.1493L39.8748 32.4745L43.5781 34.7866L39.6962 32.797L43.2096 35.3957L39.4936 33.1041L42.7948 35.9741L39.2675 33.3946L42.3363 36.5178L39.0199 33.6658L41.8367 37.0231L38.752 33.9165L41.3003 37.4873L38.4651 34.1454L40.7291 37.9073L38.1618 34.3506L40.1268 38.2811L37.8432 34.5308L39.498 38.6055L37.512 34.686L38.8457 38.8793L37.1701 34.8136L38.1744 39.0999L36.8186 34.9142L37.4874 39.2666L36.4608 34.986L36.7901 39.3788L36.098 35.0296L36.0866 39.4346L35.7338 35.0437L35.3805 39.4346L35.3691 35.0296L34.6769 39.3788L35.0062 34.986L33.9797 39.2666L34.6484 34.9142L33.2932 39.0999L34.2976 34.8136L32.6213 38.8793L33.955 34.686L31.9691 38.6055L33.6238 34.5308L31.3402 38.2811L33.3053 34.3506L30.7386 37.9073L33.0019 34.1454L30.1668 37.4873L32.7151 33.9165L29.6304 37.0231L32.4472 33.6658L29.1314 36.5178L32.1996 33.3946L28.6729 35.9741L31.9735 33.1041L28.2575 35.3957L31.7708 32.797L27.8889 34.7866L31.5923 32.4745L27.5685 34.1493L31.4396 32.1392L27.2981 33.4889L31.313 31.7923L27.0796 32.8092L31.2142 31.4364L26.9149 32.1141L31.1433 31.0742L26.8047 31.4082L31.1002 30.7074L26.749 30.6959L31.0856 30.3381L26.749 29.9809L31.1002 29.9688L26.8047 29.2679L31.1433 29.602L26.9149 28.562L31.2142 29.2397L27.0796 27.8669L31.313 28.8838L27.2981 27.1873L31.4396 28.5376L27.5685 26.5269L31.5923 28.2016L27.8889 25.8902L31.7708 27.8791L28.2575 25.2804L31.9735 27.572L28.6729 24.702L32.1996 27.2822L29.1314 24.1583L32.4472 27.0109L29.6304 23.6531L32.7151 26.7596L30.1668 23.1888L33.0019 26.5313L30.7386 22.7688L33.3053 26.3255L31.3402 22.395L33.6238 26.1453L31.9691 22.0706L33.955 25.9908L32.6213 21.7975L34.2976 25.8626L33.2932 21.5762L34.6484 25.7626L33.9797 21.4095L35.0062 25.6901L34.6769 21.2973L35.3691 25.6465L35.3805 21.2416L35.7338 25.6324Z" stroke="white" stroke-width="0.117353"/>
<path d="M20.8284 21.9668C20.8284 21.9668 23.1233 17.6343 18.3242 12.6631C23.1196 17.6379 27.3824 15.3499 27.3824 15.3499C24.348 18.3385 31.5938 26.3873 33.5117 28.4131C31.557 26.4244 23.7877 18.9005 20.8284 21.9668Z" fill="white" stroke="#3B1004" stroke-width="0.564183"/>
<path d="M44.2278 15.26C44.2278 15.26 48.4056 17.6399 53.1992 12.6631C48.402 17.6361 50.6083 22.0567 50.6083 22.0567C47.7265 18.91 39.9652 26.4241 38.0117 28.4131C39.9294 26.386 47.1846 18.3289 44.2278 15.26Z" fill="white" stroke="#3B1004" stroke-width="0.564183"/>
<path d="M27.2957 45.5037C27.2957 45.5037 23.1179 43.1238 18.3242 48.1006C23.1214 43.1276 20.9151 38.707 20.9151 38.707C23.7969 41.8537 31.5582 34.3396 33.5117 32.3506C31.594 34.3777 24.3388 42.4347 27.2957 45.5037Z" fill="white" stroke="#3B1004" stroke-width="0.564183"/>
<path d="M50.695 38.7969C50.695 38.7969 48.4002 43.1294 53.1992 48.1006C48.4038 43.1257 44.1411 45.4138 44.1411 45.4138C47.1754 42.4252 39.9297 34.3764 38.0117 32.3506C39.9664 34.3393 47.7357 41.8632 50.695 38.7969Z" fill="white" stroke="#3B1004" stroke-width="0.564183"/>
<path fill-rule="evenodd" clip-rule="evenodd" d="M35.733 45.9099C44.3336 45.9099 51.3058 38.9378 51.3058 30.3373C51.3058 21.7368 44.3336 14.7646 35.733 14.7646C27.1323 14.7646 20.1602 21.7368 20.1602 30.3373C20.1602 38.9378 27.1323 45.9099 35.733 45.9099ZM35.7329 44.4091C43.6082 44.4091 49.9923 38.1091 49.9923 30.3375C49.9923 22.566 43.6082 16.2659 35.7329 16.2659C27.8577 16.2659 21.4736 22.566 21.4736 30.3375C21.4736 38.1091 27.8577 44.4091 35.7329 44.4091Z" fill="white"/>
<path d="M50.9045 30.3373C50.9045 38.7162 44.112 45.5087 35.733 45.5087V46.3112C44.5552 46.3112 51.707 39.1594 51.707 30.3373H50.9045ZM35.733 15.1659C44.112 15.1659 50.9045 21.9584 50.9045 30.3373H51.707C51.707 21.5152 44.5552 14.3634 35.733 14.3634V15.1659ZM20.5614 30.3373C20.5614 21.9584 27.3539 15.1659 35.733 15.1659V14.3634C26.9107 14.3634 19.7589 21.5152 19.7589 30.3373H20.5614ZM35.733 45.5087C27.3539 45.5087 20.5614 38.7162 20.5614 30.3373H19.7589C19.7589 39.1594 26.9107 46.3112 35.733 46.3112V45.5087ZM49.5911 30.3375C49.5911 37.8825 43.3916 44.0079 35.7329 44.0079V44.8104C43.8248 44.8104 50.3936 38.3357 50.3936 30.3375H49.5911ZM35.7329 16.6672C43.3916 16.6672 49.5911 22.7926 49.5911 30.3375H50.3936C50.3936 22.3394 43.8248 15.8647 35.7329 15.8647V16.6672ZM21.8748 30.3375C21.8748 22.7926 28.0743 16.6672 35.7329 16.6672V15.8647C27.6411 15.8647 21.0723 22.3394 21.0723 30.3375H21.8748ZM35.7329 44.0079C28.0743 44.0079 21.8748 37.8825 21.8748 30.3375H21.0723C21.0723 38.3357 27.6411 44.8104 35.7329 44.8104V44.0079Z" fill="#3B1004"/>
<path d="M26.5435 26.4718C26.5435 26.4718 28.4323 23.0333 24.4824 19.0879C28.4293 23.0362 31.9377 21.2203 31.9377 21.2203C29.4403 23.5922 35.4039 29.9801 36.9824 31.5879C35.3736 30.0095 28.9791 24.0382 26.5435 26.4718Z" fill="white" stroke="#3B1004" stroke-width="0.564183"/>
<path d="M39.5995 21.1489C39.5995 21.1489 43.038 23.0377 46.9834 19.0879C43.0351 23.0347 44.851 26.5432 44.851 26.5432C42.4791 24.0457 36.0912 30.0093 34.4834 31.5879C36.0618 29.9791 42.0331 23.5846 39.5995 21.1489Z" fill="white" stroke="#3B1004" stroke-width="0.564183"/>
<path d="M31.8663 39.5268C31.8663 39.5268 28.4278 37.6381 24.4824 41.5879C28.4307 37.641 26.6148 34.1326 26.6148 34.1326C28.9867 36.63 35.3746 30.6665 36.9824 29.0879C35.4041 30.6967 29.4327 37.0912 31.8663 39.5268Z" fill="white" stroke="#3B1004" stroke-width="0.564183"/>
<path d="M44.9204 34.204C44.9204 34.204 43.0316 37.6425 46.9814 41.5879C43.0346 37.6396 39.5262 39.4555 39.5262 39.4555C42.0236 37.0836 36.06 30.6957 34.4814 29.0879C36.0902 30.6662 42.4847 36.6376 44.9204 34.204Z" fill="white" stroke="#3B1004" stroke-width="0.564183"/>
<path d="M55.0412 30.339C55.0412 31.8902 53.7837 33.1478 52.2325 33.1478C50.6812 33.1478 49.4237 31.8902 49.4237 30.339C49.4237 28.7877 50.6812 27.5302 52.2325 27.5302C53.7837 27.5302 55.0412 28.7877 55.0412 30.339Z" fill="white" stroke="#3B1004" stroke-width="0.802508"/>
<ellipse cx="52.2302" cy="30.3386" rx="0.802501" ry="0.802516" fill="#3B1004"/>
<path d="M22.0412 30.339C22.0412 31.8902 20.7837 33.1478 19.2325 33.1478C17.6812 33.1478 16.4237 31.8902 16.4237 30.339C16.4237 28.7877 17.6812 27.5302 19.2325 27.5302C20.7837 27.5302 22.0412 28.7877 22.0412 30.339Z" fill="white" stroke="#3B1004" stroke-width="0.802508"/>
<ellipse cx="19.2322" cy="30.3386" rx="0.802501" ry="0.802516" fill="#3B1004"/>
<path d="M41.258 44.9669C41.5797 44.8128 41.9381 44.63 42.3074 44.4216C41.7492 44.5904 40.9656 44.8434 39.8942 45.2194L39.8877 45.2221C39.8767 45.2266 39.8619 45.2325 39.8434 45.2392C39.8064 45.2528 39.7545 45.27 39.6899 45.2871C39.561 45.3212 39.3792 45.3556 39.1617 45.3586C38.7219 45.3648 38.1444 45.2422 37.5775 44.7522C36.8196 44.097 36.1099 42.812 35.7324 40.3769C35.3557 42.8122 34.6464 44.097 33.8886 44.7517C33.3218 45.2414 32.7443 45.3634 32.3046 45.3569C32.0871 45.3537 31.9053 45.3192 31.7764 45.2849C31.7118 45.2678 31.66 45.2505 31.623 45.237C31.6045 45.2302 31.5896 45.2243 31.5787 45.2198L31.5722 45.2171C30.4943 44.8383 29.7077 44.5845 29.149 44.4157C29.5212 44.6265 29.8823 44.8112 30.2063 44.9667C30.5824 45.1473 30.9062 45.2874 31.1354 45.3822C31.25 45.4295 31.3408 45.4655 31.4026 45.4896C31.4336 45.5016 31.4572 45.5106 31.473 45.5165L31.4906 45.5231L31.4943 45.5245C33.7 46.3019 34.8361 47.6538 35.4156 48.8222C35.5477 49.0885 35.6505 49.3446 35.7306 49.5813C35.8106 49.3446 35.9134 49.0886 36.0454 48.8222C36.6245 47.6538 37.7607 46.3019 39.9679 45.5245L39.9717 45.5231L39.9893 45.5165C40.0051 45.5105 40.0288 45.5015 40.0598 45.4895C40.1217 45.4655 40.2127 45.4295 40.3275 45.3821C40.5571 45.2874 40.8813 45.1474 41.258 44.9669Z" fill="white" stroke="#3B1004" stroke-width="0.564183"/>
<path d="M30.2088 15.7099C29.8871 15.864 29.5287 16.0468 29.1594 16.2552C29.7176 16.0864 30.5012 15.8334 31.5726 15.4574L31.5791 15.4546C31.5901 15.4501 31.6049 15.4443 31.6234 15.4375C31.6604 15.424 31.7122 15.4068 31.7769 15.3897C31.9057 15.3555 32.0876 15.3212 32.3051 15.3182C32.7449 15.312 33.3224 15.4345 33.8893 15.9246C34.6472 16.5797 35.3569 17.8648 35.7344 20.2999C36.1111 17.8646 36.8204 16.5798 37.5782 15.9251C38.145 15.4354 38.7225 15.3133 39.1622 15.3198C39.3797 15.3231 39.5615 15.3576 39.6904 15.3918C39.755 15.409 39.8068 15.4263 39.8438 15.4398C39.8623 15.4466 39.8772 15.4525 39.8881 15.457L39.8946 15.4597C40.9725 15.8384 41.7591 16.0923 42.3178 16.2611C41.9456 16.0503 41.5845 15.8655 41.2605 15.71C40.8844 15.5294 40.5606 15.3893 40.3314 15.2946C40.2168 15.2472 40.126 15.2112 40.0642 15.1872C40.0332 15.1752 40.0096 15.1662 39.9938 15.1602L39.9762 15.1536L39.9725 15.1522C37.7668 14.3749 36.6307 13.0229 36.0512 11.8546C35.9191 11.5882 35.8163 11.3321 35.7361 11.0954C35.6562 11.3321 35.5534 11.5882 35.4214 11.8545C34.8423 13.0229 33.7061 14.3749 31.4989 15.1523L31.4951 15.1537L31.4775 15.1603C31.4617 15.1662 31.438 15.1752 31.407 15.1872C31.3451 15.2113 31.2541 15.2473 31.1393 15.2946C30.9097 15.3894 30.5855 15.5294 30.2088 15.7099Z" fill="white" stroke="#3B1004" stroke-width="0.564183"/>
<path d="M63.2919 23.0264V22.7834L64.5069 22.1759V13.8531L63.2919 13.2456V13.0026H67.1343C67.8026 13.0026 68.3999 13.0887 68.9264 13.2608C69.4631 13.4228 69.8833 13.6709 70.187 14.005C70.4908 14.329 70.6426 14.7441 70.6426 15.2504C70.6426 15.7667 70.4705 16.2426 70.1263 16.678C69.782 17.1032 69.2859 17.407 68.6379 17.5892C69.539 17.7107 70.2427 17.9942 70.7489 18.4397C71.2552 18.8751 71.5083 19.432 71.5083 20.1104C71.5083 20.6672 71.3311 21.1684 70.9768 21.6139C70.6325 22.0493 70.1566 22.3936 69.5491 22.6467C68.9416 22.8998 68.2531 23.0264 67.4836 23.0264H63.2919ZM66.785 13.8379H65.8738V17.4374H66.8761C67.595 17.4374 68.1569 17.2855 68.5619 16.9817C68.9669 16.6679 69.1694 16.2325 69.1694 15.6756C69.1694 14.4505 68.3746 13.8379 66.785 13.8379ZM67.3621 18.2727H65.8738V22.1911H67.4684C68.2683 22.1911 68.8961 22.0088 69.3517 21.6443C69.8073 21.2798 70.0351 20.809 70.0351 20.2319C70.0351 19.5434 69.8023 19.0472 69.3365 18.7435C68.8809 18.4296 68.2228 18.2727 67.3621 18.2727ZM79.3705 23.1782C78.6111 23.1782 77.9327 23.0365 77.3353 22.753C76.7481 22.4695 76.2823 22.0341 75.9381 21.4469C75.5938 20.8495 75.4217 20.08 75.4217 19.1384V13.8531L74.2067 13.2456V13.0026H78.0036V13.2456L76.7886 13.8531V18.9106C76.7886 19.7509 76.9202 20.4192 77.1835 20.9153C77.4467 21.4114 77.8011 21.7658 78.2466 21.9784C78.7022 22.1911 79.2085 22.2974 79.7653 22.2974C80.2108 22.2974 80.6209 22.2012 80.9955 22.0088C81.3803 21.8164 81.684 21.5127 81.9068 21.0976C82.1396 20.6824 82.2561 20.1306 82.2561 19.4421V13.8227L80.7373 13.2456V13.0026H84.519V13.2456L83.3192 13.8379V19.1384C83.3192 20.08 83.1471 20.8495 82.8028 21.4469C82.4586 22.0341 81.9878 22.4695 81.3904 22.753C80.8031 23.0365 80.1298 23.1782 79.3705 23.1782ZM87.7782 23.0264V22.7834L88.9932 22.1759V13.8531L87.7782 13.2456V13.0026H91.575V13.2456L90.36 13.8531V22.1759L91.575 22.7834V23.0264H87.7782ZM94.835 23.0264V22.7834L96.05 22.1759V13.8531L94.835 13.2456V13.0026H98.7838V13.2456L97.4169 13.8531V22.1911H101.107L102.14 19.6547H102.383V23.0264H94.835ZM106.818 23.0264V22.7834L108.337 22.1759V13.8379H105.862L104.829 16.0705H104.586V13.0026H113.455V16.0705H113.212L112.18 13.8379H109.704V22.1759L111.223 22.7834V23.0264H106.818ZM124.524 23.1023L121.73 13.7924L120.591 13.2456V13.0026H124.448V13.2456L123.158 13.8076L125.056 20.3837H125.132L127.759 12.9267H128.321L131.009 20.3837H131.101L132.969 13.8227L131.678 13.2456V13.0026H135.034V13.2456L134.017 13.8076L131.192 23.1023H130.66L127.896 15.6604H127.82L125.056 23.1023H124.524ZM137.547 23.0264V22.7834L138.762 22.1759V13.8531L137.547 13.2456V13.0026H141.344V13.2456L140.129 13.8531V22.1759L141.344 22.7834V23.0264H137.547ZM146.533 23.0264V22.7834L148.051 22.1759V13.8379H145.576L144.543 16.0705H144.3V13.0026H153.169V16.0705H152.926L151.894 13.8379H149.418V22.1759L150.937 22.7834V23.0264H146.533ZM156.052 23.0264V22.7834L157.267 22.1759V13.8531L156.052 13.2456V13.0026H159.849V13.2456L158.634 13.8531V17.4374H163.798V13.8531L162.583 13.2456V13.0026H166.38V13.2456L165.165 13.8531V22.1759L166.38 22.7834V23.0264H162.583V22.7834L163.798 22.1759V18.2727H158.634V22.1759L159.849 22.7834V23.0264H156.052Z" fill="#3B1004"/>
<path d="M64.9002 48.0264V47.0376L75.437 29.3321H68.052L65.7654 33.9362H65.271V27.6327H81.0298V28.6215L70.4313 46.3269H78.4342L80.8753 41.4139H81.3697V48.0264H64.9002ZM98.6846 48.3354C97.1602 48.3354 95.7491 48.0779 94.4513 47.5629C93.1535 47.0273 92.0206 46.296 91.0524 45.369C90.1048 44.4214 89.3632 43.309 88.8276 42.0319C88.292 40.7547 88.0242 39.3539 88.0242 37.8295C88.0242 36.3051 88.292 34.9044 88.8276 33.6272C89.3632 32.35 90.1048 31.2479 91.0524 30.3209C92.0206 29.3733 93.1535 28.6421 94.4513 28.1271C95.7491 27.5915 97.1602 27.3237 98.6846 27.3237C100.23 27.3237 101.651 27.5915 102.949 28.1271C104.246 28.6421 105.369 29.3733 106.317 30.3209C107.285 31.2479 108.037 32.35 108.572 33.6272C109.108 34.9044 109.376 36.3051 109.376 37.8295C109.376 39.3539 109.108 40.7547 108.572 42.0319C108.037 43.309 107.285 44.4214 106.317 45.369C105.369 46.296 104.246 47.0273 102.949 47.5629C101.651 48.0779 100.23 48.3354 98.6846 48.3354ZM99.1789 46.7286C100.209 46.7286 101.115 46.399 101.898 45.7398C102.701 45.0806 103.319 44.1536 103.752 42.9588C104.205 41.7641 104.432 40.3633 104.432 38.7565C104.432 36.7789 104.154 35.0486 103.598 33.5654C103.062 32.0822 102.331 30.9389 101.404 30.1355C100.477 29.3115 99.4364 28.8995 98.2829 28.8995C97.2529 28.8995 96.3362 29.2291 95.5328 29.8883C94.7294 30.5269 94.0908 31.4436 93.617 32.6384C93.1638 33.8332 92.9372 35.234 92.9372 36.8407C92.9372 38.8183 93.2153 40.5487 93.7715 42.0319C94.3277 43.515 95.0796 44.6686 96.0272 45.4926C96.9748 46.3166 98.0254 46.7286 99.1789 46.7286ZM115.032 48.0264V47.532L117.659 46.2651V29.3939L115.032 28.1271V27.6327H125.569C128.02 27.6327 130.101 28.0344 131.811 28.8377C133.521 29.6411 134.818 30.7432 135.704 32.144C136.611 33.5448 137.064 35.131 137.064 36.9025C137.064 38.5093 136.765 39.9925 136.168 41.3521C135.591 42.7116 134.777 43.8858 133.727 44.8746C132.676 45.8634 131.44 46.6359 130.019 47.1921C128.597 47.7483 127.042 48.0264 125.353 48.0264H115.032ZM124.302 29.3321H122.325V46.3269H124.735C127.124 46.3269 128.968 45.5647 130.266 44.0403C131.564 42.4953 132.212 40.4354 132.212 37.8604C132.212 35.2649 131.543 33.1946 130.204 31.6496C128.886 30.1046 126.918 29.3321 124.302 29.3321ZM142.649 48.0264V47.532L145.276 46.2651V29.3939L142.649 28.1271V27.6327H152.568V28.1271L149.941 29.3939V46.2651L152.568 47.532V48.0264H142.649ZM157.36 48.0264V47.532L159.245 46.4814L167.31 27.4782H170.029L178.001 46.4196L180.102 47.532V48.0264H170.338V47.532L173.026 46.4196L170.925 41.2903H163.602L161.5 46.4196L164.065 47.532V48.0264H157.36ZM164.312 39.5908H170.214L167.279 32.3912L164.312 39.5908ZM195.057 48.3354C192.894 48.3354 190.999 47.8925 189.372 47.0067C187.744 46.1209 186.478 44.9261 185.571 43.4223C184.685 41.898 184.242 40.1779 184.242 38.2621C184.242 36.7171 184.551 35.2855 185.169 33.9671C185.787 32.6487 186.622 31.4951 187.672 30.5063C188.744 29.4969 189.949 28.7142 191.288 28.158C192.647 27.6018 194.069 27.3237 195.552 27.3237C196.644 27.3237 197.55 27.3855 198.271 27.5091C198.992 27.6327 199.641 27.8078 200.218 28.0344C200.794 28.261 201.371 28.5185 201.948 28.8068L202.288 34.5851H201.732L198.796 29.7956C198.281 29.466 197.797 29.2291 197.344 29.0849C196.891 28.9407 196.345 28.8686 195.706 28.8686C194.45 28.8686 193.317 29.2497 192.307 30.0119C191.318 30.7535 190.536 31.8144 189.959 33.1946C189.382 34.5542 189.094 36.1403 189.094 37.9531C189.094 39.7453 189.372 41.3006 189.928 42.6189C190.484 43.9167 191.236 44.9261 192.184 45.6471C193.152 46.3475 194.233 46.6977 195.428 46.6977C196.19 46.6977 196.87 46.605 197.467 46.4196C198.085 46.2136 198.673 45.9561 199.229 45.6471L202.01 41.5066H202.535L202.102 46.7286C201.258 47.223 200.238 47.6144 199.043 47.9028C197.869 48.1912 196.541 48.3354 195.057 48.3354Z" fill="#3B1004"/>
<defs>
<linearGradient id="paint0_linear_1140_1570" x1="10.431" y1="6.45442" x2="114.451" y2="137.17" gradientUnits="userSpaceOnUse">
<stop stop-color="#445993"/>
<stop offset="0.518694" stop-color="#7A7D32"/>
<stop offset="1" stop-color="#BB2810"/>
</linearGradient>
</defs>
</svg>
