<svg width="223" height="62" viewBox="0 0 223 62" fill="none" xmlns="http://www.w3.org/2000/svg">
<rect width="221.458" height="60.1875" transform="translate(0.722656 0.870117)" fill="white"/>
<rect x="5.50391" y="5.65137" width="211.438" height="50.4375" stroke="#0D1013" stroke-width="0.5625"/>
<path d="M8.40332 58.3389H214.132" stroke="#0D1013" stroke-width="0.5625"/>
<path d="M8.96016 3.40137H7.74442V7.89188L3.25391 7.90837V9.11586" stroke="#0D1013" stroke-width="0.5625"/>
<circle cx="218.348" cy="4.24512" r="1.125" fill="#0D1013"/>
<circle cx="218.348" cy="57.4951" r="1.125" fill="#0D1013"/>
<circle cx="4.09766" cy="4.24512" r="1.125" fill="#0D1013"/>
<circle cx="4.09766" cy="57.4951" r="1.125" fill="#0D1013"/>
<path d="M214.067 3.40137H214.719V7.89725H219.19V8.53945" stroke="#0D1013" stroke-width="0.5625"/>
<path d="M219.191 53.2822V53.8297H214.705V58.3368H213.999" stroke="#0D1013" stroke-width="0.5625"/>
<path d="M3.25391 52.9844V53.835H7.78556V58.3422H8.55879" stroke="#0D1013" stroke-width="0.5625"/>
<path d="M3.25391 8.65332V53.0867" stroke="#0D1013" stroke-width="0.5625"/>
<path d="M8.86816 3.40137H214.146" stroke="#0D1013" stroke-width="0.5625"/>
<path d="M219.191 8.29883V53.4421" stroke="#0D1013" stroke-width="0.5625"/>
<ellipse cx="35.7327" cy="30.9635" rx="19.26" ry="19.2604" fill="white" stroke="#0D1013" stroke-width="0.84375"/>
<ellipse cx="35.7327" cy="30.9625" rx="17.7884" ry="17.7887" fill="white" stroke="#0D1013" stroke-width="0.84375"/>
<path d="M35.7334 11.8379V50.0879" stroke="#0D1013" stroke-width="0.804375"/>
<path d="M26.1709 14.4004L45.2959 47.5259" stroke="#0D1013" stroke-width="0.804375"/>
<path d="M19.1699 21.4004L52.2954 40.5254" stroke="#0D1013" stroke-width="0.804375"/>
<path d="M16.6084 30.9629L54.8584 30.9629" stroke="#0D1013" stroke-width="0.804375"/>
<path d="M19.1699 40.5254L52.2954 21.4004" stroke="#0D1013" stroke-width="0.804375"/>
<path d="M26.1709 47.5264L45.2959 14.4009" stroke="#0D1013" stroke-width="0.804375"/>
<path d="M40.3024 13.9085C38.3674 13.39 36.3785 14.5383 35.8601 16.4733L42.8671 18.3508C43.3856 16.4159 42.2373 14.427 40.3024 13.9085Z" fill="white"/>
<path d="M42.8671 18.3508C43.3856 16.4159 42.2373 14.427 40.3024 13.9085C38.3674 13.39 36.3785 14.5383 35.8601 16.4733" stroke="#0D1013" stroke-width="0.5625"/>
<path d="M31.1625 48.0192C33.0974 48.5377 35.0863 47.3894 35.6048 45.4545L28.5977 43.5769C28.0792 45.5119 29.2275 47.5008 31.1625 48.0192Z" fill="white"/>
<path d="M28.5977 43.5769C28.0792 45.5119 29.2275 47.5008 31.1625 48.0192C33.0974 48.5377 35.0863 47.3894 35.6048 45.4545" stroke="#0D1013" stroke-width="0.5625"/>
<path d="M31.1627 13.9089C29.2278 14.4274 28.0795 16.4162 28.598 18.3512L35.605 16.4737C35.0866 14.5387 33.0977 13.3904 31.1627 13.9089Z" fill="white"/>
<path d="M35.605 16.4737C35.0866 14.5387 33.0977 13.3904 31.1627 13.9089C29.2278 14.4274 28.0795 16.4162 28.598 18.3512" stroke="#0D1013" stroke-width="0.5625"/>
<path d="M40.3031 48.0198C42.2381 47.5014 43.3863 45.5125 42.8679 43.5775L35.8608 45.4551C36.3792 47.39 38.3681 48.5383 40.3031 48.0198Z" fill="white"/>
<path d="M35.8608 45.4541C36.3792 47.389 38.3681 48.5373 40.3031 48.0189C42.2381 47.5004 43.3863 45.5115 42.8679 43.5765" stroke="#0D1013" stroke-width="0.5625"/>
<path d="M23.2484 18.4782C21.8319 19.8947 21.8319 22.1913 23.2484 23.6077L28.3779 18.4782C26.9614 17.0617 24.6649 17.0617 23.2484 18.4782Z" fill="white"/>
<path d="M28.3779 18.4782C26.9614 17.0617 24.6649 17.0617 23.2484 18.4782C21.8319 19.8947 21.8319 22.1913 23.2484 23.6077" stroke="#0D1013" stroke-width="0.5625"/>
<path d="M48.2194 43.4486C49.6359 42.0321 49.6359 39.7355 48.2194 38.319L43.0899 43.4486C44.5063 44.865 46.8029 44.865 48.2194 43.4486Z" fill="white"/>
<path d="M43.0889 43.4486C44.5054 44.865 46.8019 44.865 48.2184 43.4486C49.6349 42.0321 49.6349 39.7355 48.2184 38.319" stroke="#0D1013" stroke-width="0.5625"/>
<path d="M18.678 26.3929C18.1596 28.3279 19.3078 30.3168 21.2428 30.8353L23.1203 23.8282C21.1854 23.3097 19.1965 24.458 18.678 26.3929Z" fill="white"/>
<path d="M23.1203 23.8282C21.1854 23.3097 19.1965 24.458 18.678 26.3929C18.1596 28.3279 19.3078 30.3168 21.2428 30.8353" stroke="#0D1013" stroke-width="0.5625"/>
<path d="M52.7897 35.5328C53.3082 33.5979 52.1599 31.609 50.225 31.0905L48.3474 38.0976C50.2824 38.6161 52.2713 37.4678 52.7897 35.5328Z" fill="white"/>
<path d="M48.3465 38.0976C50.2814 38.6161 52.2703 37.4678 52.7888 35.5328C53.3072 33.5979 52.1589 31.609 50.224 31.0905" stroke="#0D1013" stroke-width="0.5625"/>
<path d="M18.6784 35.5326C19.1969 37.4675 21.1858 38.6158 23.1207 38.0974L21.2432 31.0903C19.3082 31.6087 18.1599 33.5976 18.6784 35.5326Z" fill="white"/>
<path d="M21.2432 31.0903C19.3082 31.6087 18.1599 33.5976 18.6784 35.5326C19.1969 37.4675 21.1858 38.6158 23.1207 38.0974" stroke="#0D1013" stroke-width="0.5625"/>
<path d="M52.7894 26.3922C52.2709 24.4573 50.282 23.309 48.347 23.8274L50.2246 30.8345C52.1595 30.3161 53.3078 28.3272 52.7894 26.3922Z" fill="white"/>
<path d="M50.2236 30.8345C52.1586 30.3161 53.3068 28.3272 52.7884 26.3922C52.2699 24.4573 50.281 23.309 48.3461 23.8274" stroke="#0D1013" stroke-width="0.5625"/>
<path d="M23.2477 43.4469C24.6642 44.8634 26.9608 44.8634 28.3773 43.4469L23.2477 38.3174C21.8312 39.7339 21.8312 42.0305 23.2477 43.4469Z" fill="white"/>
<path d="M23.2477 38.3174C21.8312 39.7339 21.8312 42.0305 23.2477 43.4469C24.6642 44.8634 26.9608 44.8634 28.3773 43.4469" stroke="#0D1013" stroke-width="0.5625"/>
<path d="M48.2181 18.4759C46.8016 17.0594 44.505 17.0594 43.0885 18.4759L48.2181 23.6055C49.6346 22.189 49.6346 19.8924 48.2181 18.4759Z" fill="white"/>
<path d="M48.2181 23.6064C49.6346 22.1899 49.6346 19.8934 48.2181 18.4769C46.8016 17.0604 44.505 17.0604 43.0885 18.4769" stroke="#0D1013" stroke-width="0.5625"/>
<path d="M46.7172 30.9629C46.7172 37.0293 41.7994 41.9471 35.7331 41.9471C29.6668 41.9471 24.7491 37.0293 24.7491 30.9629C24.7491 24.8964 29.6668 19.9786 35.7331 19.9786C41.7994 19.9786 46.7172 24.8964 46.7172 30.9629Z" fill="#0D1013" stroke="#0D1013" stroke-width="0.683804"/>
<path d="M35.7338 26.2574L36.0866 21.8666L36.098 26.2715L36.7901 21.9223L36.4608 26.3151L37.4874 22.0345L36.8186 26.3876L38.1744 22.2012L37.1701 26.4876L38.8457 22.4225L37.512 26.6158L39.498 22.6956L37.8432 26.7703L40.1268 23.02L38.1618 26.9505L40.7291 23.3938L38.4651 27.1563L41.3003 23.8138L38.752 27.3846L41.8367 24.2781L39.0199 27.6359L42.3363 24.7833L39.2675 27.9072L42.7948 25.327L39.4936 28.197L43.2096 25.9054L39.6962 28.5041L43.5781 26.5152L39.8748 28.8266L43.8986 27.1519L40.0274 29.1626L44.169 27.8123L40.154 29.5088L44.3875 28.4919L40.2528 29.8647L44.5521 29.187L40.3238 30.227L44.6623 29.8929L40.3668 30.5938L44.718 30.6059L40.3814 30.9631L44.718 31.3209L40.3668 31.3324L44.6623 32.0332L40.3238 31.6992L44.5521 32.7391L40.2528 32.0614L44.3875 33.4342L40.154 32.4173L44.169 34.1139L40.0274 32.7642L43.8986 34.7743L39.8748 33.0995L43.5781 35.4116L39.6962 33.422L43.2096 36.0207L39.4936 33.7291L42.7948 36.5991L39.2675 34.0196L42.3363 37.1428L39.0199 34.2908L41.8367 37.6481L38.752 34.5415L41.3003 38.1123L38.4651 34.7704L40.7291 38.5323L38.1618 34.9756L40.1268 38.9061L37.8432 35.1558L39.498 39.2305L37.512 35.311L38.8457 39.5043L37.1701 35.4386L38.1744 39.7249L36.8186 35.5392L37.4874 39.8916L36.4608 35.611L36.7901 40.0038L36.098 35.6546L36.0866 40.0596L35.7338 35.6687L35.3805 40.0596L35.3691 35.6546L34.6769 40.0038L35.0062 35.611L33.9797 39.8916L34.6484 35.5392L33.2932 39.7249L34.2976 35.4386L32.6213 39.5043L33.955 35.311L31.9691 39.2305L33.6238 35.1558L31.3402 38.9061L33.3053 34.9756L30.7386 38.5323L33.0019 34.7704L30.1668 38.1123L32.7151 34.5415L29.6304 37.6481L32.4472 34.2908L29.1314 37.1428L32.1996 34.0196L28.6729 36.5991L31.9735 33.7291L28.2575 36.0207L31.7708 33.422L27.8889 35.4116L31.5923 33.0995L27.5685 34.7743L31.4396 32.7642L27.2981 34.1139L31.313 32.4173L27.0796 33.4342L31.2142 32.0614L26.9149 32.7391L31.1433 31.6992L26.8047 32.0332L31.1002 31.3324L26.749 31.3209L31.0856 30.9631L26.749 30.6059L31.1002 30.5938L26.8047 29.8929L31.1433 30.227L26.9149 29.187L31.2142 29.8647L27.0796 28.4919L31.313 29.5088L27.2981 27.8123L31.4396 29.1626L27.5685 27.1519L31.5923 28.8266L27.8889 26.5152L31.7708 28.5041L28.2575 25.9054L31.9735 28.197L28.6729 25.327L32.1996 27.9072L29.1314 24.7833L32.4472 27.6359L29.6304 24.2781L32.7151 27.3846L30.1668 23.8138L33.0019 27.1563L30.7386 23.3938L33.3053 26.9505L31.3402 23.02L33.6238 26.7703L31.9691 22.6956L33.955 26.6158L32.6213 22.4225L34.2976 26.4876L33.2932 22.2012L34.6484 26.3876L33.9797 22.0345L35.0062 26.3151L34.6769 21.9223L35.3691 26.2715L35.3805 21.8666L35.7338 26.2574Z" fill="#0D1013"/>
<path d="M35.7338 26.2574L36.0866 21.8666L36.098 26.2715L36.7901 21.9223L36.4608 26.3151L37.4874 22.0345L36.8186 26.3876L38.1744 22.2012L37.1701 26.4876L38.8457 22.4225L37.512 26.6158L39.498 22.6956L37.8432 26.7703L40.1268 23.02L38.1618 26.9505L40.7291 23.3938L38.4651 27.1563L41.3003 23.8138L38.752 27.3846L41.8367 24.2781L39.0199 27.6359L42.3363 24.7833L39.2675 27.9072L42.7948 25.327L39.4936 28.197L43.2096 25.9054L39.6962 28.5041L43.5781 26.5152L39.8748 28.8266L43.8986 27.1519L40.0274 29.1626L44.169 27.8123L40.154 29.5088L44.3875 28.4919L40.2528 29.8647L44.5521 29.187L40.3238 30.227L44.6623 29.8929L40.3668 30.5938L44.718 30.6059L40.3814 30.9631L44.718 31.3209L40.3668 31.3324L44.6623 32.0332L40.3238 31.6992L44.5521 32.7391L40.2528 32.0614L44.3875 33.4342L40.154 32.4173L44.169 34.1139L40.0274 32.7642L43.8986 34.7743L39.8748 33.0995L43.5781 35.4116L39.6962 33.422L43.2096 36.0207L39.4936 33.7291L42.7948 36.5991L39.2675 34.0196L42.3363 37.1428L39.0199 34.2908L41.8367 37.6481L38.752 34.5415L41.3003 38.1123L38.4651 34.7704L40.7291 38.5323L38.1618 34.9756L40.1268 38.9061L37.8432 35.1558L39.498 39.2305L37.512 35.311L38.8457 39.5043L37.1701 35.4386L38.1744 39.7249L36.8186 35.5392L37.4874 39.8916L36.4608 35.611L36.7901 40.0038L36.098 35.6546L36.0866 40.0596L35.7338 35.6687L35.3805 40.0596L35.3691 35.6546L34.6769 40.0038L35.0062 35.611L33.9797 39.8916L34.6484 35.5392L33.2932 39.7249L34.2976 35.4386L32.6213 39.5043L33.955 35.311L31.9691 39.2305L33.6238 35.1558L31.3402 38.9061L33.3053 34.9756L30.7386 38.5323L33.0019 34.7704L30.1668 38.1123L32.7151 34.5415L29.6304 37.6481L32.4472 34.2908L29.1314 37.1428L32.1996 34.0196L28.6729 36.5991L31.9735 33.7291L28.2575 36.0207L31.7708 33.422L27.8889 35.4116L31.5923 33.0995L27.5685 34.7743L31.4396 32.7642L27.2981 34.1139L31.313 32.4173L27.0796 33.4342L31.2142 32.0614L26.9149 32.7391L31.1433 31.6992L26.8047 32.0332L31.1002 31.3324L26.749 31.3209L31.0856 30.9631L26.749 30.6059L31.1002 30.5938L26.8047 29.8929L31.1433 30.227L26.9149 29.187L31.2142 29.8647L27.0796 28.4919L31.313 29.5088L27.2981 27.8123L31.4396 29.1626L27.5685 27.1519L31.5923 28.8266L27.8889 26.5152L31.7708 28.5041L28.2575 25.9054L31.9735 28.197L28.6729 25.327L32.1996 27.9072L29.1314 24.7833L32.4472 27.6359L29.6304 24.2781L32.7151 27.3846L30.1668 23.8138L33.0019 27.1563L30.7386 23.3938L33.3053 26.9505L31.3402 23.02L33.6238 26.7703L31.9691 22.6956L33.955 26.6158L32.6213 22.4225L34.2976 26.4876L33.2932 22.2012L34.6484 26.3876L33.9797 22.0345L35.0062 26.3151L34.6769 21.9223L35.3691 26.2715L35.3805 21.8666L35.7338 26.2574Z" stroke="white" stroke-width="0.117353"/>
<path d="M20.8284 22.5918C20.8284 22.5918 23.1233 18.2593 18.3242 13.2881C23.1196 18.2629 27.3824 15.9749 27.3824 15.9749C24.348 18.9635 31.5938 27.0123 33.5117 29.0381C31.557 27.0494 23.7877 19.5255 20.8284 22.5918Z" fill="white" stroke="#0D1013" stroke-width="0.564183"/>
<path d="M44.2278 15.885C44.2278 15.885 48.4056 18.2649 53.1992 13.2881C48.402 18.2611 50.6083 22.6817 50.6083 22.6817C47.7265 19.535 39.9652 27.0491 38.0117 29.0381C39.9294 27.011 47.1846 18.9539 44.2278 15.885Z" fill="white" stroke="#0D1013" stroke-width="0.564183"/>
<path d="M27.2957 46.1287C27.2957 46.1287 23.1179 43.7488 18.3242 48.7256C23.1214 43.7526 20.9151 39.332 20.9151 39.332C23.7969 42.4787 31.5582 34.9646 33.5117 32.9756C31.594 35.0027 24.3388 43.0597 27.2957 46.1287Z" fill="white" stroke="#0D1013" stroke-width="0.564183"/>
<path d="M50.695 39.4219C50.695 39.4219 48.4002 43.7544 53.1992 48.7256C48.4038 43.7507 44.1411 46.0388 44.1411 46.0388C47.1754 43.0502 39.9297 35.0014 38.0117 32.9756C39.9664 34.9643 47.7357 42.4882 50.695 39.4219Z" fill="white" stroke="#0D1013" stroke-width="0.564183"/>
<path fill-rule="evenodd" clip-rule="evenodd" d="M35.733 46.5349C44.3336 46.5349 51.3058 39.5628 51.3058 30.9623C51.3058 22.3618 44.3336 15.3896 35.733 15.3896C27.1323 15.3896 20.1602 22.3618 20.1602 30.9623C20.1602 39.5628 27.1323 46.5349 35.733 46.5349ZM35.7329 45.0341C43.6082 45.0341 49.9923 38.7341 49.9923 30.9625C49.9923 23.191 43.6082 16.8909 35.7329 16.8909C27.8577 16.8909 21.4736 23.191 21.4736 30.9625C21.4736 38.7341 27.8577 45.0341 35.7329 45.0341Z" fill="white"/>
<path d="M50.9045 30.9623C50.9045 39.3412 44.112 46.1337 35.733 46.1337V46.9362C44.5552 46.9362 51.707 39.7844 51.707 30.9623H50.9045ZM35.733 15.7909C44.112 15.7909 50.9045 22.5834 50.9045 30.9623H51.707C51.707 22.1402 44.5552 14.9884 35.733 14.9884V15.7909ZM20.5614 30.9623C20.5614 22.5834 27.3539 15.7909 35.733 15.7909V14.9884C26.9107 14.9884 19.7589 22.1402 19.7589 30.9623H20.5614ZM35.733 46.1337C27.3539 46.1337 20.5614 39.3412 20.5614 30.9623H19.7589C19.7589 39.7844 26.9107 46.9362 35.733 46.9362V46.1337ZM49.5911 30.9625C49.5911 38.5075 43.3916 44.6329 35.7329 44.6329V45.4354C43.8248 45.4354 50.3936 38.9607 50.3936 30.9625H49.5911ZM35.7329 17.2922C43.3916 17.2922 49.5911 23.4176 49.5911 30.9625H50.3936C50.3936 22.9644 43.8248 16.4897 35.7329 16.4897V17.2922ZM21.8748 30.9625C21.8748 23.4176 28.0743 17.2922 35.7329 17.2922V16.4897C27.6411 16.4897 21.0723 22.9644 21.0723 30.9625H21.8748ZM35.7329 44.6329C28.0743 44.6329 21.8748 38.5075 21.8748 30.9625H21.0723C21.0723 38.9607 27.6411 45.4354 35.7329 45.4354V44.6329Z" fill="#0D1013"/>
<path d="M26.5435 27.0968C26.5435 27.0968 28.4323 23.6583 24.4824 19.7129C28.4293 23.6612 31.9377 21.8453 31.9377 21.8453C29.4403 24.2172 35.4039 30.6051 36.9824 32.2129C35.3736 30.6345 28.9791 24.6632 26.5435 27.0968Z" fill="white" stroke="#0D1013" stroke-width="0.564183"/>
<path d="M39.5995 21.7739C39.5995 21.7739 43.038 23.6627 46.9834 19.7129C43.0351 23.6597 44.851 27.1682 44.851 27.1682C42.4791 24.6707 36.0912 30.6343 34.4834 32.2129C36.0618 30.6041 42.0331 24.2096 39.5995 21.7739Z" fill="white" stroke="#0D1013" stroke-width="0.564183"/>
<path d="M31.8663 40.1518C31.8663 40.1518 28.4278 38.2631 24.4824 42.2129C28.4307 38.266 26.6148 34.7576 26.6148 34.7576C28.9867 37.255 35.3746 31.2915 36.9824 29.7129C35.4041 31.3217 29.4327 37.7162 31.8663 40.1518Z" fill="white" stroke="#0D1013" stroke-width="0.564183"/>
<path d="M44.9204 34.829C44.9204 34.829 43.0316 38.2675 46.9814 42.2129C43.0346 38.2646 39.5262 40.0805 39.5262 40.0805C42.0236 37.7086 36.06 31.3207 34.4814 29.7129C36.0902 31.2912 42.4847 37.2626 44.9204 34.829Z" fill="white" stroke="#0D1013" stroke-width="0.564183"/>
<path d="M55.0412 30.964C55.0412 32.5152 53.7837 33.7728 52.2325 33.7728C50.6812 33.7728 49.4237 32.5152 49.4237 30.964C49.4237 29.4127 50.6812 28.1552 52.2325 28.1552C53.7837 28.1552 55.0412 29.4127 55.0412 30.964Z" fill="white" stroke="#0D1013" stroke-width="0.802508"/>
<ellipse cx="52.2302" cy="30.9636" rx="0.802501" ry="0.802516" fill="#0D1013"/>
<path d="M22.0412 30.964C22.0412 32.5152 20.7837 33.7728 19.2325 33.7728C17.6812 33.7728 16.4237 32.5152 16.4237 30.964C16.4237 29.4127 17.6812 28.1552 19.2325 28.1552C20.7837 28.1552 22.0412 29.4127 22.0412 30.964Z" fill="white" stroke="#0D1013" stroke-width="0.802508"/>
<ellipse cx="19.2322" cy="30.9636" rx="0.802501" ry="0.802516" fill="#0D1013"/>
<path d="M41.258 45.5919C41.5797 45.4378 41.9381 45.255 42.3074 45.0466C41.7492 45.2154 40.9656 45.4684 39.8942 45.8444L39.8877 45.8471C39.8767 45.8516 39.8619 45.8575 39.8434 45.8642C39.8064 45.8778 39.7545 45.895 39.6899 45.9121C39.561 45.9462 39.3792 45.9806 39.1617 45.9836C38.7219 45.9898 38.1444 45.8672 37.5775 45.3772C36.8196 44.722 36.1099 43.437 35.7324 41.0019C35.3557 43.4372 34.6464 44.722 33.8886 45.3767C33.3218 45.8664 32.7443 45.9884 32.3046 45.9819C32.0871 45.9787 31.9053 45.9442 31.7764 45.9099C31.7118 45.8928 31.66 45.8755 31.623 45.862C31.6045 45.8552 31.5896 45.8493 31.5787 45.8448L31.5722 45.8421C30.4943 45.4633 29.7077 45.2095 29.149 45.0407C29.5212 45.2515 29.8823 45.4362 30.2063 45.5917C30.5824 45.7723 30.9062 45.9124 31.1354 46.0072C31.25 46.0545 31.3408 46.0905 31.4026 46.1146C31.4336 46.1266 31.4572 46.1356 31.473 46.1415L31.4906 46.1481L31.4943 46.1495C33.7 46.9269 34.8361 48.2788 35.4156 49.4472C35.5477 49.7135 35.6505 49.9696 35.7306 50.2063C35.8106 49.9696 35.9134 49.7136 36.0454 49.4472C36.6245 48.2788 37.7607 46.9269 39.9679 46.1495L39.9717 46.1481L39.9893 46.1415C40.0051 46.1355 40.0288 46.1265 40.0598 46.1145C40.1217 46.0905 40.2127 46.0545 40.3275 46.0071C40.5571 45.9124 40.8813 45.7724 41.258 45.5919Z" fill="white" stroke="#0D1013" stroke-width="0.564183"/>
<path d="M30.2088 16.3349C29.8871 16.489 29.5287 16.6718 29.1594 16.8802C29.7176 16.7114 30.5012 16.4584 31.5726 16.0824L31.5791 16.0796C31.5901 16.0751 31.6049 16.0693 31.6234 16.0625C31.6604 16.049 31.7122 16.0318 31.7769 16.0147C31.9057 15.9805 32.0876 15.9462 32.3051 15.9432C32.7449 15.937 33.3224 16.0595 33.8893 16.5496C34.6472 17.2047 35.3569 18.4898 35.7344 20.9249C36.1111 18.4896 36.8204 17.2048 37.5782 16.5501C38.145 16.0604 38.7225 15.9383 39.1622 15.9448C39.3797 15.9481 39.5615 15.9826 39.6904 16.0168C39.755 16.034 39.8068 16.0513 39.8438 16.0648C39.8623 16.0716 39.8772 16.0775 39.8881 16.082L39.8946 16.0847C40.9725 16.4634 41.7591 16.7173 42.3178 16.8861C41.9456 16.6753 41.5845 16.4905 41.2605 16.335C40.8844 16.1544 40.5606 16.0143 40.3314 15.9196C40.2168 15.8722 40.126 15.8362 40.0642 15.8122C40.0332 15.8002 40.0096 15.7912 39.9938 15.7852L39.9762 15.7786L39.9725 15.7772C37.7668 14.9999 36.6307 13.6479 36.0512 12.4796C35.9191 12.2132 35.8163 11.9571 35.7361 11.7204C35.6562 11.9571 35.5534 12.2132 35.4214 12.4795C34.8423 13.6479 33.7061 14.9999 31.4989 15.7773L31.4951 15.7787L31.4775 15.7853C31.4617 15.7912 31.438 15.8002 31.407 15.8122C31.3451 15.8363 31.2541 15.8723 31.1393 15.9196C30.9097 16.0144 30.5855 16.1544 30.2088 16.3349Z" fill="white" stroke="#0D1013" stroke-width="0.564183"/>
<path d="M63.2919 23.6514V23.4084L64.5069 22.8009V14.4781L63.2919 13.8706V13.6276H67.1343C67.8026 13.6276 68.3999 13.7137 68.9264 13.8858C69.4631 14.0478 69.8833 14.2959 70.187 14.63C70.4908 14.954 70.6426 15.3691 70.6426 15.8754C70.6426 16.3917 70.4705 16.8676 70.1263 17.303C69.782 17.7282 69.2859 18.032 68.6379 18.2142C69.539 18.3357 70.2427 18.6192 70.7489 19.0647C71.2552 19.5001 71.5083 20.057 71.5083 20.7354C71.5083 21.2922 71.3311 21.7934 70.9768 22.2389C70.6325 22.6743 70.1566 23.0186 69.5491 23.2717C68.9416 23.5248 68.2531 23.6514 67.4836 23.6514H63.2919ZM66.785 14.4629H65.8738V18.0624H66.8761C67.595 18.0624 68.1569 17.9105 68.5619 17.6067C68.9669 17.2929 69.1694 16.8575 69.1694 16.3006C69.1694 15.0755 68.3746 14.4629 66.785 14.4629ZM67.3621 18.8977H65.8738V22.8161H67.4684C68.2683 22.8161 68.8961 22.6338 69.3517 22.2693C69.8073 21.9048 70.0351 21.434 70.0351 20.8569C70.0351 20.1684 69.8023 19.6722 69.3365 19.3685C68.8809 19.0546 68.2228 18.8977 67.3621 18.8977ZM79.3705 23.8032C78.6111 23.8032 77.9327 23.6615 77.3353 23.378C76.7481 23.0945 76.2823 22.6591 75.9381 22.0719C75.5938 21.4745 75.4217 20.705 75.4217 19.7634V14.4781L74.2067 13.8706V13.6276H78.0036V13.8706L76.7886 14.4781V19.5356C76.7886 20.3759 76.9202 21.0442 77.1835 21.5403C77.4467 22.0364 77.8011 22.3908 78.2466 22.6034C78.7022 22.8161 79.2085 22.9224 79.7653 22.9224C80.2108 22.9224 80.6209 22.8262 80.9955 22.6338C81.3803 22.4414 81.684 22.1377 81.9068 21.7226C82.1396 21.3074 82.2561 20.7556 82.2561 20.0671V14.4477L80.7373 13.8706V13.6276H84.519V13.8706L83.3192 14.4629V19.7634C83.3192 20.705 83.1471 21.4745 82.8028 22.0719C82.4586 22.6591 81.9878 23.0945 81.3904 23.378C80.8031 23.6615 80.1298 23.8032 79.3705 23.8032ZM87.7782 23.6514V23.4084L88.9932 22.8009V14.4781L87.7782 13.8706V13.6276H91.575V13.8706L90.36 14.4781V22.8009L91.575 23.4084V23.6514H87.7782ZM94.835 23.6514V23.4084L96.05 22.8009V14.4781L94.835 13.8706V13.6276H98.7838V13.8706L97.4169 14.4781V22.8161H101.107L102.14 20.2797H102.383V23.6514H94.835ZM106.818 23.6514V23.4084L108.337 22.8009V14.4629H105.862L104.829 16.6955H104.586V13.6276H113.455V16.6955H113.212L112.18 14.4629H109.704V22.8009L111.223 23.4084V23.6514H106.818ZM124.524 23.7273L121.73 14.4174L120.591 13.8706V13.6276H124.448V13.8706L123.158 14.4326L125.056 21.0087H125.132L127.759 13.5517H128.321L131.009 21.0087H131.101L132.969 14.4477L131.678 13.8706V13.6276H135.034V13.8706L134.017 14.4326L131.192 23.7273H130.66L127.896 16.2854H127.82L125.056 23.7273H124.524ZM137.547 23.6514V23.4084L138.762 22.8009V14.4781L137.547 13.8706V13.6276H141.344V13.8706L140.129 14.4781V22.8009L141.344 23.4084V23.6514H137.547ZM146.533 23.6514V23.4084L148.051 22.8009V14.4629H145.576L144.543 16.6955H144.3V13.6276H153.169V16.6955H152.926L151.894 14.4629H149.418V22.8009L150.937 23.4084V23.6514H146.533ZM156.052 23.6514V23.4084L157.267 22.8009V14.4781L156.052 13.8706V13.6276H159.849V13.8706L158.634 14.4781V18.0624H163.798V14.4781L162.583 13.8706V13.6276H166.38V13.8706L165.165 14.4781V22.8009L166.38 23.4084V23.6514H162.583V23.4084L163.798 22.8009V18.8977H158.634V22.8009L159.849 23.4084V23.6514H156.052Z" fill="#0D1013"/>
<path d="M64.9002 48.6514V47.6626L75.437 29.9571H68.052L65.7654 34.5612H65.271V28.2577H81.0298V29.2465L70.4313 46.9519H78.4342L80.8753 42.0389H81.3697V48.6514H64.9002ZM98.6846 48.9604C97.1602 48.9604 95.7491 48.7029 94.4513 48.1879C93.1535 47.6523 92.0206 46.921 91.0524 45.994C90.1048 45.0464 89.3632 43.934 88.8276 42.6569C88.292 41.3797 88.0242 39.9789 88.0242 38.4545C88.0242 36.9301 88.292 35.5294 88.8276 34.2522C89.3632 32.975 90.1048 31.8729 91.0524 30.9459C92.0206 29.9983 93.1535 29.2671 94.4513 28.7521C95.7491 28.2165 97.1602 27.9487 98.6846 27.9487C100.23 27.9487 101.651 28.2165 102.949 28.7521C104.246 29.2671 105.369 29.9983 106.317 30.9459C107.285 31.8729 108.037 32.975 108.572 34.2522C109.108 35.5294 109.376 36.9301 109.376 38.4545C109.376 39.9789 109.108 41.3797 108.572 42.6569C108.037 43.934 107.285 45.0464 106.317 45.994C105.369 46.921 104.246 47.6523 102.949 48.1879C101.651 48.7029 100.23 48.9604 98.6846 48.9604ZM99.1789 47.3536C100.209 47.3536 101.115 47.024 101.898 46.3648C102.701 45.7056 103.319 44.7786 103.752 43.5838C104.205 42.3891 104.432 40.9883 104.432 39.3815C104.432 37.4039 104.154 35.6736 103.598 34.1904C103.062 32.7072 102.331 31.5639 101.404 30.7605C100.477 29.9365 99.4364 29.5245 98.2829 29.5245C97.2529 29.5245 96.3362 29.8541 95.5328 30.5133C94.7294 31.1519 94.0908 32.0686 93.617 33.2634C93.1638 34.4582 92.9372 35.859 92.9372 37.4657C92.9372 39.4433 93.2153 41.1737 93.7715 42.6569C94.3277 44.14 95.0796 45.2936 96.0272 46.1176C96.9748 46.9416 98.0254 47.3536 99.1789 47.3536ZM115.032 48.6514V48.157L117.659 46.8901V30.0189L115.032 28.7521V28.2577H125.569C128.02 28.2577 130.101 28.6594 131.811 29.4627C133.521 30.2661 134.818 31.3682 135.704 32.769C136.611 34.1698 137.064 35.756 137.064 37.5275C137.064 39.1343 136.765 40.6175 136.168 41.9771C135.591 43.3366 134.777 44.5108 133.727 45.4996C132.676 46.4884 131.44 47.2609 130.019 47.8171C128.597 48.3733 127.042 48.6514 125.353 48.6514H115.032ZM124.302 29.9571H122.325V46.9519H124.735C127.124 46.9519 128.968 46.1897 130.266 44.6653C131.564 43.1203 132.212 41.0604 132.212 38.4854C132.212 35.8899 131.543 33.8196 130.204 32.2746C128.886 30.7296 126.918 29.9571 124.302 29.9571ZM142.649 48.6514V48.157L145.276 46.8901V30.0189L142.649 28.7521V28.2577H152.568V28.7521L149.941 30.0189V46.8901L152.568 48.157V48.6514H142.649ZM157.36 48.6514V48.157L159.245 47.1064L167.31 28.1032H170.029L178.001 47.0446L180.102 48.157V48.6514H170.338V48.157L173.026 47.0446L170.925 41.9153H163.602L161.5 47.0446L164.065 48.157V48.6514H157.36ZM164.312 40.2158H170.214L167.279 33.0162L164.312 40.2158ZM195.057 48.9604C192.894 48.9604 190.999 48.5175 189.372 47.6317C187.744 46.7459 186.478 45.5511 185.571 44.0473C184.685 42.523 184.242 40.8029 184.242 38.8871C184.242 37.3421 184.551 35.9105 185.169 34.5921C185.787 33.2737 186.622 32.1201 187.672 31.1313C188.744 30.1219 189.949 29.3392 191.288 28.783C192.647 28.2268 194.069 27.9487 195.552 27.9487C196.644 27.9487 197.55 28.0105 198.271 28.1341C198.992 28.2577 199.641 28.4328 200.218 28.6594C200.794 28.886 201.371 29.1435 201.948 29.4318L202.288 35.2101H201.732L198.796 30.4206C198.281 30.091 197.797 29.8541 197.344 29.7099C196.891 29.5657 196.345 29.4936 195.706 29.4936C194.45 29.4936 193.317 29.8747 192.307 30.6369C191.318 31.3785 190.536 32.4394 189.959 33.8196C189.382 35.1792 189.094 36.7653 189.094 38.5781C189.094 40.3703 189.372 41.9256 189.928 43.2439C190.484 44.5417 191.236 45.5511 192.184 46.2721C193.152 46.9725 194.233 47.3227 195.428 47.3227C196.19 47.3227 196.87 47.23 197.467 47.0446C198.085 46.8386 198.673 46.5811 199.229 46.2721L202.01 42.1316H202.535L202.102 47.3536C201.258 47.848 200.238 48.2394 199.043 48.5278C197.869 48.8162 196.541 48.9604 195.057 48.9604Z" fill="#0D1013"/>
</svg>
