<svg width="223" height="61" viewBox="0 0 223 61" fill="none" xmlns="http://www.w3.org/2000/svg">
<rect width="221.458" height="60.1875" transform="translate(0.722656 0.182617)" fill="#0D1013"/>
<rect x="5.50391" y="4.96387" width="211.438" height="50.4375" stroke="white" stroke-width="0.5625"/>
<path d="M8.40332 57.6514H214.132" stroke="white" stroke-width="0.5625"/>
<path d="M8.96016 2.71387H7.74442V7.20438L3.25391 7.22087V8.42836" stroke="white" stroke-width="0.5625"/>
<circle cx="218.348" cy="3.55762" r="1.125" fill="white"/>
<circle cx="218.348" cy="56.8076" r="1.125" fill="white"/>
<circle cx="4.09766" cy="3.55762" r="1.125" fill="white"/>
<circle cx="4.09766" cy="56.8076" r="1.125" fill="white"/>
<path d="M214.067 2.71387H214.719V7.20975H219.19V7.85195" stroke="white" stroke-width="0.5625"/>
<path d="M219.191 52.5947V53.1422H214.705V57.6493H213.999" stroke="white" stroke-width="0.5625"/>
<path d="M3.25391 52.2969V53.1475H7.78556V57.6547H8.55879" stroke="white" stroke-width="0.5625"/>
<path d="M3.25391 7.96582V52.3992" stroke="white" stroke-width="0.5625"/>
<path d="M8.86816 2.71387H214.146" stroke="white" stroke-width="0.5625"/>
<path d="M219.191 7.61133V52.7546" stroke="white" stroke-width="0.5625"/>
<ellipse cx="35.7327" cy="30.276" rx="19.26" ry="19.2604" fill="white" stroke="#0D1013" stroke-width="0.84375"/>
<ellipse cx="35.7327" cy="30.275" rx="17.7884" ry="17.7887" fill="white" stroke="#0D1013" stroke-width="0.84375"/>
<path d="M35.7334 11.1504V49.4004" stroke="#0D1013" stroke-width="0.804375"/>
<path d="M26.1709 13.7129L45.2959 46.8384" stroke="#0D1013" stroke-width="0.804375"/>
<path d="M19.1699 20.7129L52.2954 39.8379" stroke="#0D1013" stroke-width="0.804375"/>
<path d="M16.6084 30.2754L54.8584 30.2754" stroke="#0D1013" stroke-width="0.804375"/>
<path d="M19.1699 39.8379L52.2954 20.7129" stroke="#0D1013" stroke-width="0.804375"/>
<path d="M26.1709 46.8389L45.2959 13.7134" stroke="#0D1013" stroke-width="0.804375"/>
<path d="M40.3024 13.221C38.3674 12.7025 36.3785 13.8508 35.8601 15.7858L42.8671 17.6633C43.3856 15.7284 42.2373 13.7395 40.3024 13.221Z" fill="white"/>
<path d="M42.8671 17.6633C43.3856 15.7284 42.2373 13.7395 40.3024 13.221C38.3674 12.7025 36.3785 13.8508 35.8601 15.7858" stroke="#0D1013" stroke-width="0.5625"/>
<path d="M31.1625 47.3317C33.0974 47.8502 35.0863 46.7019 35.6048 44.767L28.5977 42.8894C28.0792 44.8244 29.2275 46.8133 31.1625 47.3317Z" fill="white"/>
<path d="M28.5977 42.8894C28.0792 44.8244 29.2275 46.8133 31.1625 47.3317C33.0974 47.8502 35.0863 46.7019 35.6048 44.767" stroke="#0D1013" stroke-width="0.5625"/>
<path d="M31.1627 13.2214C29.2278 13.7399 28.0795 15.7287 28.598 17.6637L35.605 15.7862C35.0866 13.8512 33.0977 12.7029 31.1627 13.2214Z" fill="white"/>
<path d="M35.605 15.7862C35.0866 13.8512 33.0977 12.7029 31.1627 13.2214C29.2278 13.7399 28.0795 15.7287 28.598 17.6637" stroke="#0D1013" stroke-width="0.5625"/>
<path d="M40.3031 47.3323C42.2381 46.8139 43.3863 44.825 42.8679 42.89L35.8608 44.7676C36.3792 46.7025 38.3681 47.8508 40.3031 47.3323Z" fill="white"/>
<path d="M35.8608 44.7666C36.3792 46.7015 38.3681 47.8498 40.3031 47.3314C42.2381 46.8129 43.3863 44.824 42.8679 42.889" stroke="#0D1013" stroke-width="0.5625"/>
<path d="M23.2484 17.7907C21.8319 19.2072 21.8319 21.5038 23.2484 22.9202L28.3779 17.7907C26.9614 16.3742 24.6649 16.3742 23.2484 17.7907Z" fill="white"/>
<path d="M28.3779 17.7907C26.9614 16.3742 24.6649 16.3742 23.2484 17.7907C21.8319 19.2072 21.8319 21.5038 23.2484 22.9202" stroke="#0D1013" stroke-width="0.5625"/>
<path d="M48.2194 42.7611C49.6359 41.3446 49.6359 39.048 48.2194 37.6315L43.0899 42.7611C44.5063 44.1775 46.8029 44.1775 48.2194 42.7611Z" fill="white"/>
<path d="M43.0889 42.7611C44.5054 44.1775 46.8019 44.1775 48.2184 42.7611C49.6349 41.3446 49.6349 39.048 48.2184 37.6315" stroke="#0D1013" stroke-width="0.5625"/>
<path d="M18.678 25.7054C18.1596 27.6404 19.3078 29.6293 21.2428 30.1478L23.1203 23.1407C21.1854 22.6222 19.1965 23.7705 18.678 25.7054Z" fill="white"/>
<path d="M23.1203 23.1407C21.1854 22.6222 19.1965 23.7705 18.678 25.7054C18.1596 27.6404 19.3078 29.6293 21.2428 30.1478" stroke="#0D1013" stroke-width="0.5625"/>
<path d="M52.7897 34.8453C53.3082 32.9104 52.1599 30.9215 50.225 30.403L48.3474 37.4101C50.2824 37.9286 52.2713 36.7803 52.7897 34.8453Z" fill="white"/>
<path d="M48.3465 37.4101C50.2814 37.9286 52.2703 36.7803 52.7888 34.8453C53.3072 32.9104 52.1589 30.9215 50.224 30.403" stroke="#0D1013" stroke-width="0.5625"/>
<path d="M18.6784 34.8451C19.1969 36.78 21.1858 37.9283 23.1207 37.4099L21.2432 30.4028C19.3082 30.9212 18.1599 32.9101 18.6784 34.8451Z" fill="white"/>
<path d="M21.2432 30.4028C19.3082 30.9212 18.1599 32.9101 18.6784 34.8451C19.1969 36.78 21.1858 37.9283 23.1207 37.4099" stroke="#0D1013" stroke-width="0.5625"/>
<path d="M52.7894 25.7047C52.2709 23.7698 50.282 22.6215 48.347 23.1399L50.2246 30.147C52.1595 29.6286 53.3078 27.6397 52.7894 25.7047Z" fill="white"/>
<path d="M50.2236 30.147C52.1586 29.6286 53.3068 27.6397 52.7884 25.7047C52.2699 23.7698 50.281 22.6215 48.3461 23.1399" stroke="#0D1013" stroke-width="0.5625"/>
<path d="M23.2477 42.7594C24.6642 44.1759 26.9608 44.1759 28.3773 42.7594L23.2477 37.6299C21.8312 39.0464 21.8312 41.343 23.2477 42.7594Z" fill="white"/>
<path d="M23.2477 37.6299C21.8312 39.0464 21.8312 41.343 23.2477 42.7594C24.6642 44.1759 26.9608 44.1759 28.3773 42.7594" stroke="#0D1013" stroke-width="0.5625"/>
<path d="M48.2181 17.7884C46.8016 16.3719 44.505 16.3719 43.0885 17.7884L48.2181 22.918C49.6346 21.5015 49.6346 19.2049 48.2181 17.7884Z" fill="white"/>
<path d="M48.2181 22.9189C49.6346 21.5024 49.6346 19.2059 48.2181 17.7894C46.8016 16.3729 44.505 16.3729 43.0885 17.7894" stroke="#0D1013" stroke-width="0.5625"/>
<path d="M46.7172 30.2754C46.7172 36.3418 41.7994 41.2596 35.7331 41.2596C29.6668 41.2596 24.7491 36.3418 24.7491 30.2754C24.7491 24.2089 29.6668 19.2911 35.7331 19.2911C41.7994 19.2911 46.7172 24.2089 46.7172 30.2754Z" fill="#0D1013" stroke="#0D1013" stroke-width="0.683804"/>
<path d="M35.7338 25.5699L36.0866 21.1791L36.098 25.584L36.7901 21.2348L36.4608 25.6276L37.4874 21.347L36.8186 25.7001L38.1744 21.5137L37.1701 25.8001L38.8457 21.735L37.512 25.9283L39.498 22.0081L37.8432 26.0828L40.1268 22.3325L38.1618 26.263L40.7291 22.7063L38.4651 26.4688L41.3003 23.1263L38.752 26.6971L41.8367 23.5906L39.0199 26.9484L42.3363 24.0958L39.2675 27.2197L42.7948 24.6395L39.4936 27.5095L43.2096 25.2179L39.6962 27.8166L43.5781 25.8277L39.8748 28.1391L43.8986 26.4644L40.0274 28.4751L44.169 27.1248L40.154 28.8213L44.3875 27.8044L40.2528 29.1772L44.5521 28.4995L40.3238 29.5395L44.6623 29.2054L40.3668 29.9063L44.718 29.9184L40.3814 30.2756L44.718 30.6334L40.3668 30.6449L44.6623 31.3457L40.3238 31.0117L44.5521 32.0516L40.2528 31.3739L44.3875 32.7467L40.154 31.7298L44.169 33.4264L40.0274 32.0767L43.8986 34.0868L39.8748 32.412L43.5781 34.7241L39.6962 32.7345L43.2096 35.3332L39.4936 33.0416L42.7948 35.9116L39.2675 33.3321L42.3363 36.4553L39.0199 33.6033L41.8367 36.9606L38.752 33.854L41.3003 37.4248L38.4651 34.0829L40.7291 37.8448L38.1618 34.2881L40.1268 38.2186L37.8432 34.4683L39.498 38.543L37.512 34.6235L38.8457 38.8168L37.1701 34.7511L38.1744 39.0374L36.8186 34.8517L37.4874 39.2041L36.4608 34.9235L36.7901 39.3163L36.098 34.9671L36.0866 39.3721L35.7338 34.9812L35.3805 39.3721L35.3691 34.9671L34.6769 39.3163L35.0062 34.9235L33.9797 39.2041L34.6484 34.8517L33.2932 39.0374L34.2976 34.7511L32.6213 38.8168L33.955 34.6235L31.9691 38.543L33.6238 34.4683L31.3402 38.2186L33.3053 34.2881L30.7386 37.8448L33.0019 34.0829L30.1668 37.4248L32.7151 33.854L29.6304 36.9606L32.4472 33.6033L29.1314 36.4553L32.1996 33.3321L28.6729 35.9116L31.9735 33.0416L28.2575 35.3332L31.7708 32.7345L27.8889 34.7241L31.5923 32.412L27.5685 34.0868L31.4396 32.0767L27.2981 33.4264L31.313 31.7298L27.0796 32.7467L31.2142 31.3739L26.9149 32.0516L31.1433 31.0117L26.8047 31.3457L31.1002 30.6449L26.749 30.6334L31.0856 30.2756L26.749 29.9184L31.1002 29.9063L26.8047 29.2054L31.1433 29.5395L26.9149 28.4995L31.2142 29.1772L27.0796 27.8044L31.313 28.8213L27.2981 27.1248L31.4396 28.4751L27.5685 26.4644L31.5923 28.1391L27.8889 25.8277L31.7708 27.8166L28.2575 25.2179L31.9735 27.5095L28.6729 24.6395L32.1996 27.2197L29.1314 24.0958L32.4472 26.9484L29.6304 23.5906L32.7151 26.6971L30.1668 23.1263L33.0019 26.4688L30.7386 22.7063L33.3053 26.263L31.3402 22.3325L33.6238 26.0828L31.9691 22.0081L33.955 25.9283L32.6213 21.735L34.2976 25.8001L33.2932 21.5137L34.6484 25.7001L33.9797 21.347L35.0062 25.6276L34.6769 21.2348L35.3691 25.584L35.3805 21.1791L35.7338 25.5699Z" fill="#0D1013"/>
<path d="M35.7338 25.5699L36.0866 21.1791L36.098 25.584L36.7901 21.2348L36.4608 25.6276L37.4874 21.347L36.8186 25.7001L38.1744 21.5137L37.1701 25.8001L38.8457 21.735L37.512 25.9283L39.498 22.0081L37.8432 26.0828L40.1268 22.3325L38.1618 26.263L40.7291 22.7063L38.4651 26.4688L41.3003 23.1263L38.752 26.6971L41.8367 23.5906L39.0199 26.9484L42.3363 24.0958L39.2675 27.2197L42.7948 24.6395L39.4936 27.5095L43.2096 25.2179L39.6962 27.8166L43.5781 25.8277L39.8748 28.1391L43.8986 26.4644L40.0274 28.4751L44.169 27.1248L40.154 28.8213L44.3875 27.8044L40.2528 29.1772L44.5521 28.4995L40.3238 29.5395L44.6623 29.2054L40.3668 29.9063L44.718 29.9184L40.3814 30.2756L44.718 30.6334L40.3668 30.6449L44.6623 31.3457L40.3238 31.0117L44.5521 32.0516L40.2528 31.3739L44.3875 32.7467L40.154 31.7298L44.169 33.4264L40.0274 32.0767L43.8986 34.0868L39.8748 32.412L43.5781 34.7241L39.6962 32.7345L43.2096 35.3332L39.4936 33.0416L42.7948 35.9116L39.2675 33.3321L42.3363 36.4553L39.0199 33.6033L41.8367 36.9606L38.752 33.854L41.3003 37.4248L38.4651 34.0829L40.7291 37.8448L38.1618 34.2881L40.1268 38.2186L37.8432 34.4683L39.498 38.543L37.512 34.6235L38.8457 38.8168L37.1701 34.7511L38.1744 39.0374L36.8186 34.8517L37.4874 39.2041L36.4608 34.9235L36.7901 39.3163L36.098 34.9671L36.0866 39.3721L35.7338 34.9812L35.3805 39.3721L35.3691 34.9671L34.6769 39.3163L35.0062 34.9235L33.9797 39.2041L34.6484 34.8517L33.2932 39.0374L34.2976 34.7511L32.6213 38.8168L33.955 34.6235L31.9691 38.543L33.6238 34.4683L31.3402 38.2186L33.3053 34.2881L30.7386 37.8448L33.0019 34.0829L30.1668 37.4248L32.7151 33.854L29.6304 36.9606L32.4472 33.6033L29.1314 36.4553L32.1996 33.3321L28.6729 35.9116L31.9735 33.0416L28.2575 35.3332L31.7708 32.7345L27.8889 34.7241L31.5923 32.412L27.5685 34.0868L31.4396 32.0767L27.2981 33.4264L31.313 31.7298L27.0796 32.7467L31.2142 31.3739L26.9149 32.0516L31.1433 31.0117L26.8047 31.3457L31.1002 30.6449L26.749 30.6334L31.0856 30.2756L26.749 29.9184L31.1002 29.9063L26.8047 29.2054L31.1433 29.5395L26.9149 28.4995L31.2142 29.1772L27.0796 27.8044L31.313 28.8213L27.2981 27.1248L31.4396 28.4751L27.5685 26.4644L31.5923 28.1391L27.8889 25.8277L31.7708 27.8166L28.2575 25.2179L31.9735 27.5095L28.6729 24.6395L32.1996 27.2197L29.1314 24.0958L32.4472 26.9484L29.6304 23.5906L32.7151 26.6971L30.1668 23.1263L33.0019 26.4688L30.7386 22.7063L33.3053 26.263L31.3402 22.3325L33.6238 26.0828L31.9691 22.0081L33.955 25.9283L32.6213 21.735L34.2976 25.8001L33.2932 21.5137L34.6484 25.7001L33.9797 21.347L35.0062 25.6276L34.6769 21.2348L35.3691 25.584L35.3805 21.1791L35.7338 25.5699Z" stroke="white" stroke-width="0.117353"/>
<path d="M20.8284 21.9043C20.8284 21.9043 23.1233 17.5718 18.3242 12.6006C23.1196 17.5754 27.3824 15.2874 27.3824 15.2874C24.348 18.276 31.5938 26.3248 33.5117 28.3506C31.557 26.3619 23.7877 18.838 20.8284 21.9043Z" fill="white" stroke="#0D1013" stroke-width="0.564183"/>
<path d="M44.2278 15.1975C44.2278 15.1975 48.4056 17.5774 53.1992 12.6006C48.402 17.5736 50.6083 21.9942 50.6083 21.9942C47.7265 18.8475 39.9652 26.3616 38.0117 28.3506C39.9294 26.3235 47.1846 18.2664 44.2278 15.1975Z" fill="white" stroke="#0D1013" stroke-width="0.564183"/>
<path d="M27.2957 45.4412C27.2957 45.4412 23.1179 43.0613 18.3242 48.0381C23.1214 43.0651 20.9151 38.6445 20.9151 38.6445C23.7969 41.7912 31.5582 34.2771 33.5117 32.2881C31.594 34.3152 24.3388 42.3722 27.2957 45.4412Z" fill="white" stroke="#0D1013" stroke-width="0.564183"/>
<path d="M50.695 38.7344C50.695 38.7344 48.4002 43.0669 53.1992 48.0381C48.4038 43.0632 44.1411 45.3513 44.1411 45.3513C47.1754 42.3627 39.9297 34.3139 38.0117 32.2881C39.9664 34.2768 47.7357 41.8007 50.695 38.7344Z" fill="white" stroke="#0D1013" stroke-width="0.564183"/>
<path fill-rule="evenodd" clip-rule="evenodd" d="M35.733 45.8474C44.3336 45.8474 51.3058 38.8753 51.3058 30.2748C51.3058 21.6743 44.3336 14.7021 35.733 14.7021C27.1323 14.7021 20.1602 21.6743 20.1602 30.2748C20.1602 38.8753 27.1323 45.8474 35.733 45.8474ZM35.7329 44.3466C43.6082 44.3466 49.9923 38.0466 49.9923 30.275C49.9923 22.5035 43.6082 16.2034 35.7329 16.2034C27.8577 16.2034 21.4736 22.5035 21.4736 30.275C21.4736 38.0466 27.8577 44.3466 35.7329 44.3466Z" fill="white"/>
<path d="M50.9045 30.2748C50.9045 38.6537 44.112 45.4462 35.733 45.4462V46.2487C44.5552 46.2487 51.707 39.0969 51.707 30.2748H50.9045ZM35.733 15.1034C44.112 15.1034 50.9045 21.8959 50.9045 30.2748H51.707C51.707 21.4527 44.5552 14.3009 35.733 14.3009V15.1034ZM20.5614 30.2748C20.5614 21.8959 27.3539 15.1034 35.733 15.1034V14.3009C26.9107 14.3009 19.7589 21.4527 19.7589 30.2748H20.5614ZM35.733 45.4462C27.3539 45.4462 20.5614 38.6537 20.5614 30.2748H19.7589C19.7589 39.0969 26.9107 46.2487 35.733 46.2487V45.4462ZM49.5911 30.275C49.5911 37.82 43.3916 43.9454 35.7329 43.9454V44.7479C43.8248 44.7479 50.3936 38.2732 50.3936 30.275H49.5911ZM35.7329 16.6047C43.3916 16.6047 49.5911 22.7301 49.5911 30.275H50.3936C50.3936 22.2769 43.8248 15.8022 35.7329 15.8022V16.6047ZM21.8748 30.275C21.8748 22.7301 28.0743 16.6047 35.7329 16.6047V15.8022C27.6411 15.8022 21.0723 22.2769 21.0723 30.275H21.8748ZM35.7329 43.9454C28.0743 43.9454 21.8748 37.82 21.8748 30.275H21.0723C21.0723 38.2732 27.6411 44.7479 35.7329 44.7479V43.9454Z" fill="#0D1013"/>
<path d="M26.5435 26.4093C26.5435 26.4093 28.4323 22.9708 24.4824 19.0254C28.4293 22.9737 31.9377 21.1578 31.9377 21.1578C29.4403 23.5297 35.4039 29.9176 36.9824 31.5254C35.3736 29.947 28.9791 23.9757 26.5435 26.4093Z" fill="white" stroke="#0D1013" stroke-width="0.564183"/>
<path d="M39.5995 21.0864C39.5995 21.0864 43.038 22.9752 46.9834 19.0254C43.0351 22.9722 44.851 26.4807 44.851 26.4807C42.4791 23.9832 36.0912 29.9468 34.4834 31.5254C36.0618 29.9166 42.0331 23.5221 39.5995 21.0864Z" fill="white" stroke="#0D1013" stroke-width="0.564183"/>
<path d="M31.8663 39.4643C31.8663 39.4643 28.4278 37.5756 24.4824 41.5254C28.4307 37.5785 26.6148 34.0701 26.6148 34.0701C28.9867 36.5675 35.3746 30.604 36.9824 29.0254C35.4041 30.6342 29.4327 37.0287 31.8663 39.4643Z" fill="white" stroke="#0D1013" stroke-width="0.564183"/>
<path d="M44.9204 34.1415C44.9204 34.1415 43.0316 37.58 46.9814 41.5254C43.0346 37.5771 39.5262 39.393 39.5262 39.393C42.0236 37.0211 36.06 30.6332 34.4814 29.0254C36.0902 30.6037 42.4847 36.5751 44.9204 34.1415Z" fill="white" stroke="#0D1013" stroke-width="0.564183"/>
<path d="M55.0412 30.2765C55.0412 31.8277 53.7837 33.0853 52.2325 33.0853C50.6812 33.0853 49.4237 31.8277 49.4237 30.2765C49.4237 28.7252 50.6812 27.4677 52.2325 27.4677C53.7837 27.4677 55.0412 28.7252 55.0412 30.2765Z" fill="white" stroke="#0D1013" stroke-width="0.802508"/>
<ellipse cx="52.2302" cy="30.2761" rx="0.802501" ry="0.802516" fill="#0D1013"/>
<path d="M22.0412 30.2765C22.0412 31.8277 20.7837 33.0853 19.2325 33.0853C17.6812 33.0853 16.4237 31.8277 16.4237 30.2765C16.4237 28.7252 17.6812 27.4677 19.2325 27.4677C20.7837 27.4677 22.0412 28.7252 22.0412 30.2765Z" fill="white" stroke="#0D1013" stroke-width="0.802508"/>
<ellipse cx="19.2322" cy="30.2761" rx="0.802501" ry="0.802516" fill="#0D1013"/>
<path d="M41.258 44.9044C41.5797 44.7503 41.9381 44.5675 42.3074 44.3591C41.7492 44.5279 40.9656 44.7809 39.8942 45.1569L39.8877 45.1596C39.8767 45.1641 39.8619 45.17 39.8434 45.1767C39.8064 45.1903 39.7545 45.2075 39.6899 45.2246C39.561 45.2587 39.3792 45.2931 39.1617 45.2961C38.7219 45.3023 38.1444 45.1797 37.5775 44.6897C36.8196 44.0345 36.1099 42.7495 35.7324 40.3144C35.3557 42.7497 34.6464 44.0345 33.8886 44.6892C33.3218 45.1789 32.7443 45.3009 32.3046 45.2944C32.0871 45.2912 31.9053 45.2567 31.7764 45.2224C31.7118 45.2053 31.66 45.188 31.623 45.1745C31.6045 45.1677 31.5896 45.1618 31.5787 45.1573L31.5722 45.1546C30.4943 44.7758 29.7077 44.522 29.149 44.3532C29.5212 44.564 29.8823 44.7487 30.2063 44.9042C30.5824 45.0848 30.9062 45.2249 31.1354 45.3197C31.25 45.367 31.3408 45.403 31.4026 45.4271C31.4336 45.4391 31.4572 45.4481 31.473 45.454L31.4906 45.4606L31.4943 45.462C33.7 46.2394 34.8361 47.5913 35.4156 48.7597C35.5477 49.026 35.6505 49.2821 35.7306 49.5188C35.8106 49.2821 35.9134 49.0261 36.0454 48.7597C36.6245 47.5913 37.7607 46.2394 39.9679 45.462L39.9717 45.4606L39.9893 45.454C40.0051 45.448 40.0288 45.439 40.0598 45.427C40.1217 45.403 40.2127 45.367 40.3275 45.3196C40.5571 45.2249 40.8813 45.0849 41.258 44.9044Z" fill="white" stroke="#0D1013" stroke-width="0.564183"/>
<path d="M30.2088 15.6474C29.8871 15.8015 29.5287 15.9843 29.1594 16.1927C29.7176 16.0239 30.5012 15.7709 31.5726 15.3949L31.5791 15.3921C31.5901 15.3876 31.6049 15.3818 31.6234 15.375C31.6604 15.3615 31.7122 15.3443 31.7769 15.3272C31.9057 15.293 32.0876 15.2587 32.3051 15.2557C32.7449 15.2495 33.3224 15.372 33.8893 15.8621C34.6472 16.5172 35.3569 17.8023 35.7344 20.2374C36.1111 17.8021 36.8204 16.5173 37.5782 15.8626C38.145 15.3729 38.7225 15.2508 39.1622 15.2573C39.3797 15.2606 39.5615 15.2951 39.6904 15.3293C39.755 15.3465 39.8068 15.3638 39.8438 15.3773C39.8623 15.3841 39.8772 15.39 39.8881 15.3945L39.8946 15.3972C40.9725 15.7759 41.7591 16.0298 42.3178 16.1986C41.9456 15.9878 41.5845 15.803 41.2605 15.6475C40.8844 15.4669 40.5606 15.3268 40.3314 15.2321C40.2168 15.1847 40.126 15.1487 40.0642 15.1247C40.0332 15.1127 40.0096 15.1037 39.9938 15.0977L39.9762 15.0911L39.9725 15.0897C37.7668 14.3124 36.6307 12.9604 36.0512 11.7921C35.9191 11.5257 35.8163 11.2696 35.7361 11.0329C35.6562 11.2696 35.5534 11.5257 35.4214 11.792C34.8423 12.9604 33.7061 14.3124 31.4989 15.0898L31.4951 15.0912L31.4775 15.0978C31.4617 15.1037 31.438 15.1127 31.407 15.1247C31.3451 15.1488 31.2541 15.1848 31.1393 15.2321C30.9097 15.3269 30.5855 15.4669 30.2088 15.6474Z" fill="white" stroke="#0D1013" stroke-width="0.564183"/>
<path d="M63.2919 22.9639V22.7209L64.5069 22.1134V13.7906L63.2919 13.1831V12.9401H67.1343C67.8026 12.9401 68.3999 13.0262 68.9264 13.1983C69.4631 13.3603 69.8833 13.6084 70.187 13.9425C70.4908 14.2665 70.6426 14.6816 70.6426 15.1879C70.6426 15.7042 70.4705 16.1801 70.1263 16.6155C69.782 17.0407 69.2859 17.3445 68.6379 17.5267C69.539 17.6482 70.2427 17.9317 70.7489 18.3772C71.2552 18.8126 71.5083 19.3695 71.5083 20.0479C71.5083 20.6047 71.3311 21.1059 70.9768 21.5514C70.6325 21.9868 70.1566 22.3311 69.5491 22.5842C68.9416 22.8373 68.2531 22.9639 67.4836 22.9639H63.2919ZM66.785 13.7754H65.8738V17.3749H66.8761C67.595 17.3749 68.1569 17.223 68.5619 16.9192C68.9669 16.6054 69.1694 16.17 69.1694 15.6131C69.1694 14.388 68.3746 13.7754 66.785 13.7754ZM67.3621 18.2102H65.8738V22.1286H67.4684C68.2683 22.1286 68.8961 21.9463 69.3517 21.5818C69.8073 21.2173 70.0351 20.7465 70.0351 20.1694C70.0351 19.4809 69.8023 18.9847 69.3365 18.681C68.8809 18.3671 68.2228 18.2102 67.3621 18.2102ZM79.3705 23.1157C78.6111 23.1157 77.9327 22.974 77.3353 22.6905C76.7481 22.407 76.2823 21.9716 75.9381 21.3844C75.5938 20.787 75.4217 20.0175 75.4217 19.0759V13.7906L74.2067 13.1831V12.9401H78.0036V13.1831L76.7886 13.7906V18.8481C76.7886 19.6884 76.9202 20.3567 77.1835 20.8528C77.4467 21.3489 77.8011 21.7033 78.2466 21.9159C78.7022 22.1286 79.2085 22.2349 79.7653 22.2349C80.2108 22.2349 80.6209 22.1387 80.9955 21.9463C81.3803 21.7539 81.684 21.4502 81.9068 21.0351C82.1396 20.6199 82.2561 20.0681 82.2561 19.3796V13.7602L80.7373 13.1831V12.9401H84.519V13.1831L83.3192 13.7754V19.0759C83.3192 20.0175 83.1471 20.787 82.8028 21.3844C82.4586 21.9716 81.9878 22.407 81.3904 22.6905C80.8031 22.974 80.1298 23.1157 79.3705 23.1157ZM87.7782 22.9639V22.7209L88.9932 22.1134V13.7906L87.7782 13.1831V12.9401H91.575V13.1831L90.36 13.7906V22.1134L91.575 22.7209V22.9639H87.7782ZM94.835 22.9639V22.7209L96.05 22.1134V13.7906L94.835 13.1831V12.9401H98.7838V13.1831L97.4169 13.7906V22.1286H101.107L102.14 19.5922H102.383V22.9639H94.835ZM106.818 22.9639V22.7209L108.337 22.1134V13.7754H105.862L104.829 16.008H104.586V12.9401H113.455V16.008H113.212L112.18 13.7754H109.704V22.1134L111.223 22.7209V22.9639H106.818ZM124.524 23.0398L121.73 13.7299L120.591 13.1831V12.9401H124.448V13.1831L123.158 13.7451L125.056 20.3212H125.132L127.759 12.8642H128.321L131.009 20.3212H131.101L132.969 13.7602L131.678 13.1831V12.9401H135.034V13.1831L134.017 13.7451L131.192 23.0398H130.66L127.896 15.5979H127.82L125.056 23.0398H124.524ZM137.547 22.9639V22.7209L138.762 22.1134V13.7906L137.547 13.1831V12.9401H141.344V13.1831L140.129 13.7906V22.1134L141.344 22.7209V22.9639H137.547ZM146.533 22.9639V22.7209L148.051 22.1134V13.7754H145.576L144.543 16.008H144.3V12.9401H153.169V16.008H152.926L151.894 13.7754H149.418V22.1134L150.937 22.7209V22.9639H146.533ZM156.052 22.9639V22.7209L157.267 22.1134V13.7906L156.052 13.1831V12.9401H159.849V13.1831L158.634 13.7906V17.3749H163.798V13.7906L162.583 13.1831V12.9401H166.38V13.1831L165.165 13.7906V22.1134L166.38 22.7209V22.9639H162.583V22.7209L163.798 22.1134V18.2102H158.634V22.1134L159.849 22.7209V22.9639H156.052Z" fill="white"/>
<path d="M64.9002 47.9639V46.9751L75.437 29.2696H68.052L65.7654 33.8737H65.271V27.5702H81.0298V28.559L70.4313 46.2644H78.4342L80.8753 41.3514H81.3697V47.9639H64.9002ZM98.6846 48.2729C97.1602 48.2729 95.7491 48.0154 94.4513 47.5004C93.1535 46.9648 92.0206 46.2335 91.0524 45.3065C90.1048 44.3589 89.3632 43.2465 88.8276 41.9694C88.292 40.6922 88.0242 39.2914 88.0242 37.767C88.0242 36.2426 88.292 34.8419 88.8276 33.5647C89.3632 32.2875 90.1048 31.1854 91.0524 30.2584C92.0206 29.3108 93.1535 28.5796 94.4513 28.0646C95.7491 27.529 97.1602 27.2612 98.6846 27.2612C100.23 27.2612 101.651 27.529 102.949 28.0646C104.246 28.5796 105.369 29.3108 106.317 30.2584C107.285 31.1854 108.037 32.2875 108.572 33.5647C109.108 34.8419 109.376 36.2426 109.376 37.767C109.376 39.2914 109.108 40.6922 108.572 41.9694C108.037 43.2465 107.285 44.3589 106.317 45.3065C105.369 46.2335 104.246 46.9648 102.949 47.5004C101.651 48.0154 100.23 48.2729 98.6846 48.2729ZM99.1789 46.6661C100.209 46.6661 101.115 46.3365 101.898 45.6773C102.701 45.0181 103.319 44.0911 103.752 42.8963C104.205 41.7016 104.432 40.3008 104.432 38.694C104.432 36.7164 104.154 34.9861 103.598 33.5029C103.062 32.0197 102.331 30.8764 101.404 30.073C100.477 29.249 99.4364 28.837 98.2829 28.837C97.2529 28.837 96.3362 29.1666 95.5328 29.8258C94.7294 30.4644 94.0908 31.3811 93.617 32.5759C93.1638 33.7707 92.9372 35.1715 92.9372 36.7782C92.9372 38.7558 93.2153 40.4862 93.7715 41.9694C94.3277 43.4525 95.0796 44.6061 96.0272 45.4301C96.9748 46.2541 98.0254 46.6661 99.1789 46.6661ZM115.032 47.9639V47.4695L117.659 46.2026V29.3314L115.032 28.0646V27.5702H125.569C128.02 27.5702 130.101 27.9719 131.811 28.7752C133.521 29.5786 134.818 30.6807 135.704 32.0815C136.611 33.4823 137.064 35.0685 137.064 36.84C137.064 38.4468 136.765 39.93 136.168 41.2896C135.591 42.6491 134.777 43.8233 133.727 44.8121C132.676 45.8009 131.44 46.5734 130.019 47.1296C128.597 47.6858 127.042 47.9639 125.353 47.9639H115.032ZM124.302 29.2696H122.325V46.2644H124.735C127.124 46.2644 128.968 45.5022 130.266 43.9778C131.564 42.4328 132.212 40.3729 132.212 37.7979C132.212 35.2024 131.543 33.1321 130.204 31.5871C128.886 30.0421 126.918 29.2696 124.302 29.2696ZM142.649 47.9639V47.4695L145.276 46.2026V29.3314L142.649 28.0646V27.5702H152.568V28.0646L149.941 29.3314V46.2026L152.568 47.4695V47.9639H142.649ZM157.36 47.9639V47.4695L159.245 46.4189L167.31 27.4157H170.029L178.001 46.3571L180.102 47.4695V47.9639H170.338V47.4695L173.026 46.3571L170.925 41.2278H163.602L161.5 46.3571L164.065 47.4695V47.9639H157.36ZM164.312 39.5283H170.214L167.279 32.3287L164.312 39.5283ZM195.057 48.2729C192.894 48.2729 190.999 47.83 189.372 46.9442C187.744 46.0584 186.478 44.8636 185.571 43.3598C184.685 41.8355 184.242 40.1154 184.242 38.1996C184.242 36.6546 184.551 35.223 185.169 33.9046C185.787 32.5862 186.622 31.4326 187.672 30.4438C188.744 29.4344 189.949 28.6517 191.288 28.0955C192.647 27.5393 194.069 27.2612 195.552 27.2612C196.644 27.2612 197.55 27.323 198.271 27.4466C198.992 27.5702 199.641 27.7453 200.218 27.9719C200.794 28.1985 201.371 28.456 201.948 28.7443L202.288 34.5226H201.732L198.796 29.7331C198.281 29.4035 197.797 29.1666 197.344 29.0224C196.891 28.8782 196.345 28.8061 195.706 28.8061C194.45 28.8061 193.317 29.1872 192.307 29.9494C191.318 30.691 190.536 31.7519 189.959 33.1321C189.382 34.4917 189.094 36.0778 189.094 37.8906C189.094 39.6828 189.372 41.2381 189.928 42.5564C190.484 43.8542 191.236 44.8636 192.184 45.5846C193.152 46.285 194.233 46.6352 195.428 46.6352C196.19 46.6352 196.87 46.5425 197.467 46.3571C198.085 46.1511 198.673 45.8936 199.229 45.5846L202.01 41.4441H202.535L202.102 46.6661C201.258 47.1605 200.238 47.5519 199.043 47.8403C197.869 48.1287 196.541 48.2729 195.057 48.2729Z" fill="white"/>
</svg>
