<svg width="332" height="332" viewBox="0 0 332 332" fill="none" xmlns="http://www.w3.org/2000/svg">
<circle cx="165.679" cy="165.674" r="125.96" fill="#170B25"/>
<path d="M149.16 62.592L148.417 57.9067C142.787 58.7936 137.218 60.1209 131.765 61.8857L133.231 66.3978C138.447 64.7098 143.774 63.4403 149.16 62.592Z" fill="#349A66"/>
<path d="M133.231 66.3978L131.765 61.8857C126.356 63.636 121.063 65.8166 115.938 68.4247L118.092 72.6523C122.994 70.1577 128.058 68.0719 133.231 66.3978Z" fill="#349A66"/>
<path d="M134.697 70.9099L133.231 66.3978C128.058 68.0719 122.994 70.1577 118.092 72.6523L120.247 76.88C124.925 74.4988 129.759 72.5079 134.697 70.9099Z" fill="#349A66"/>
<path d="M122.401 81.1076C126.857 78.8399 131.46 76.9439 136.163 75.422L134.697 70.9099C129.759 72.5079 124.925 74.4988 120.247 76.88L122.401 81.1076Z" fill="#349A66"/>
<path d="M122.401 81.1076L124.555 85.3353C128.788 83.181 133.161 81.3798 137.629 79.9341L136.163 75.422C131.46 76.9439 126.857 78.8399 122.401 81.1076Z" fill="#349A66"/>
<path d="M151.386 76.6479L150.644 71.9626C145.748 72.7336 140.905 73.8876 136.163 75.422L137.629 79.9341C142.134 78.4765 146.735 77.3803 151.386 76.6479Z" fill="#349A66"/>
<path d="M149.902 67.2773C144.761 68.087 139.676 69.2987 134.697 70.9099L136.163 75.422C140.905 73.8876 145.748 72.7336 150.644 71.9626L149.902 67.2773Z" fill="#349A66"/>
<path d="M134.697 70.9099C139.676 69.2987 144.761 68.087 149.902 67.2773L149.16 62.592C143.774 63.4403 138.447 64.7098 133.231 66.3978L134.697 70.9099Z" fill="#349A66"/>
<path d="M109.705 88.8903C113.763 85.9369 118.011 83.3419 122.401 81.1076L120.247 76.88C115.637 79.226 111.178 81.9508 106.916 85.0519L109.705 88.8903Z" fill="#349A66"/>
<path d="M150.644 71.9626C155.554 71.1892 160.517 70.8011 165.485 70.8008L165.485 66.0572C160.269 66.0576 155.057 66.4652 149.902 67.2773L150.644 71.9626Z" fill="#349A66"/>
<path d="M165.485 61.3136C160.021 61.3141 154.561 61.7412 149.16 62.592L149.902 67.2773C155.057 66.4652 160.269 66.0576 165.485 66.0572L165.485 61.3136Z" fill="#349A66"/>
<path d="M153.612 90.7037C157.54 90.0853 161.511 89.7751 165.485 89.775L165.485 85.0315C161.263 85.0316 157.044 85.3613 152.87 86.0184L153.612 90.7037Z" fill="#349A66"/>
<path d="M178.841 81.3335C174.415 80.6355 169.948 80.2877 165.485 80.2879L165.485 85.0315C169.7 85.0314 173.919 85.3599 178.099 86.0192L178.841 81.3335Z" fill="#349A66"/>
<path d="M179.583 76.6478L178.841 81.3335C183.239 82.027 187.597 83.0663 191.871 84.4537L193.338 79.9412C188.826 78.4768 184.226 77.3798 179.583 76.6478Z" fill="#349A66"/>
<path d="M191.871 84.4537C187.597 83.0663 183.239 82.027 178.841 81.3335L178.099 86.0192C182.253 86.6742 186.368 87.6558 190.405 88.9661L191.871 84.4537Z" fill="#349A66"/>
<path d="M190.405 88.9661C186.368 87.6558 182.253 86.6742 178.099 86.0192L177.357 90.7048C181.266 91.3214 185.14 92.2454 188.939 93.4787L190.405 88.9661Z" fill="#349A66"/>
<path d="M165.485 89.775C169.452 89.775 173.423 90.0843 177.357 90.7048L178.099 86.0192C173.919 85.3599 169.7 85.0314 165.485 85.0315L165.485 89.775Z" fill="#349A66"/>
<path d="M177.357 90.7048C173.423 90.0843 169.452 89.775 165.485 89.775L165.485 94.5186C169.204 94.5187 172.926 94.8087 176.615 95.3905L177.357 90.7048Z" fill="#349A66"/>
<path d="M177.357 90.7048L176.615 95.3905C180.28 95.9687 183.911 96.8349 187.473 97.9912L188.939 93.4787C185.14 92.2454 181.266 91.3214 177.357 90.7048Z" fill="#349A66"/>
<path d="M187.473 97.9912C190.99 99.133 194.44 100.558 197.787 102.267L199.941 98.0394C196.371 96.2162 192.691 94.6966 188.939 93.4787L187.473 97.9912Z" fill="#349A66"/>
<path d="M199.941 98.0394L202.096 93.8118C198.302 91.8747 194.392 90.2601 190.405 88.9661L188.939 93.4787C192.691 94.6966 196.371 96.2162 199.941 98.0394Z" fill="#349A66"/>
<path d="M218.452 92.7607C214.588 89.9451 210.558 87.4778 206.404 85.3567L204.25 89.5842C208.185 91.5938 212.003 93.9312 215.664 96.5986L218.452 92.7607Z" fill="#349A66"/>
<path d="M204.25 89.5842C200.233 87.5332 196.093 85.8237 191.871 84.4537L190.405 88.9661C194.392 90.2601 198.302 91.8747 202.096 93.8118L204.25 89.5842Z" fill="#349A66"/>
<path d="M206.404 85.3567C202.163 83.1917 197.793 81.3873 193.338 79.9412L191.871 84.4537C196.093 85.8237 200.233 87.5332 204.25 89.5842L206.404 85.3567Z" fill="#349A66"/>
<path d="M202.096 93.8118C205.813 95.7097 209.418 97.9173 212.875 100.437L215.664 96.5986C212.003 93.9312 208.185 91.5938 204.25 89.5842L202.096 93.8118Z" fill="#349A66"/>
<path d="M165.485 108.749L165.485 104.006C162.256 104.006 159.03 104.257 155.838 104.76L156.58 109.445C159.526 108.981 162.504 108.749 165.485 108.749Z" fill="#349A66"/>
<path d="M155.096 100.074C151.669 100.614 148.279 101.421 144.959 102.495L146.425 107.007C149.508 106.01 152.656 105.26 155.838 104.76L155.096 100.074Z" fill="#349A66"/>
<path d="M144.959 102.495L143.493 97.9826C139.966 99.1237 136.513 100.545 133.171 102.246L135.325 106.474C138.445 104.886 141.667 103.56 144.959 102.495Z" fill="#349A66"/>
<path d="M146.425 107.007L144.959 102.495C141.667 103.56 138.445 104.886 135.325 106.474L137.479 110.701C140.376 109.228 143.368 107.996 146.425 107.007Z" fill="#349A66"/>
<path d="M132.015 119.597C134.45 117.826 136.999 116.269 139.633 114.929L137.479 110.701C134.625 112.153 131.864 113.84 129.226 115.759L132.015 119.597Z" fill="#349A66"/>
<path d="M147.892 111.519L146.425 107.007C143.368 107.996 140.376 109.228 137.479 110.701L139.633 114.929C142.307 113.569 145.07 112.432 147.892 111.519Z" fill="#349A66"/>
<path d="M156.58 109.445L155.838 104.76C152.656 105.26 149.508 106.01 146.425 107.007L147.892 111.519C150.737 110.599 153.643 109.907 156.58 109.445Z" fill="#349A66"/>
<path d="M156.58 109.445C153.643 109.907 150.737 110.599 147.892 111.519L149.358 116.031C151.966 115.188 154.63 114.554 157.322 114.13L156.58 109.445Z" fill="#349A66"/>
<path d="M141.788 119.157C144.239 117.91 146.771 116.867 149.358 116.031L147.892 111.519C145.07 112.432 142.307 113.569 139.633 114.929L141.788 119.157Z" fill="#349A66"/>
<path d="M172.904 118.819C175.347 119.205 177.768 119.783 180.142 120.554L181.608 116.041C178.996 115.193 176.333 114.558 173.646 114.133L172.904 118.819Z" fill="#349A66"/>
<path d="M181.608 116.041C184.187 116.879 186.717 117.924 189.171 119.177L191.325 114.95C188.648 113.582 185.888 112.442 183.074 111.529L181.608 116.041Z" fill="#349A66"/>
<path d="M184.54 107.016L183.074 111.529C185.888 112.442 188.648 113.582 191.325 114.95L193.479 110.722C190.578 109.241 187.589 108.006 184.54 107.016Z" fill="#349A66"/>
<path d="M191.325 114.95L189.171 119.177C191.576 120.406 193.908 121.834 196.145 123.464L198.933 119.626C196.493 117.848 193.949 116.29 191.325 114.95Z" fill="#349A66"/>
<path d="M189.171 119.177C186.717 117.924 184.187 116.879 181.608 116.041L180.142 120.554C182.486 121.315 184.786 122.265 187.017 123.405L189.171 119.177Z" fill="#349A66"/>
<path d="M183.074 111.529C180.225 110.603 177.32 109.91 174.388 109.448L173.646 114.133C176.333 114.558 178.996 115.193 181.608 116.041L183.074 111.529Z" fill="#349A66"/>
<path d="M165.485 113.493L165.485 118.236C167.964 118.237 170.445 118.431 172.904 118.819L173.646 114.133C170.942 113.706 168.212 113.493 165.485 113.493Z" fill="#349A66"/>
<path d="M278.071 129.084L52.8986 202.246M165.485 47.285L165.485 51.8265M165.485 284.045L165.485 137.211M52.8986 129.083L278.07 202.246M95.9025 261.436L187.78 134.978M235.066 69.8933L232.394 73.5711M235.066 261.436L143.17 134.951M95.9025 69.8932L104.127 81.2136M282.407 147.146L48.562 184.183M184.003 48.7422L183.294 53.2194M146.966 282.587L170.678 132.876M60.0073 111.922L270.962 219.408M81.7773 249.372L249.192 81.9574M219.228 271.142L150.404 136.067M111.741 60.1872L113.784 64.1971M261.256 96.083L69.7132 235.247M128.903 53.0787L130.299 57.3736M202.066 278.251L156.688 138.592M47.1046 165.665L283.864 165.665M128.903 278.25L177.209 129.579M202.066 53.0786L199.202 61.8912M261.256 235.246L69.7131 96.0825M270.962 111.922L60.0074 219.408M146.966 48.7426L147.675 53.2215M184.003 282.587L161.033 137.557M48.5621 147.146L282.407 184.184M111.741 271.142L182.709 131.86M219.228 60.1877L217.174 64.2188M249.192 249.372L108.453 108.634M81.7773 81.9576L105.099 105.279M115.282 96.5671C111.713 99.164 108.306 102.069 105.099 105.279M115.282 96.5671L118.071 100.405M115.282 96.5671L112.493 92.7287M115.282 96.5671C118.935 93.9091 122.758 91.5736 126.709 89.5629M105.099 105.279L108.453 108.634M105.099 105.279C104.047 106.333 103.016 107.42 102.007 108.54C70.4536 143.584 73.283 197.572 108.327 229.126C143.371 260.68 197.359 257.85 228.913 222.806C260.467 187.762 257.638 133.774 222.594 102.22C220.357 100.206 218.044 98.3328 215.664 96.5986M108.453 108.634C111.482 105.601 114.7 102.858 118.071 100.405M108.453 108.634C107.459 109.629 106.485 110.656 105.533 111.714C75.7318 144.811 78.404 195.8 111.501 225.601C144.598 255.401 195.587 252.729 225.388 219.632C255.189 186.535 252.517 135.546 219.42 105.745C217.308 103.844 215.123 102.074 212.875 100.437M118.071 100.405C121.521 97.8952 125.131 95.6895 128.863 93.7906M118.071 100.405L120.86 104.244M122.401 81.1076C118.011 83.3419 113.763 85.9369 109.705 88.8903M122.401 81.1076L124.555 85.3353M122.401 81.1076C126.857 78.8399 131.46 76.9439 136.163 75.422M122.401 81.1076L120.247 76.88M109.705 88.8903L112.493 92.7287M109.705 88.8903C104.439 92.7224 99.4896 97.1579 94.9572 102.192C59.8974 141.129 63.0412 201.116 101.979 236.176C140.917 271.236 200.904 268.092 235.964 229.154C271.023 190.217 267.88 130.23 228.942 95.1698C222.634 89.4905 215.774 84.8137 208.558 81.1291M109.705 88.8903L106.916 85.0519M112.493 92.7287C116.349 89.923 120.384 87.4578 124.555 85.3353M112.493 92.7287C107.49 96.3694 102.788 100.583 98.4823 105.366C65.1755 142.357 68.1621 199.344 105.153 232.651C142.144 265.958 199.132 262.971 232.438 225.98C265.745 188.989 262.759 132.002 225.768 98.6949C223.407 96.5692 220.965 94.5913 218.452 92.7607M124.555 85.3353C128.788 83.181 133.161 81.3798 137.629 79.9341M124.555 85.3353L126.709 89.5629M154.354 95.389C150.682 95.967 147.05 96.8321 143.493 97.9826M154.354 95.389L155.096 100.074M154.354 95.389C158.037 94.8093 161.759 94.5186 165.485 94.5186M154.354 95.389L153.612 90.7037M143.493 97.9826L144.959 102.495M143.493 97.9826L142.027 93.4705M143.493 97.9826C139.966 99.1237 136.513 100.545 133.171 102.246M144.959 102.495C148.279 101.421 151.669 100.614 155.096 100.074M144.959 102.495L146.425 107.007M144.959 102.495C141.667 103.56 138.445 104.886 135.325 106.474M155.096 100.074L155.838 104.76M155.096 100.074C158.533 99.5333 162.008 99.2621 165.485 99.2622M165.485 75.5443L165.485 70.8008M165.485 75.5443C160.766 75.5446 156.051 75.9132 151.386 76.6479M165.485 75.5443C170.196 75.5441 174.911 75.9111 179.583 76.6478M165.485 75.5443L165.485 80.2879M165.485 70.8008C160.517 70.8011 155.554 71.1892 150.644 71.9626M165.485 70.8008C170.444 70.8004 175.407 71.1867 180.325 71.9621M165.485 70.8008L165.485 66.0572M150.644 71.9626L151.386 76.6479M150.644 71.9626L149.902 67.2773M150.644 71.9626C145.748 72.7336 140.905 73.8876 136.163 75.422M151.386 76.6479L152.128 81.3331M151.386 76.6479C146.735 77.3803 142.134 78.4765 137.629 79.9341M165.485 56.57C159.772 56.5706 154.064 57.0172 148.417 57.9067M165.485 56.57L165.485 61.3136M165.485 56.57L165.485 51.8265M165.485 56.57C171.188 56.5695 176.896 57.0135 182.552 57.9051M148.417 57.9067L149.16 62.592M148.417 57.9067C142.787 58.7936 137.218 60.1209 131.765 61.8857M148.417 57.9067L147.675 53.2215M149.16 62.592C154.561 61.7412 160.021 61.3141 165.485 61.3136M149.16 62.592L149.902 67.2773M149.16 62.592C143.774 63.4403 138.447 64.7098 133.231 66.3978M165.485 61.3136C170.94 61.3131 176.4 61.7379 181.81 62.5907M165.485 61.3136L165.485 66.0572M134.697 70.9099C139.676 69.2987 144.761 68.087 149.902 67.2773M134.697 70.9099L133.231 66.3978M134.697 70.9099L136.163 75.422M134.697 70.9099C129.759 72.5079 124.925 74.4988 120.247 76.88M149.902 67.2773C155.057 66.4652 160.269 66.0576 165.485 66.0572M133.231 66.3978L131.765 61.8857M133.231 66.3978C128.058 68.0719 122.994 70.1577 118.092 72.6523M131.765 61.8857C126.356 63.636 121.063 65.8166 115.938 68.4247M131.765 61.8857L130.299 57.3736M130.299 57.3736C124.655 59.2001 119.131 61.4755 113.784 64.1971M130.299 57.3736C135.989 55.5321 141.8 54.147 147.675 53.2215M113.784 64.1971L115.938 68.4247M113.784 64.1971C101.682 70.3567 90.486 78.801 80.8567 89.4955C38.7849 136.221 42.5574 208.205 89.2829 250.277C136.008 292.349 207.993 288.576 250.064 241.851C292.136 195.125 288.364 123.141 241.638 81.0693C238.655 78.3833 235.569 75.8841 232.394 73.5711M115.938 68.4247C104.34 74.3277 93.6102 82.4204 84.3818 92.6695C44.063 137.448 47.6784 206.433 92.4569 246.752C137.235 287.071 206.22 283.455 246.539 238.677C286.858 193.898 283.243 124.913 238.464 84.5944C235.605 82.0205 232.648 79.6256 229.606 77.409M115.938 68.4247L118.092 72.6523M139.095 84.4462C143.363 83.0654 147.722 82.027 152.128 81.3331M139.095 84.4462L137.629 79.9341M139.095 84.4462C134.862 85.8158 130.719 87.5221 126.709 89.5629M139.095 84.4462L140.561 88.9584M152.128 81.3331C156.547 80.6373 161.014 80.2881 165.485 80.2879M152.128 81.3331L152.87 86.0184M137.629 79.9341L136.163 75.422M178.841 81.3335L179.583 76.6478M178.841 81.3335C174.415 80.6355 169.948 80.2877 165.485 80.2879M178.841 81.3335C183.239 82.027 187.597 83.0663 191.871 84.4537M178.841 81.3335L178.099 86.0192M179.583 76.6478L180.325 71.9621M179.583 76.6478C184.226 77.3798 188.826 78.4768 193.338 79.9412M165.485 80.2879L165.485 85.0315M180.325 71.9621L181.068 67.2764M180.325 71.9621C185.212 72.7326 190.054 73.8873 194.804 75.4287M177.357 90.7048C173.423 90.0843 169.452 89.775 165.485 89.7751M177.357 90.7048L176.615 95.3905M177.357 90.7048L178.099 86.0192M177.357 90.7048C181.266 91.3214 185.14 92.2454 188.939 93.4787M165.485 89.7751L165.485 94.5186M165.485 89.7751C161.511 89.7751 157.54 90.0853 153.612 90.7037M165.485 89.7751L165.485 85.0315M165.485 94.5186C169.204 94.5187 172.926 94.8087 176.615 95.3905M165.485 94.5186L165.485 99.2622M176.615 95.3905C180.28 95.9687 183.911 96.8349 187.473 97.9912M176.615 95.3905L175.873 100.076M165.485 51.8265C171.436 51.8258 177.392 52.2891 183.294 53.2194M165.485 51.8265C159.524 51.8272 153.568 52.2932 147.675 53.2215M182.552 57.9051L183.294 53.2194M182.552 57.9051C188.172 58.7909 193.74 60.1187 199.202 61.8912M182.552 57.9051L181.81 62.5907M183.294 53.2194C194.949 55.0566 206.393 58.7151 217.174 64.2188M175.13 104.762C171.934 104.257 168.708 104.006 165.485 104.006M175.13 104.762L174.388 109.448M175.13 104.762C178.306 105.263 181.454 106.014 184.54 107.016M175.13 104.762L175.873 100.076M165.485 104.006L165.485 108.749M165.485 104.006C162.256 104.006 159.03 104.257 155.838 104.76M165.485 104.006L165.485 99.2622M165.485 108.749C168.46 108.75 171.438 108.982 174.388 109.448M165.485 108.749C162.504 108.749 159.526 108.981 156.58 109.445M165.485 108.749L165.485 113.493M174.388 109.448C177.32 109.91 180.225 110.603 183.074 111.529M174.388 109.448L173.646 114.133M155.838 104.76L156.58 109.445M155.838 104.76C152.656 105.26 149.508 106.01 146.425 107.007M156.58 109.445C153.643 109.907 150.737 110.599 147.892 111.519M156.58 109.445L157.322 114.13M165.485 99.2622C168.956 99.2623 172.43 99.5331 175.873 100.076M146.425 107.007L147.892 111.519M146.425 107.007C143.368 107.996 140.376 109.228 137.479 110.701M153.612 90.7037C149.695 91.3203 145.821 92.2432 142.027 93.4705M153.612 90.7037L152.87 86.0184M142.027 93.4705C138.265 94.6877 134.582 96.2043 131.017 98.0183M142.027 93.4705L140.561 88.9584M165.485 85.0315C161.263 85.0316 157.044 85.3613 152.87 86.0184M165.485 85.0315C169.7 85.0314 173.919 85.3599 178.099 86.0192M152.87 86.0184C148.708 86.6736 144.592 87.6543 140.561 88.9584M131.017 98.0183L133.171 102.246M131.017 98.0183L128.863 93.7906M131.017 98.0183C127.505 99.8054 124.107 101.881 120.86 104.244M133.171 102.246L135.325 106.474M133.171 102.246C129.878 103.921 126.693 105.867 123.648 108.082M126.709 89.5629L128.863 93.7906M128.863 93.7906C132.651 91.8632 136.564 90.2517 140.561 88.9584M149.358 116.031C146.771 116.867 144.239 117.91 141.788 119.157M149.358 116.031L150.824 120.543M149.358 116.031L147.892 111.519M149.358 116.031C151.966 115.188 154.63 114.554 157.322 114.13M141.788 119.157L143.942 123.384M141.788 119.157C139.373 120.385 137.036 121.812 134.803 123.436M141.788 119.157L139.633 114.929M143.942 123.384C146.17 122.251 148.472 121.303 150.824 120.543M143.942 123.384C138.894 125.951 134.224 129.472 130.209 133.932C112.679 153.401 114.251 183.394 133.719 200.924C153.188 218.454 183.182 216.882 200.712 197.413C218.242 177.944 216.67 147.951 197.201 130.421C194.05 127.584 190.622 125.247 187.017 123.405M143.942 123.384L146.096 127.612M150.824 120.543L152.29 125.055M150.824 120.543C153.195 119.777 155.616 119.2 158.064 118.815M146.096 127.612C144.12 128.617 142.208 129.784 140.381 131.112M146.096 127.612L148.25 131.839M146.096 127.612C148.101 126.592 150.173 125.739 152.29 125.055M140.381 131.112L143.17 134.951M140.381 131.112C138.007 132.839 135.776 134.837 133.734 137.106C117.957 154.628 119.371 181.622 136.894 197.399C154.416 213.176 181.41 211.761 197.187 194.239C212.964 176.717 211.549 149.723 194.027 133.946C192.911 132.941 191.756 132.006 190.568 131.14M140.381 131.112L134.803 123.436M143.17 134.951C144.794 133.77 146.493 132.733 148.25 131.839M143.17 134.951C141.059 136.486 139.075 138.263 137.259 140.28C123.235 155.855 124.492 179.85 140.068 193.874C155.643 207.898 179.637 206.64 193.661 191.065C207.685 175.49 206.428 151.495 190.853 137.471C189.861 136.578 188.835 135.747 187.78 134.978M148.25 131.839L150.404 136.067M148.25 131.839C150.033 130.933 151.874 130.175 153.756 129.567M139.633 114.929C136.999 116.269 134.45 117.826 132.015 119.597M139.633 114.929C142.307 113.569 145.07 112.432 147.892 111.519M139.633 114.929L137.479 110.701M132.015 119.597L134.803 123.436M132.015 119.597C128.852 121.898 125.88 124.561 123.158 127.584C102.122 150.947 104.009 186.939 127.371 207.975C150.734 229.011 186.726 227.124 207.762 203.762C228.798 180.399 226.912 144.407 203.549 123.371C202.059 122.03 200.518 120.781 198.933 119.626M132.015 119.597L129.226 115.759M134.803 123.436C131.904 125.545 129.179 127.987 126.683 130.758C107.401 152.174 109.13 185.167 130.545 204.449C151.961 223.732 184.954 222.003 204.237 200.587C223.52 179.172 221.791 146.179 200.375 126.896C199.01 125.667 197.598 124.523 196.145 123.464M229.606 77.409L232.394 73.5711M229.606 77.409C224.928 74.0007 220.049 71.014 215.02 68.4463M229.606 77.409L226.817 81.2469M232.394 73.5711C227.513 70.0146 222.422 66.898 217.174 64.2188M217.174 64.2188L215.02 68.4463M215.02 68.4463L212.866 72.6739M215.02 68.4463C209.887 65.8257 204.596 63.6416 199.202 61.8912M212.866 72.6739C217.676 75.1299 222.343 77.9868 226.817 81.2469M212.866 72.6739C207.956 70.1672 202.896 68.078 197.736 66.4037M212.866 72.6739L208.558 81.1291M226.817 81.2469C229.727 83.367 232.556 85.6577 235.29 88.1195C278.122 126.685 281.58 192.671 243.014 235.503C204.448 278.334 138.463 281.792 95.6309 243.227C52.7993 204.661 49.3411 138.675 87.9069 95.8436C92.892 90.3071 98.3351 85.4285 104.127 81.2136M226.817 81.2469L218.452 92.7607M199.202 61.8912L197.736 66.4037M197.736 66.4037L196.27 70.9162M197.736 66.4037C192.512 64.7082 187.185 63.4382 181.81 62.5907M181.068 67.2764C186.199 68.0854 191.283 69.2977 196.27 70.9162M181.068 67.2764L181.81 62.5907M181.068 67.2764C175.904 66.4623 170.692 66.0568 165.485 66.0572M196.27 70.9162C209.158 75.0986 221.397 81.9929 232.116 91.6447C273.001 128.457 276.302 191.444 239.489 232.329C202.676 273.213 139.69 276.514 98.805 239.701C57.9202 202.889 54.6193 139.902 91.4321 99.0176C96.1908 93.7325 101.387 89.0755 106.916 85.0519M196.27 70.9162L194.804 75.4287M194.804 75.4287C199.494 76.9508 204.094 78.8502 208.558 81.1291M194.804 75.4287L193.338 79.9412M193.338 79.9412C197.793 81.3873 202.163 83.1917 206.404 85.3567M193.338 79.9412L191.871 84.4537M206.404 85.3567L208.558 81.1291M206.404 85.3567L204.25 89.5842M206.404 85.3567C210.558 87.4778 214.588 89.9451 218.452 92.7607M191.871 84.4537C196.093 85.8237 200.233 87.5332 204.25 89.5842M191.871 84.4537L190.405 88.9662M204.25 89.5842L202.096 93.8118M204.25 89.5842C208.185 91.5938 212.003 93.9312 215.664 96.5986M178.099 86.0192C182.253 86.6742 186.368 87.6558 190.405 88.9662M190.405 88.9662C194.392 90.2601 198.302 91.8747 202.096 93.8118M190.405 88.9662L188.939 93.4787M118.092 72.6523L120.247 76.88M118.092 72.6523C113.263 75.1101 108.592 77.9647 104.127 81.2136M120.247 76.88C115.637 79.226 111.178 81.9508 106.916 85.0519M104.127 81.2136L106.916 85.0519M135.325 106.474C132.252 108.037 129.279 109.853 126.437 111.921M135.325 106.474L137.479 110.701M120.86 104.244L123.648 108.082M120.86 104.244C116.645 107.31 112.685 110.86 109.058 114.888C81.0099 146.038 83.5249 194.028 114.675 222.075C145.825 250.123 193.815 247.608 221.863 216.458C249.911 185.308 247.396 137.318 216.245 109.27C214.258 107.481 212.202 105.816 210.087 104.274M123.648 108.082C119.697 110.957 115.984 114.285 112.583 118.062C86.288 147.265 88.6459 192.255 117.849 218.55C147.053 244.845 192.043 242.487 218.338 213.284C244.633 184.08 242.275 139.09 213.071 112.795C211.208 111.118 209.281 109.557 207.299 108.112M123.648 108.082L126.437 111.921M126.437 111.921C122.749 114.604 119.282 117.71 116.108 121.236C91.5661 148.492 93.7668 190.483 121.023 215.025C148.28 239.567 190.271 237.366 214.813 210.11C239.354 182.853 237.154 140.862 209.897 116.321C208.159 114.755 206.36 113.299 204.51 111.95M126.437 111.921L129.226 115.759M183.074 111.529L184.54 107.016M183.074 111.529C185.888 112.442 188.648 113.582 191.325 114.95M183.074 111.529L181.608 116.041M184.54 107.016C187.589 108.006 190.578 109.241 193.479 110.722M184.54 107.016L187.473 97.9912M181.608 116.041C184.187 116.879 186.717 117.924 189.171 119.177M181.608 116.041L180.142 120.554M181.608 116.041C178.996 115.193 176.333 114.558 173.646 114.133M189.171 119.177L191.325 114.95M189.171 119.177C191.576 120.406 193.908 121.834 196.145 123.464M189.171 119.177L187.017 123.405M191.325 114.95L193.479 110.722M191.325 114.95C193.949 116.29 196.493 117.848 198.933 119.626M198.933 119.626L201.722 115.788M198.933 119.626L196.145 123.464M201.722 115.788C199.078 113.862 196.321 112.174 193.479 110.722M201.722 115.788C203.439 117.04 205.109 118.392 206.723 119.846C232.033 142.635 234.076 181.626 211.287 206.936C188.498 232.245 149.507 234.289 124.197 211.5C98.8877 188.711 96.8443 149.719 119.633 124.41C122.581 121.136 125.8 118.251 129.226 115.759M201.722 115.788L204.51 111.95M193.479 110.722L195.633 106.495M204.51 111.95C201.663 109.876 198.694 108.058 195.633 106.495M204.51 111.95L207.299 108.112M195.633 106.495L197.787 102.267M195.633 106.495C189.346 103.284 182.671 101.149 175.873 100.076M199.941 98.0394C203.44 99.8257 206.833 101.903 210.087 104.274M199.941 98.0394L202.096 93.8118M199.941 98.0394L197.787 102.267M199.941 98.0394C196.371 96.2162 192.691 94.6966 188.939 93.4787M210.087 104.274L212.875 100.437M210.087 104.274L207.299 108.112M212.875 100.437C209.418 97.9173 205.813 95.7097 202.096 93.8118M212.875 100.437L215.664 96.5986M187.473 97.9912C190.99 99.133 194.44 100.558 197.787 102.267M187.473 97.9912L188.939 93.4787M197.787 102.267C201.067 103.942 204.248 105.89 207.299 108.112M182.709 131.86C184.457 132.753 186.153 133.792 187.78 134.978M182.709 131.86L184.863 127.632M182.709 131.86C180.924 130.948 179.085 130.188 177.209 129.579M187.78 134.978L190.568 131.14M190.568 131.14C188.738 129.806 186.83 128.637 184.863 127.632M190.568 131.14L196.145 123.464M184.863 127.632C182.855 126.607 180.786 125.752 178.676 125.066M184.863 127.632L187.017 123.405M178.676 125.066L177.209 129.579M178.676 125.066L180.142 120.554M178.676 125.066C176.539 124.372 174.36 123.852 172.162 123.505M177.209 129.579C175.31 128.962 173.374 128.499 171.42 128.19M165.485 132.467C167.22 132.468 168.957 132.604 170.678 132.876M165.485 132.467L165.485 127.724M165.485 132.467C163.746 132.466 162.009 132.601 160.291 132.871M165.485 132.467L165.485 137.211M170.678 132.876L171.42 128.19M170.678 132.876C176.803 133.845 182.727 136.538 187.679 140.996C201.307 153.267 202.407 174.263 190.136 187.891C177.865 201.519 156.87 202.62 143.242 190.349C129.613 178.078 128.513 157.082 140.784 143.454C143.597 140.33 146.868 137.864 150.404 136.067M171.42 128.19C169.453 127.879 167.468 127.724 165.485 127.724M171.42 128.19L172.162 123.505M165.485 127.724C163.498 127.723 161.513 127.877 159.549 128.186M165.485 127.724L165.485 122.98M159.549 128.186L160.291 132.871M159.549 128.186C157.59 128.494 155.653 128.954 153.756 129.567M159.549 128.186L158.806 123.501M160.291 132.871L161.033 137.557M160.291 132.871C158.577 133.14 156.882 133.543 155.222 134.079M156.688 138.592C158.111 138.132 159.564 137.787 161.033 137.557M156.688 138.592L155.222 134.079M156.688 138.592C152.077 140.08 147.785 142.768 144.309 146.628C133.791 158.309 134.734 176.305 146.416 186.823C158.097 197.341 176.093 196.398 186.611 184.717C197.129 173.036 196.186 155.039 184.504 144.521C179.069 139.627 172.265 137.214 165.485 137.211M161.033 137.557C162.506 137.325 163.995 137.21 165.485 137.211M155.222 134.079C153.576 134.611 151.964 135.274 150.404 136.067M155.222 134.079L153.756 129.567M152.29 125.055L153.756 129.567M152.29 125.055C154.424 124.366 156.603 123.847 158.806 123.501M158.064 118.815L157.322 114.13M158.064 118.815C160.52 118.429 163.001 118.236 165.485 118.236M158.064 118.815L158.806 123.501M157.322 114.13C160.023 113.705 162.753 113.493 165.485 113.493M165.485 113.493L165.485 118.236M165.485 113.493C168.212 113.493 170.942 113.706 173.646 114.133M137.479 110.701C134.625 112.153 131.864 113.84 129.226 115.759M165.485 118.236L165.485 122.98M165.485 118.236C167.964 118.237 170.445 118.431 172.904 118.819M165.485 122.98C163.25 122.98 161.016 123.153 158.806 123.501M165.485 122.98C167.716 122.981 169.949 123.155 172.162 123.505M180.142 120.554C177.768 119.783 175.347 119.205 172.904 118.819M180.142 120.554C182.486 121.315 184.786 122.265 187.017 123.405M172.904 118.819L172.162 123.505M172.904 118.819L173.646 114.133M218.452 92.7607L215.664 96.5986M253.59 245.025C209.765 293.697 134.781 297.627 86.1088 253.802C37.4365 209.978 33.5068 134.994 77.3315 86.3215C121.156 37.6492 196.14 33.7195 244.812 77.5442C293.485 121.369 297.414 196.353 253.59 245.025ZM183.086 181.543C174.321 191.277 159.324 192.063 149.59 183.298C139.855 174.533 139.069 159.537 147.834 149.802C156.599 140.068 171.596 139.282 181.33 148.047C191.065 156.812 191.851 171.808 183.086 181.543Z" stroke="#525252" stroke-width="0.2"/>
<circle cx="165.68" cy="165.674" r="118.339" transform="rotate(-30 165.68 165.674)" stroke="black" stroke-width="0.5"/>
<path d="M107.038 146.594C108.034 143.529 109.27 140.539 110.737 137.654L106.51 135.501C104.93 138.607 103.599 141.827 102.526 145.129L107.038 146.594Z" fill="#1D84C1"/>
<path d="M108.112 123.824C105.912 126.854 103.966 130.04 102.283 133.347L106.51 135.501C108.081 132.414 109.897 129.441 111.951 126.613L108.112 123.824Z" fill="#1D84C1"/>
<path d="M98.0564 131.193L102.283 133.347C103.966 130.04 105.912 126.854 108.112 123.824L104.274 121.035C101.927 124.267 99.8508 127.666 98.0564 131.193Z" fill="#1D84C1"/>
<path d="M93.5034 142.197C94.7294 138.424 96.2504 134.743 98.0564 131.193L93.8294 129.039C91.9106 132.811 90.2945 136.722 88.992 140.731L93.5034 142.197Z" fill="#1D84C1"/>
<path d="M98.0148 143.663L93.5034 142.197C92.2755 145.976 91.3435 149.848 90.7177 153.775L95.403 154.517C95.9898 150.836 96.8635 147.206 98.0148 143.663Z" fill="#1D84C1"/>
<path d="M95.403 154.517L100.088 155.26C100.636 151.823 101.452 148.435 102.526 145.129L98.0148 143.663C96.8635 147.206 95.9898 150.836 95.403 154.517Z" fill="#1D84C1"/>
<path d="M100.435 118.246C97.9413 121.68 95.7359 125.291 93.8294 129.039L98.0564 131.193C99.8508 127.666 101.927 124.267 104.274 121.035L100.435 118.246Z" fill="#1D84C1"/>
<path d="M96.5964 115.457C93.9561 119.094 91.621 122.917 89.6024 126.885L93.8294 129.039C95.7359 125.291 97.9413 121.68 100.435 118.246L96.5964 115.457Z" fill="#1D84C1"/>
<path d="M101.946 101.915C98.5766 105.279 95.5101 108.877 92.7578 112.668L96.5964 115.457C99.2038 111.866 102.109 108.457 105.301 105.27L101.946 101.915Z" fill="#1D84C1"/>
<path d="M104.774 156.002C105.282 152.811 106.04 149.665 107.038 146.594L102.526 145.129C101.452 148.435 100.636 151.823 100.088 155.26L104.774 156.002Z" fill="#1D84C1"/>
<path d="M111.549 148.06L107.038 146.594C106.04 149.665 105.282 152.811 104.774 156.002L109.459 156.744C109.929 153.798 110.628 150.895 111.549 148.06Z" fill="#1D84C1"/>
<path d="M109.459 156.744L104.774 156.002C104.266 159.183 104.007 162.409 104.002 165.648H108.746C108.751 162.658 108.991 159.68 109.459 156.744Z" fill="#1D84C1"/>
<path d="M104.002 165.648H99.2578C99.2533 169.108 99.5194 172.583 100.065 176.04L104.751 175.298C104.245 172.088 103.998 168.861 104.002 165.648Z" fill="#1D84C1"/>
<path d="M99.2578 165.648H94.5135C94.5087 169.355 94.794 173.078 95.3785 176.783L100.065 176.04C99.5194 172.583 99.2533 169.108 99.2578 165.648Z" fill="#1D84C1"/>
<path d="M100.065 176.04L95.3785 176.783C95.9543 180.432 96.8207 184.063 97.9864 187.643L102.499 186.177C101.411 182.835 100.602 179.446 100.065 176.04Z" fill="#1D84C1"/>
<path d="M95.3785 176.783L90.6921 177.525C91.3064 181.417 92.2306 185.29 93.4741 189.109L97.9864 187.643C96.8207 184.063 95.9543 180.432 95.3785 176.783Z" fill="#1D84C1"/>
<path d="M86.0057 178.267C86.6585 182.403 87.6406 186.518 88.9619 190.575L93.4741 189.109C92.2306 185.29 91.3064 181.417 90.6921 177.525L86.0057 178.267Z" fill="#1D84C1"/>
<path d="M84.4496 192.041L88.9619 190.575C87.6406 186.518 86.6585 182.403 86.0057 178.267L81.3193 179.009C82.0106 183.388 83.0505 187.746 84.4496 192.041Z" fill="#1D84C1"/>
<path d="M76.6329 179.752C77.3627 184.374 78.4604 188.973 79.9373 193.507L84.4496 192.041C83.0505 187.746 82.0106 183.388 81.3193 179.009L76.6329 179.752Z" fill="#1D84C1"/>
<path d="M71.9465 180.494C71.1667 175.555 70.786 170.591 70.7919 165.648H66.0476C66.0414 170.838 66.4413 176.05 67.2601 181.236L71.9465 180.494Z" fill="#1D84C1"/>
<path d="M71.9465 180.494L76.6329 179.752C75.8922 175.06 75.5305 170.344 75.5363 165.648H70.7919C70.786 170.591 71.1667 175.555 71.9465 180.494Z" fill="#1D84C1"/>
<path d="M76.6619 151.549L71.9766 150.807C71.197 155.702 70.7979 160.664 70.7919 165.648H75.5363C75.542 160.913 75.9212 156.199 76.6619 151.549Z" fill="#1D84C1"/>
<path d="M67.2913 150.065C66.4729 155.204 66.0539 160.415 66.0476 165.648H70.7919C70.7979 160.664 71.197 155.702 71.9766 150.807L67.2913 150.065Z" fill="#1D84C1"/>
<path d="M81.1483 122.578L85.3754 124.732C87.5061 120.543 89.9708 116.507 92.7578 112.668L88.9193 109.879C85.9856 113.92 83.3912 118.168 81.1483 122.578Z" fill="#1D84C1"/>
<path d="M89.6024 126.885L85.3754 124.732C83.2309 128.948 81.4248 133.318 79.9692 137.799L84.4806 139.265C85.8597 135.02 87.5708 130.879 89.6024 126.885Z" fill="#1D84C1"/>
<path d="M81.3472 152.291C80.6454 156.696 80.2861 161.163 80.2806 165.648H85.0249C85.0302 161.412 85.3696 157.194 86.0325 153.033L81.3472 152.291Z" fill="#1D84C1"/>
<path d="M89.7692 165.648C89.7743 161.661 90.0938 157.691 90.7177 153.775L86.0325 153.033C85.3696 157.194 85.0302 161.412 85.0249 165.648H89.7692Z" fill="#1D84C1"/>
<path d="M79.9692 137.799C78.5112 142.287 77.4048 146.886 76.6619 151.549L81.3472 152.291C82.051 147.873 83.0993 143.517 84.4806 139.265L79.9692 137.799Z" fill="#1D84C1"/>
<path d="M79.9692 137.799L75.4578 136.334C73.9231 141.058 72.7585 145.898 71.9766 150.807L76.6619 151.549C77.4048 146.886 78.5112 142.287 79.9692 137.799Z" fill="#1D84C1"/>
<path d="M71.9766 150.807C72.7585 145.898 73.9231 141.058 75.4578 136.334L70.9463 134.868C69.335 139.828 68.1123 144.911 67.2913 150.065L71.9766 150.807Z" fill="#1D84C1"/>
<path d="M61.9235 131.936C60.1589 137.369 58.8198 142.935 57.9208 148.581L62.606 149.323C63.466 143.923 64.747 138.598 66.4349 133.402L61.9235 131.936Z" fill="#1D84C1"/>
<path d="M66.4349 133.402C64.747 138.598 63.466 143.923 62.606 149.323L67.2913 150.065C68.1123 144.911 69.335 139.828 70.9463 134.868L66.4349 133.402Z" fill="#1D84C1"/>
<path d="M85.3754 124.732L89.6024 126.885C91.621 122.917 93.9561 119.094 96.5964 115.457L92.7578 112.668C89.9708 116.507 87.5061 120.543 85.3754 124.732Z" fill="#1D84C1"/>
<path d="M90.7177 153.775C91.3435 149.848 92.2755 145.976 93.5034 142.197L88.992 140.731C87.6874 144.746 86.6973 148.861 86.0325 153.033L90.7177 153.775Z" fill="#1D84C1"/>
<path d="M76.9213 120.424L72.6943 118.27C70.2114 123.152 68.1203 128.213 66.4349 133.402L70.9463 134.868C72.5551 129.915 74.5512 125.084 76.9213 120.424Z" fill="#1D84C1"/>
<path d="M85.0807 107.091C82.0004 111.333 79.2763 115.794 76.9213 120.424L81.1483 122.578C83.3912 118.168 85.9856 113.92 88.9193 109.879L85.0807 107.091Z" fill="#1D84C1"/>
<path d="M95.2359 95.2051C91.5119 98.9231 88.1226 102.901 85.0807 107.091L88.9193 109.879C91.8164 105.889 95.0442 102.101 98.5909 98.5602L95.2359 95.2051Z" fill="#1D84C1"/>
<path d="M91.8808 91.8501C87.9795 95.7452 84.4289 99.9121 81.2421 104.302L85.0807 107.091C88.1226 102.901 91.5119 98.9231 95.2359 95.2051L91.8808 91.8501Z" fill="#1D84C1"/>
<path d="M98.5909 98.5602C102.066 95.091 105.847 91.859 109.922 88.9064L107.134 85.0684C102.854 88.1688 98.8845 91.5624 95.2359 95.2051L98.5909 98.5602Z" fill="#1D84C1"/>
<path d="M115.366 115.335C112.706 117.991 110.285 120.831 108.112 123.824L111.951 126.613C113.979 123.82 116.238 121.169 118.721 118.69L115.366 115.335Z" fill="#1D84C1"/>
<path d="M115.789 129.402C117.672 126.808 119.771 124.346 122.076 122.045L118.721 118.69C116.238 121.169 113.979 123.82 111.951 126.613L115.789 129.402Z" fill="#1D84C1"/>
<path d="M118.721 118.69C121.153 116.262 123.8 114 126.653 111.934L123.864 108.096C120.808 110.31 117.972 112.734 115.366 115.335L118.721 118.69Z" fill="#1D84C1"/>
<path d="M80.2806 165.648C80.2861 161.163 80.6454 156.696 81.3472 152.291L76.6619 151.549C75.9212 156.199 75.542 160.913 75.5363 165.648H80.2806Z" fill="#1D84C1"/>
<path d="M94.5135 165.648C94.5184 161.91 94.818 158.188 95.403 154.517L90.7177 153.775C90.0938 157.691 89.7743 161.661 89.7692 165.648H94.5135Z" fill="#1D84C1"/>
<path d="M95.403 154.517C94.818 158.188 94.5184 161.91 94.5135 165.648H99.2578C99.2625 162.159 99.5422 158.686 100.088 155.26L95.403 154.517Z" fill="#1D84C1"/>
<path d="M100.088 155.26C99.5422 158.686 99.2625 162.159 99.2578 165.648H104.002C104.007 162.409 104.266 159.183 104.774 156.002L100.088 155.26Z" fill="#1D84C1"/>
<path d="M94.5135 165.648H89.7692C89.7642 169.603 90.0685 173.574 90.6921 177.525L95.3785 176.783C94.794 173.078 94.5087 169.355 94.5135 165.648Z" fill="#1D84C1"/>
<path d="M80.2806 165.648C80.2751 170.097 80.6176 174.564 81.3193 179.009L86.0057 178.267C85.3431 174.069 85.0196 169.85 85.0249 165.648H80.2806Z" fill="#1D84C1"/>
<path d="M90.6921 177.525C90.0685 173.574 89.7642 169.603 89.7692 165.648H85.0249C85.0196 169.85 85.3431 174.069 86.0057 178.267L90.6921 177.525Z" fill="#1D84C1"/>
<path d="M80.2806 165.648H75.5363C75.5305 170.344 75.8922 175.06 76.6329 179.752L81.3193 179.009C80.6176 174.564 80.2751 170.097 80.2806 165.648Z" fill="#1D84C1"/>
<path d="M100.065 176.04C100.602 179.446 101.411 182.835 102.499 186.177L107.011 184.71C106.001 181.608 105.25 178.461 104.751 175.298L100.065 176.04Z" fill="#1D84C1"/>
<path d="M111.523 183.244C110.591 180.38 109.898 177.475 109.438 174.556L104.751 175.298C105.25 178.461 106.001 181.608 107.011 184.71L111.523 183.244Z" fill="#1D84C1"/>
<path d="M95.2166 236.105C91.5409 232.434 88.1403 228.465 85.0569 224.224L81.2184 227.013C84.4486 231.456 88.0113 235.614 91.862 239.459L95.2166 236.105Z" fill="#784145"/>
<path d="M98.5712 232.75C95.0706 229.255 91.8319 225.474 88.8955 221.436L85.0569 224.224C88.1403 228.465 91.5409 232.434 95.2166 236.105L98.5712 232.75Z" fill="#784145"/>
<path d="M92.7341 218.647C89.9793 214.858 87.5045 210.829 85.3465 206.585L81.119 208.74C83.3905 213.207 85.9956 217.447 88.8955 221.436L92.7341 218.647Z" fill="#784145"/>
<path d="M96.5726 215.858C93.9629 212.268 91.6184 208.452 89.5741 204.431L85.3465 206.585C87.5045 210.829 89.9793 214.858 92.7341 218.647L96.5726 215.858Z" fill="#784145"/>
<path d="M105.28 226.041L108.635 222.687C105.66 219.715 102.907 216.502 100.411 213.069L96.5726 215.858C99.2153 219.493 102.13 222.895 105.28 226.041Z" fill="#784145"/>
<path d="M121.048 227.063C117.838 224.731 114.808 222.147 111.989 219.332L108.635 222.687C111.629 225.677 114.849 228.422 118.26 230.9L121.048 227.063Z" fill="#784145"/>
<path d="M123.836 223.225L121.048 227.063C124.263 229.398 127.657 231.481 131.199 233.29L133.352 229.063C130.032 227.367 126.85 225.415 123.836 223.225Z" fill="#784145"/>
<path d="M131.199 233.29C127.657 231.481 124.263 229.398 121.048 227.063L118.26 230.9C121.675 233.382 125.282 235.595 129.045 237.516L131.199 233.29Z" fill="#784145"/>
<path d="M112.683 238.575C116.501 241.349 120.532 243.822 124.738 245.97L126.892 241.743C122.907 239.708 119.088 237.365 115.471 234.738L112.683 238.575Z" fill="#784145"/>
<path d="M116.124 262.876C111.032 260.277 106.152 257.283 101.53 253.926L98.7422 257.764C103.565 261.267 108.657 264.39 113.97 267.103L116.124 262.876Z" fill="#784145"/>
<path d="M118.277 258.65L116.124 262.876C121.2 265.468 126.486 267.668 131.935 269.446L133.401 264.933C128.189 263.233 123.133 261.129 118.277 258.65Z" fill="#784145"/>
<path d="M134.867 260.421L133.401 264.933C138.57 266.62 143.893 267.909 149.324 268.771L150.067 264.085C144.882 263.261 139.801 262.031 134.867 260.421Z" fill="#784145"/>
<path d="M165.655 270.054L165.655 265.309C160.384 265.313 155.175 264.897 150.067 264.085L149.324 268.771C154.676 269.622 160.133 270.058 165.655 270.054Z" fill="#784145"/>
<path d="M150.809 259.399C155.674 260.172 160.635 260.569 165.655 260.565L165.655 255.82C160.886 255.824 156.173 255.447 151.551 254.712L150.809 259.399Z" fill="#784145"/>
<path d="M139.265 246.885L137.799 251.397C142.263 252.854 146.86 253.967 151.551 254.712L152.293 250.026C147.849 249.32 143.495 248.265 139.265 246.885Z" fill="#784145"/>
<path d="M150.809 259.399L151.551 254.712C146.86 253.967 142.263 252.854 137.799 251.397L136.333 255.909C141.032 257.442 145.871 258.614 150.809 259.399Z" fill="#784145"/>
<path d="M145.129 228.837L143.663 233.349C147.188 234.499 150.817 235.378 154.52 235.967L155.262 231.28C151.806 230.731 148.419 229.91 145.129 228.837Z" fill="#784145"/>
<path d="M154.52 235.967L153.778 240.653C157.67 241.272 161.639 241.59 165.655 241.587L165.655 236.842C161.89 236.845 158.169 236.547 154.52 235.967Z" fill="#784145"/>
<path d="M155.262 231.28L154.52 235.967C158.169 236.547 161.89 236.845 165.655 236.842L165.655 232.098C162.141 232.1 158.668 231.822 155.262 231.28Z" fill="#784145"/>
<path d="M122.053 209.268C124.343 211.555 126.805 213.655 129.412 215.55L132.201 211.712C129.794 209.963 127.521 208.025 125.408 205.914L122.053 209.268Z" fill="#784145"/>
<path d="M122.053 209.268L125.408 205.914C123.308 203.816 121.365 201.548 119.604 199.125L115.765 201.913C117.674 204.539 119.778 206.996 122.053 209.268Z" fill="#784145"/>
<path d="M123.443 196.336C121.848 194.142 120.416 191.81 119.167 189.353L114.94 191.507C116.302 194.187 117.865 196.732 119.604 199.125L123.443 196.336Z" fill="#784145"/>
<path d="M111.533 183.252L107.022 184.718C108.028 187.83 109.266 190.816 110.712 193.661L114.94 191.507C113.605 188.881 112.462 186.125 111.533 183.252Z" fill="#784145"/>
<path d="M102.51 186.184C103.594 189.535 104.927 192.751 106.484 195.815L110.712 193.661C109.266 190.816 108.028 187.83 107.022 184.718L102.51 186.184Z" fill="#784145"/>
<path d="M98.0293 200.123C96.2491 196.622 94.725 192.946 93.4863 189.116L88.9745 190.582C90.2907 194.652 91.9101 198.557 93.8017 202.277L98.0293 200.123Z" fill="#784145"/>
<path d="M108.088 207.491C105.914 204.5 103.96 201.32 102.257 197.969L98.0293 200.123C99.8463 203.697 101.93 207.089 104.25 210.28L108.088 207.491Z" fill="#784145"/>
<path d="M98.0293 200.123L93.8017 202.277C95.7323 206.074 97.9465 209.679 100.411 213.069L104.25 210.28C101.93 207.089 99.8463 203.697 98.0293 200.123Z" fill="#784145"/>
<path d="M131.85 182.891C130.961 181.14 130.199 179.303 129.58 177.388L125.069 178.854C125.765 181.008 126.622 183.076 127.622 185.045L131.85 182.891Z" fill="#784145"/>
<path d="M131.12 190.758L134.958 187.969C133.799 186.374 132.758 184.678 131.85 182.891L127.622 185.045C128.644 187.055 129.815 188.963 131.12 190.758Z" fill="#784145"/>
<path d="M146.142 192.524C144.738 191.503 143.413 190.372 142.181 189.141L138.826 192.495C140.235 193.903 141.749 195.195 143.353 196.361L146.142 192.524Z" fill="#784145"/>
<path d="M148.428 199.477L150.581 195.25C149.032 194.458 147.548 193.546 146.142 192.524L143.353 196.361C144.96 197.53 146.657 198.572 148.428 199.477Z" fill="#784145"/>
<path d="M156.858 192.74C155.437 192.275 154.058 191.7 152.735 191.023L150.581 195.25C152.126 196.039 153.734 196.71 155.392 197.252L156.858 192.74Z" fill="#784145"/>
<path d="M158.974 207.848C161.163 208.197 163.396 208.376 165.655 208.375L165.655 203.631C163.647 203.632 161.662 203.472 159.716 203.162L158.974 207.848Z" fill="#784145"/>
<path d="M150.994 210.788C153.343 211.555 155.763 212.142 158.231 212.535L158.974 207.848C156.752 207.495 154.574 206.967 152.46 206.276L150.994 210.788Z" fill="#784145"/>
<path d="M81.119 208.74L85.3465 206.585C83.2323 202.427 81.4222 198.063 79.951 193.513L75.4393 194.979C76.988 199.768 78.8934 204.363 81.119 208.74Z" fill="#784145"/>
<path d="M85.3465 206.585L89.5741 204.431C87.5712 200.492 85.8565 196.357 84.4628 192.048L79.951 193.513C81.4222 198.063 83.2323 202.427 85.3465 206.585Z" fill="#784145"/>
<path d="M93.8017 202.277C91.9101 198.557 90.2907 194.652 88.9745 190.582L84.4628 192.048C85.8565 196.357 87.5712 200.492 89.5741 204.431L93.8017 202.277Z" fill="#784145"/>
<path d="M89.5741 204.431C91.6184 208.452 93.9629 212.268 96.5726 215.858L100.411 213.069C97.9465 209.679 95.7323 206.074 93.8017 202.277L89.5741 204.431Z" fill="#784145"/>
<path d="M101.926 229.396L105.28 226.041C102.13 222.895 99.2153 219.493 96.5726 215.858L92.7341 218.647C95.5236 222.484 98.6003 226.075 101.926 229.396Z" fill="#784145"/>
<path d="M105.28 226.041C108.451 229.207 111.86 232.114 115.471 234.738L118.26 230.9C114.849 228.422 111.629 225.677 108.635 222.687L105.28 226.041Z" fill="#784145"/>
<path d="M115.471 234.738C119.088 237.365 122.907 239.708 126.892 241.743L129.045 237.516C125.282 235.595 121.675 233.382 118.26 230.9L115.471 234.738Z" fill="#784145"/>
<path d="M111.989 219.332C114.808 222.147 117.838 224.731 121.048 227.063L123.836 223.225C120.827 221.039 117.986 218.616 115.344 215.977L111.989 219.332Z" fill="#784145"/>
<path d="M100.411 213.069C102.907 216.502 105.66 219.715 108.635 222.687L111.989 219.332C109.189 216.535 106.599 213.511 104.25 210.28L100.411 213.069Z" fill="#784145"/>
<path d="M143.663 233.349C140.11 232.189 136.663 230.754 133.352 229.063L131.199 233.29C134.73 235.093 138.407 236.624 142.197 237.861L143.663 233.349Z" fill="#784145"/>
<path d="M143.663 233.349L142.197 237.861C145.957 239.088 149.828 240.025 153.778 240.653L154.52 235.967C150.817 235.378 147.188 234.499 143.663 233.349Z" fill="#784145"/>
<path d="M153.778 240.653C149.828 240.025 145.957 239.088 142.197 237.861L140.731 242.373C144.726 243.676 148.838 244.672 153.036 245.34L153.778 240.653Z" fill="#784145"/>
<path d="M139.265 246.885C143.495 248.265 147.849 249.32 152.293 250.026L153.036 245.34C148.838 244.672 144.726 243.676 140.731 242.373L139.265 246.885Z" fill="#784145"/>
<path d="M151.551 254.712C156.173 255.447 160.886 255.824 165.655 255.82L165.655 251.076C161.137 251.079 156.672 250.722 152.293 250.026L151.551 254.712Z" fill="#784145"/>
<path d="M98.5712 232.75L101.926 229.396C98.6003 226.075 95.5236 222.484 92.7341 218.647L88.8955 221.436C91.8319 225.474 95.0706 229.255 98.5712 232.75Z" fill="#784145"/>
<path d="M81.2184 227.013L77.3798 229.802C80.7569 234.447 84.4816 238.794 88.5074 242.814L91.862 239.459C88.0113 235.614 84.4486 231.456 81.2184 227.013Z" fill="#784145"/>
<path d="M115.765 201.913L119.604 199.125C117.865 196.732 116.302 194.187 114.94 191.507L110.712 193.661C112.188 196.565 113.881 199.321 115.765 201.913Z" fill="#784145"/>
<path d="M115.765 201.913C113.881 199.321 112.188 196.565 110.712 193.661L106.484 195.815C108.074 198.942 109.897 201.91 111.927 204.702L115.765 201.913Z" fill="#784145"/>
<path d="M102.257 197.969C103.96 201.32 105.914 204.5 108.088 207.491L111.927 204.702C109.897 201.91 108.074 198.942 106.484 195.815L102.257 197.969Z" fill="#784145"/>
<path d="M142.197 237.861C138.407 236.624 134.73 235.093 131.199 233.29L129.045 237.516C132.797 239.432 136.704 241.059 140.731 242.373L142.197 237.861Z" fill="#784145"/>
<path d="M126.892 241.743C130.864 243.772 135.001 245.494 139.265 246.885L140.731 242.373C136.704 241.059 132.797 239.432 129.045 237.516L126.892 241.743Z" fill="#784145"/>
<path d="M165.666 274.784L165.666 279.528C171.705 279.536 177.656 279.065 183.476 278.148L182.734 273.462C177.156 274.341 171.453 274.792 165.666 274.784Z" fill="#E27A21"/>
<path d="M181.992 268.776C176.656 269.616 171.202 270.048 165.666 270.04L165.666 274.784C171.453 274.792 177.156 274.341 182.734 273.462L181.992 268.776Z" fill="#E27A21"/>
<path d="M199.384 269.468L197.917 264.955C192.759 266.633 187.437 267.918 181.992 268.776L182.734 273.462C188.427 272.565 193.991 271.222 199.384 269.468Z" fill="#E27A21"/>
<path d="M193.519 251.418C189.064 252.867 184.468 253.976 179.765 254.717L180.507 259.403C185.458 258.623 190.296 257.456 194.985 255.93L193.519 251.418Z" fill="#E27A21"/>
<path d="M192.053 246.905C187.832 248.278 183.478 249.329 179.023 250.03L179.765 254.717C184.468 253.976 189.064 252.867 193.519 251.418L192.053 246.905Z" fill="#E27A21"/>
<path d="M204.428 241.771L202.275 237.544C198.529 239.455 194.623 241.08 190.586 242.393L192.053 246.905C196.326 245.515 200.463 243.795 204.428 241.771Z" fill="#E27A21"/>
<path d="M210.272 227.09C207.062 229.423 203.669 231.506 200.121 233.317L202.275 237.544C206.044 235.62 209.65 233.406 213.06 230.928L210.272 227.09Z" fill="#E27A21"/>
<path d="M207.484 223.253L210.272 227.09C213.487 224.755 216.517 222.17 219.332 219.361L215.977 216.006C213.339 218.64 210.498 221.063 207.484 223.253Z" fill="#E27A21"/>
<path d="M219.332 219.361C216.517 222.17 213.487 224.755 210.272 227.09L213.06 230.928C216.476 228.446 219.695 225.7 222.686 222.715L219.332 219.361Z" fill="#E27A21"/>
<path d="M218.637 238.603C222.454 235.83 226.052 232.76 229.394 229.424L226.04 226.069C222.874 229.23 219.465 232.138 215.849 234.766L218.637 238.603Z" fill="#E27A21"/>
<path d="M227.001 250.116C231.422 246.904 235.588 243.35 239.457 239.486L236.103 236.132C232.409 239.82 228.432 243.213 224.213 246.279L227.001 250.116Z" fill="#E27A21"/>
<path d="M242.812 242.841C238.766 246.88 234.411 250.596 229.79 253.954L232.578 257.792C237.4 254.287 241.944 250.409 246.166 246.195L242.812 242.841Z" fill="#E27A21"/>
<path d="M239.457 239.486L242.812 242.841C246.845 238.814 250.571 234.466 253.945 229.833L250.107 227.045C246.879 231.476 243.316 235.635 239.457 239.486Z" fill="#E27A21"/>
<path d="M246.269 224.256C243.188 228.486 239.786 232.455 236.103 236.132L239.457 239.486C243.316 235.635 246.879 231.476 250.107 227.045L246.269 224.256Z" fill="#E27A21"/>
<path d="M246.269 224.256L250.107 227.045C253.308 222.65 256.179 217.986 258.678 213.087L254.45 210.933C252.065 215.609 249.324 220.061 246.269 224.256Z" fill="#E27A21"/>
<path d="M264.944 197.952L260.431 196.486C258.807 201.5 256.8 206.325 254.45 210.933L258.678 213.087C261.14 208.26 263.241 203.204 264.944 197.952Z" fill="#E27A21"/>
<path d="M250.222 208.778C252.461 204.391 254.372 199.795 255.919 195.02L251.407 193.554C249.937 198.09 248.121 202.456 245.995 206.624L250.222 208.778Z" fill="#E27A21"/>
<path d="M234.754 215.89L238.592 218.679C241.357 214.883 243.836 210.855 245.995 206.624L241.767 204.47C239.722 208.479 237.373 212.294 234.754 215.89Z" fill="#E27A21"/>
<path d="M250.222 208.778L245.995 206.624C243.836 210.855 241.357 214.883 238.592 218.679L242.43 221.468C245.341 217.472 247.95 213.232 250.222 208.778Z" fill="#E27A21"/>
<path d="M236.103 236.132C239.786 232.455 243.188 228.486 246.269 224.256L242.43 221.468C239.496 225.496 236.256 229.276 232.749 232.778L236.103 236.132Z" fill="#E27A21"/>
<path d="M205.914 205.943L209.269 209.298C211.549 207.022 213.655 204.565 215.563 201.947L211.725 199.158C209.964 201.575 208.019 203.843 205.914 205.943Z" fill="#E27A21"/>
<path d="M219.401 204.736L223.239 207.524C225.422 204.528 227.38 201.348 229.084 198.008L224.857 195.854C223.266 198.971 221.439 201.939 219.401 204.736Z" fill="#E27A21"/>
<path d="M229.084 198.008L233.312 200.162C235.103 196.652 236.632 192.975 237.87 189.155L233.358 187.689C232.197 191.27 230.763 194.717 229.084 198.008Z" fill="#E27A21"/>
<path d="M224.857 195.854L229.084 198.008C230.763 194.717 232.197 191.27 233.358 187.689L228.845 186.223C227.762 189.565 226.424 192.782 224.857 195.854Z" fill="#E27A21"/>
<path d="M193.66 220.636C196.542 219.165 199.3 217.472 201.908 215.578L199.119 211.74C196.712 213.489 194.167 215.051 191.506 216.409L193.66 220.636Z" fill="#E27A21"/>
<path d="M193.66 220.636L191.506 216.409C188.862 217.757 186.104 218.904 183.255 219.83L184.722 224.343C187.808 223.339 190.795 222.097 193.66 220.636Z" fill="#E27A21"/>
<path d="M181.789 215.318C179.21 216.156 176.55 216.798 173.827 217.226L174.569 221.913C177.54 221.445 180.442 220.745 183.255 219.83L181.789 215.318Z" fill="#E27A21"/>
<path d="M165.666 222.601L165.666 227.345C168.937 227.35 172.159 227.095 175.312 226.599L174.569 221.913C171.66 222.371 168.685 222.606 165.666 222.601Z" fill="#E27A21"/>
<path d="M165.666 232.089C169.188 232.094 172.659 231.82 176.054 231.285L175.312 226.599C172.159 227.095 168.937 227.35 165.666 227.345L165.666 232.089Z" fill="#E27A21"/>
<path d="M177.538 240.658C173.658 241.269 169.692 241.583 165.666 241.577L165.666 246.321C169.943 246.327 174.158 245.993 178.281 245.344L177.538 240.658Z" fill="#E27A21"/>
<path d="M187.654 233.368C184.137 234.512 180.509 235.387 176.796 235.971L177.538 240.658C181.499 240.034 185.369 239.1 189.12 237.88L187.654 233.368Z" fill="#E27A21"/>
<path d="M177.538 240.658L178.281 245.344C182.488 244.681 186.601 243.689 190.586 242.393L189.12 237.88C185.369 239.1 181.499 240.034 177.538 240.658Z" fill="#E27A21"/>
<path d="M171.6 203.167C169.661 203.472 167.678 203.629 165.666 203.625L165.666 208.369C167.93 208.373 170.161 208.197 172.343 207.854L171.6 203.167Z" fill="#E27A21"/>
<path d="M178.857 206.293L177.391 201.78C175.515 202.39 173.58 202.856 171.6 203.167L172.343 207.854C174.57 207.503 176.747 206.979 178.857 206.293Z" fill="#E27A21"/>
<path d="M185.178 192.552C183.774 193.571 182.289 194.482 180.737 195.273L182.891 199.5C184.665 198.596 186.362 197.555 187.967 196.389L185.178 192.552Z" fill="#E27A21"/>
<path d="M192.497 192.526L189.143 189.172C187.911 190.4 186.585 191.531 185.178 192.552L187.967 196.389C189.574 195.222 191.09 193.93 192.497 192.526Z" fill="#E27A21"/>
<path d="M188.695 182.427C187.814 183.634 186.842 184.768 185.789 185.818L189.143 189.172C190.371 187.947 191.506 186.625 192.533 185.215L188.695 182.427Z" fill="#E27A21"/>
<path d="M203.718 185.083C204.726 183.109 205.587 181.041 206.284 178.892L201.772 177.426C201.152 179.336 200.387 181.174 199.491 182.929L203.718 185.083Z" fill="#E27A21"/>
<path d="M204.048 193.581C205.504 191.584 206.809 189.464 207.946 187.238L203.718 185.083C202.695 187.087 201.52 188.995 200.21 190.792L204.048 193.581Z" fill="#E27A21"/>
<path d="M207.886 196.37L204.048 193.581C202.58 195.595 200.96 197.485 199.206 199.235L202.56 202.589C204.49 200.664 206.272 198.585 207.886 196.37Z" fill="#E27A21"/>
<path d="M205.914 205.943C208.019 203.843 209.964 201.575 211.725 199.158L207.886 196.37C206.272 198.585 204.49 200.664 202.56 202.589L205.914 205.943Z" fill="#E27A21"/>
<path d="M199.119 211.74C201.531 209.989 203.803 208.05 205.914 205.943L202.56 202.589C200.625 204.52 198.542 206.297 196.331 207.902L199.119 211.74Z" fill="#E27A21"/>
<path d="M176.054 231.285C172.659 231.82 169.188 232.094 165.666 232.089L165.666 236.833C169.44 236.838 173.159 236.544 176.796 235.971L176.054 231.285Z" fill="#E27A21"/>
<path d="M165.666 241.577C169.692 241.583 173.658 241.269 177.538 240.658L176.796 235.971C173.159 236.544 169.44 236.838 165.666 236.833L165.666 241.577Z" fill="#E27A21"/>
<path d="M200.121 233.317L197.967 229.09C194.662 230.776 191.215 232.21 187.654 233.368L189.12 237.88C192.919 236.645 196.596 235.116 200.121 233.317Z" fill="#E27A21"/>
<path d="M197.967 229.09L195.813 224.863C192.729 226.436 189.512 227.774 186.188 228.855L187.654 233.368C191.215 232.21 194.662 230.776 197.967 229.09Z" fill="#E27A21"/>
<path d="M201.908 215.578C199.3 217.472 196.542 219.165 193.66 220.636L195.813 224.863C198.918 223.279 201.887 221.456 204.696 219.415L201.908 215.578Z" fill="#E27A21"/>
<path d="M199.119 211.74L201.908 215.578C204.52 213.68 206.982 211.58 209.269 209.298L205.914 205.943C203.803 208.05 201.531 209.989 199.119 211.74Z" fill="#E27A21"/>
<path d="M207.886 196.37C209.488 194.173 210.923 191.841 212.174 189.392L207.946 187.238C206.809 189.464 205.504 191.584 204.048 193.581L207.886 196.37Z" fill="#E27A21"/>
<path d="M209.269 209.298C206.982 211.58 204.52 213.68 201.908 215.578L204.696 219.415C207.509 217.372 210.16 215.11 212.623 212.652L209.269 209.298Z" fill="#E27A21"/>
<path d="M197.967 229.09C201.293 227.392 204.475 225.439 207.484 223.253L204.696 219.415C201.887 221.456 198.918 223.279 195.813 224.863L197.967 229.09Z" fill="#E27A21"/>
<path d="M190.586 242.393C194.623 241.08 198.529 239.455 202.275 237.544L200.121 233.317C196.596 235.116 192.919 236.645 189.12 237.88L190.586 242.393Z" fill="#E27A21"/>
<path d="M179.023 250.03C183.478 249.329 187.832 248.278 192.053 246.905L190.586 242.393C186.601 243.689 182.488 244.681 178.281 245.344L179.023 250.03Z" fill="#E27A21"/>
<path d="M165.666 251.065C170.195 251.071 174.658 250.718 179.023 250.03L178.281 245.344C174.158 245.993 169.943 246.327 165.666 246.321L165.666 251.065Z" fill="#E27A21"/>
<path d="M165.666 255.809C170.447 255.815 175.157 255.443 179.765 254.717L179.023 250.03C174.658 250.718 170.195 251.071 165.666 251.065L165.666 255.809Z" fill="#E27A21"/>
<path d="M181.25 264.089C186.448 263.27 191.528 262.045 196.451 260.443L194.985 255.93C190.296 257.456 185.458 258.623 180.507 259.403L181.25 264.089Z" fill="#E27A21"/>
<path d="M181.992 268.776C187.437 267.918 192.759 266.633 197.917 264.955L196.451 260.443C191.528 262.045 186.448 263.27 181.25 264.089L181.992 268.776Z" fill="#E27A21"/>
<path d="M204.428 241.771C208.42 239.734 212.238 237.389 215.849 234.766L213.06 230.928C209.65 233.406 206.044 235.62 202.275 237.544L204.428 241.771Z" fill="#E27A21"/>
<path d="M215.849 234.766C219.465 232.138 222.874 229.23 226.04 226.069L222.686 222.715C219.695 225.7 216.476 228.446 213.06 230.928L215.849 234.766Z" fill="#E27A21"/>
<path d="M227.078 210.313C224.73 213.536 222.138 216.56 219.332 219.361L222.686 222.715C225.667 219.739 228.421 216.526 230.916 213.102L227.078 210.313Z" fill="#E27A21"/>
<path d="M233.312 200.162C231.494 203.725 229.406 207.117 227.078 210.313L230.916 213.102C233.39 209.705 235.608 206.102 237.539 202.316L233.312 200.162Z" fill="#E27A21"/>
<path d="M237.539 202.316C239.442 198.586 241.067 194.68 242.382 190.621L237.87 189.155C236.632 192.975 235.103 196.652 233.312 200.162L237.539 202.316Z" fill="#E27A21"/>
<path d="M246.895 192.087L242.382 190.621C241.067 194.68 239.442 198.586 237.539 202.316L241.767 204.47C243.782 200.521 245.502 196.385 246.895 192.087Z" fill="#E27A21"/>
<path d="M234.754 215.89C237.373 212.294 239.722 208.479 241.767 204.47L237.539 202.316C235.608 206.102 233.39 209.705 230.916 213.102L234.754 215.89Z" fill="#E27A21"/>
<path d="M226.04 226.069C229.197 222.918 232.113 219.516 234.754 215.89L230.916 213.102C228.421 216.526 225.667 219.739 222.686 222.715L226.04 226.069Z" fill="#E27A21"/>
<path d="M229.394 229.424L232.749 232.778C236.256 229.276 239.496 225.496 242.43 221.468L238.592 218.679C235.805 222.506 232.727 226.097 229.394 229.424Z" fill="#E27A21"/>
<path d="M234.754 215.89C232.113 219.516 229.197 222.918 226.04 226.069L229.394 229.424C232.727 226.097 235.805 222.506 238.592 218.679L234.754 215.89Z" fill="#E27A21"/>
<path d="M221.913 174.598L217.227 173.856C216.802 176.522 216.164 179.182 215.305 181.813L219.816 183.279C220.754 180.409 221.449 177.507 221.913 174.598Z" fill="#E4554D"/>
<path d="M217.227 173.856L212.54 173.113C212.154 175.537 211.574 177.955 210.793 180.347L215.305 181.813C216.164 179.182 216.802 176.522 217.227 173.856Z" fill="#E4554D"/>
<path d="M217.227 173.856C217.66 171.134 217.872 168.405 217.872 165.693L213.127 165.693C213.128 168.159 212.935 170.639 212.54 173.113L217.227 173.856Z" fill="#E4554D"/>
<path d="M217.872 165.693C217.872 168.405 217.66 171.134 217.227 173.856L221.913 174.598C222.386 171.629 222.617 168.652 222.617 165.693L217.872 165.693Z" fill="#E4554D"/>
<path d="M217.872 165.693C217.872 162.947 217.653 160.219 217.226 157.532L212.541 158.274C212.929 160.716 213.127 163.197 213.127 165.693L217.872 165.693Z" fill="#E4554D"/>
<path d="M222.617 165.693C222.616 162.698 222.378 159.721 221.912 156.79L217.226 157.532C217.653 160.219 217.872 162.947 217.872 165.693L222.617 165.693Z" fill="#E4554D"/>
<path d="M212.541 158.274C212.15 155.816 211.568 153.396 210.802 151.038L206.29 152.503C206.979 154.626 207.504 156.804 207.855 159.016L212.541 158.274Z" fill="#E4554D"/>
<path d="M217.226 157.532C216.797 154.828 216.156 152.166 215.313 149.572L210.802 151.038C211.568 153.396 212.15 155.816 212.541 158.274L217.226 157.532Z" fill="#E4554D"/>
<path d="M199.505 148.467C200.405 150.239 201.166 152.08 201.779 153.969L206.29 152.503C205.6 150.378 204.745 148.307 203.732 146.313L199.505 148.467Z" fill="#E4554D"/>
<path d="M210.802 151.038C210.035 148.676 209.084 146.375 207.958 144.159L203.732 146.313C204.745 148.307 205.6 150.378 206.29 152.503L210.802 151.038Z" fill="#E4554D"/>
<path d="M199.505 148.467L203.732 146.313C202.721 144.325 201.555 142.412 200.239 140.596L196.401 143.384C197.57 144.999 198.607 146.699 199.505 148.467Z" fill="#E4554D"/>
<path d="M195.894 135.495L192.539 138.85C193.952 140.265 195.241 141.783 196.401 143.384L200.239 140.596C198.935 138.794 197.483 137.087 195.894 135.495Z" fill="#E4554D"/>
<path d="M192.539 138.85C191.147 137.455 189.635 136.16 188.01 134.98L185.221 138.818C186.643 139.851 187.966 140.984 189.184 142.205L192.539 138.85Z" fill="#E4554D"/>
<path d="M219.816 183.279L224.328 184.745C225.343 181.635 226.097 178.492 226.599 175.34L221.913 174.598C221.449 177.507 220.754 180.409 219.816 183.279Z" fill="#E4554D"/>
<path d="M227.362 165.693L222.617 165.693C222.617 168.652 222.386 171.629 221.913 174.598L226.599 175.34C227.112 172.123 227.362 168.898 227.362 165.693Z" fill="#E4554D"/>
<path d="M227.362 165.693C227.362 168.898 227.112 172.123 226.599 175.34L231.285 176.082C231.837 172.618 232.107 169.145 232.106 165.693L227.362 165.693Z" fill="#E4554D"/>
<path d="M226.599 175.34C226.097 178.492 225.343 181.635 224.328 184.745L228.84 186.211C229.933 182.862 230.745 179.476 231.285 176.082L226.599 175.34Z" fill="#E4554D"/>
<path d="M226.598 156.047C227.102 159.223 227.361 162.448 227.362 165.693L232.106 165.693C232.105 162.198 231.827 158.725 231.283 155.305L226.598 156.047Z" fill="#E4554D"/>
<path d="M240.655 153.821C240.029 149.887 239.096 146.016 237.87 142.242L233.359 143.708C234.508 147.246 235.383 150.875 235.969 154.563L240.655 153.821Z" fill="#E4554D"/>
<path d="M233.359 143.708L237.87 142.242C236.642 138.463 235.12 134.783 233.318 131.238L229.091 133.392C230.781 136.715 232.208 140.165 233.359 143.708Z" fill="#E4554D"/>
<path d="M233.318 131.238C235.12 134.783 236.642 138.463 237.87 142.242L242.382 140.777C241.077 136.761 239.46 132.851 237.545 129.084L233.318 131.238Z" fill="#E4554D"/>
<path d="M250.026 152.337L254.712 151.595C253.969 146.923 252.861 142.326 251.404 137.845L246.893 139.311C248.272 143.556 249.322 147.911 250.026 152.337Z" fill="#E4554D"/>
<path d="M250.225 122.624C252.478 127.055 254.381 131.655 255.916 136.379L260.427 134.913C258.815 129.953 256.817 125.123 254.451 120.47L250.225 122.624Z" fill="#E4554D"/>
<path d="M229.091 133.392C227.407 130.078 225.462 126.891 223.269 123.864L219.43 126.652C221.477 129.478 223.293 132.452 224.865 135.545L229.091 133.392Z" fill="#E4554D"/>
<path d="M223.269 123.864C225.462 126.891 227.407 130.078 229.091 133.392L233.318 131.238C231.521 127.703 229.446 124.304 227.107 121.075L223.269 123.864Z" fill="#E4554D"/>
<path d="M223.269 123.864L227.107 121.075C224.787 117.873 222.206 114.839 219.379 112.009L216.024 115.364C218.674 118.017 221.093 120.862 223.269 123.864Z" fill="#E4554D"/>
<path d="M219.379 112.009C222.206 114.839 224.787 117.873 227.107 121.075L230.945 118.287C228.48 114.884 225.738 111.661 222.734 108.654L219.379 112.009Z" fill="#E4554D"/>
<path d="M222.734 108.654C219.775 105.692 216.562 102.94 213.108 100.434L210.32 104.273C213.57 106.631 216.594 109.221 219.379 112.009L222.734 108.654Z" fill="#E4554D"/>
<path d="M231.285 176.082C230.745 179.476 229.933 182.862 228.84 186.211L233.352 187.677C234.523 184.089 235.393 180.461 235.972 176.825L231.285 176.082Z" fill="#E4554D"/>
<path d="M237.863 189.142C239.113 185.315 240.04 181.446 240.658 177.567L235.972 176.825C235.393 180.461 234.523 184.089 233.352 187.677L237.863 189.142Z" fill="#E4554D"/>
<path d="M236.851 165.693C236.852 169.392 236.563 173.113 235.972 176.825L240.658 177.567C241.289 173.608 241.597 169.638 241.596 165.693L236.851 165.693Z" fill="#E4554D"/>
<path d="M240.658 177.567L245.344 178.309C246.014 174.102 246.342 169.885 246.34 165.693L241.596 165.693C241.597 169.638 241.289 173.608 240.658 177.567Z" fill="#E4554D"/>
<path d="M246.34 165.693C246.339 161.449 246.001 157.232 245.34 153.079L240.655 153.821C241.276 157.729 241.595 161.699 241.596 165.693L246.34 165.693Z" fill="#E4554D"/>
<path d="M240.658 177.567C240.04 181.446 239.113 185.315 237.863 189.142L242.375 190.608C243.703 186.542 244.688 182.431 245.344 178.309L240.658 177.567Z" fill="#E4554D"/>
<path d="M245.344 178.309C244.688 182.431 243.703 186.542 242.375 190.608L246.887 192.074C248.292 187.769 249.336 183.415 250.031 179.051L245.344 178.309Z" fill="#E4554D"/>
<path d="M254.717 179.793L250.031 179.051C249.336 183.415 248.292 187.769 246.887 192.074L251.399 193.54C252.882 188.995 253.983 184.4 254.717 179.793Z" fill="#E4554D"/>
<path d="M259.403 180.536L254.717 179.793C253.983 184.4 252.882 188.995 251.399 193.54L255.91 195.006C257.472 190.222 258.631 185.385 259.403 180.536Z" fill="#E4554D"/>
<path d="M259.403 180.536C258.631 185.385 257.472 190.222 255.91 195.006L260.422 196.472C262.062 191.449 263.279 186.37 264.09 181.278L259.403 180.536Z" fill="#E4554D"/>
<path d="M264.934 197.938C266.652 192.675 267.927 187.354 268.776 182.02L264.09 181.278C263.279 186.37 262.062 191.449 260.422 196.472L264.934 197.938Z" fill="#E4554D"/>
<path d="M265.319 165.693L260.575 165.693C260.576 170.625 260.191 175.586 259.403 180.536L264.09 181.278C264.917 176.081 265.321 170.871 265.319 165.693Z" fill="#E4554D"/>
<path d="M268.776 182.02C269.643 176.576 270.066 171.118 270.064 165.693L265.319 165.693C265.321 170.871 264.917 176.081 264.09 181.278L268.776 182.02Z" fill="#E4554D"/>
<path d="M265.319 165.693C265.317 160.45 264.899 155.24 264.083 150.11L259.397 150.852C260.175 155.738 260.573 160.7 260.575 165.693L265.319 165.693Z" fill="#E4554D"/>
<path d="M251.404 137.845C249.946 133.357 248.138 128.987 245.998 124.777L241.771 126.931C243.799 130.919 245.511 135.059 246.893 139.311L251.404 137.845Z" fill="#E4554D"/>
<path d="M254.451 120.47C252.093 115.831 249.369 111.369 246.298 107.132L242.46 109.921C245.384 113.956 247.979 118.206 250.225 122.624L254.451 120.47Z" fill="#E4554D"/>
<path d="M246.298 107.132L250.136 104.343C246.945 99.9406 243.397 95.7694 239.51 91.8787L236.155 95.2338C239.865 98.9477 243.252 102.929 246.298 107.132Z" fill="#E4554D"/>
<path d="M239.51 91.8787L242.865 88.5236C238.861 84.5162 234.514 80.7935 229.841 77.4041L227.052 81.2425C231.522 84.4845 235.68 88.0455 239.51 91.8787Z" fill="#E4554D"/>
<path d="M234.783 115.498C237.415 119.13 239.75 122.955 241.771 126.931L245.998 124.777C243.864 120.58 241.4 116.543 238.622 112.709L234.783 115.498Z" fill="#E4554D"/>
<path d="M234.783 115.498L238.622 112.709C235.866 108.907 232.802 105.304 229.445 101.944L226.09 105.299C229.27 108.483 232.173 111.895 234.783 115.498Z" fill="#E4554D"/>
<path d="M232.8 98.5889C229.318 95.104 225.538 91.8667 221.475 88.9193L218.686 92.7577C222.546 95.5577 226.137 98.6333 229.445 101.944L232.8 98.5889Z" fill="#E4554D"/>
<path d="M270.064 165.693L274.809 165.693C274.807 159.951 274.349 154.245 273.454 148.626L268.769 149.368C269.624 154.742 270.062 160.201 270.064 165.693Z" fill="#E4554D"/>
<path d="M269.45 131.982L264.939 133.447C266.625 138.636 267.908 143.959 268.769 149.368L273.454 148.626C272.555 142.971 271.213 137.406 269.45 131.982Z" fill="#E4554D"/>
<path d="M237.87 142.242C239.096 146.016 240.029 149.887 240.655 153.821L245.34 153.079C244.676 148.899 243.684 144.786 242.382 140.777L237.87 142.242Z" fill="#E4554D"/>
<path d="M240.655 153.821L235.969 154.563C236.552 158.227 236.85 161.949 236.851 165.693L241.596 165.693C241.595 161.699 241.276 157.729 240.655 153.821Z" fill="#E4554D"/>
<path d="M255.916 136.379C257.449 141.096 258.615 145.935 259.397 150.852L264.083 150.11C263.262 144.947 262.037 139.866 260.427 134.913L255.916 136.379Z" fill="#E4554D"/>
<path d="M254.717 179.793C255.466 175.092 255.831 170.378 255.83 165.693L251.085 165.693C251.087 170.131 250.74 174.597 250.031 179.051L254.717 179.793Z" fill="#E4554D"/>
<path d="M269.45 131.982C267.684 126.549 265.496 121.258 262.905 116.163L258.678 118.316C261.156 123.191 263.25 128.251 264.939 133.447L269.45 131.982Z" fill="#E4554D"/>
<path d="M268.776 182.02L273.462 182.762C274.368 177.071 274.811 171.364 274.809 165.693L270.064 165.693C270.066 171.118 269.643 176.576 268.776 182.02Z" fill="#E4554D"/>
<path d="M269.446 199.404C271.242 193.902 272.574 188.339 273.462 182.762L268.776 182.02C267.927 187.354 266.652 192.675 264.934 197.938L269.446 199.404Z" fill="#E4554D"/>
<path d="M224.336 146.64C225.332 149.706 226.09 152.851 226.598 156.047L231.283 155.305C230.736 151.863 229.92 148.476 228.847 145.174L224.336 146.64Z" fill="#E4554D"/>
<path d="M219.825 148.106L224.336 146.64C223.339 143.569 222.102 140.579 220.638 137.699L216.412 139.852C217.763 142.511 218.904 145.271 219.825 148.106Z" fill="#E4554D"/>
<path d="M216.412 139.852L220.638 137.699C219.179 134.827 217.493 132.064 215.592 129.441L211.754 132.23C213.508 134.651 215.064 137.201 216.412 139.852Z" fill="#E4554D"/>
<path d="M216.412 139.852C215.064 137.201 213.508 134.651 211.754 132.23L207.916 135.018C209.524 137.238 210.95 139.576 212.185 142.006L216.412 139.852Z" fill="#E4554D"/>
<path d="M211.754 132.23L215.592 129.441C213.707 126.839 211.611 124.374 209.314 122.074L205.959 125.43C208.079 127.552 210.014 129.828 211.754 132.23Z" fill="#E4554D"/>
<path d="M199.165 119.626C201.602 121.395 203.87 123.338 205.959 125.43L209.314 122.074C207.051 119.809 204.594 117.704 201.954 115.788L199.165 119.626Z" fill="#E4554D"/>
<path d="M254.712 151.595L250.026 152.337C250.725 156.734 251.084 161.199 251.085 165.693L255.83 165.693C255.828 160.95 255.45 156.236 254.712 151.595Z" fill="#E4554D"/>
<path d="M253.975 101.555C257.338 106.195 260.321 111.082 262.905 116.163L267.131 114.009C264.436 108.708 261.322 103.609 257.813 98.7661L253.975 101.555Z" fill="#E4554D"/>
<path d="M188.725 148.962L192.563 146.173C191.548 144.771 190.42 143.444 189.184 142.205L185.829 145.56C186.888 146.622 187.855 147.76 188.725 148.962Z" fill="#E4554D"/>
<path d="M186.825 154.927C187.387 156.035 187.862 157.186 188.245 158.367L192.756 156.901C192.296 155.484 191.727 154.103 191.052 152.774L186.825 154.927Z" fill="#E4554D"/>
<path d="M188.725 148.962C189.601 150.173 190.379 151.448 191.052 152.774L195.278 150.62C194.493 149.074 193.586 147.586 192.563 146.173L188.725 148.962Z" fill="#E4554D"/>
<path d="M198.483 160.5C198.211 158.78 197.803 157.086 197.268 155.435L192.756 156.901C193.215 158.316 193.564 159.768 193.798 161.242L198.483 160.5Z" fill="#E4554D"/>
<path d="M189.404 165.693L194.148 165.693C194.149 164.196 194.03 162.708 193.798 161.242L189.112 161.985C189.305 163.206 189.404 164.446 189.404 165.693Z" fill="#E4554D"/>
<path d="M189.109 169.402L193.795 170.144C194.032 168.66 194.148 167.172 194.148 165.693L189.404 165.693C189.403 166.926 189.306 168.165 189.109 169.402Z" fill="#E4554D"/>
<path d="M198.893 165.693C198.893 163.946 198.755 162.21 198.483 160.5L193.798 161.242C194.03 162.708 194.149 164.196 194.148 165.693L198.893 165.693Z" fill="#E4554D"/>
<path d="M205.959 125.43C203.87 123.338 201.602 121.395 199.165 119.626L196.376 123.465C198.61 125.086 200.689 126.867 202.604 128.785L205.959 125.43Z" fill="#E4554D"/>
<path d="M165.036 166.399L165.032 165.719L164.384 165.925L132.894 175.951L164.263 165.553L164.908 165.339L164.512 164.787L145.246 137.936L164.829 164.557L165.231 165.104L165.634 164.557L185.217 137.936L165.951 164.787L165.555 165.339L166.2 165.553L197.569 175.951L166.079 165.925L165.431 165.719L165.427 166.399L165.231 199.445L165.036 166.399Z" stroke="black"/>
<path d="M165.036 166.399L165.032 165.719L164.384 165.925L132.894 175.951L164.263 165.553L164.908 165.339L164.512 164.787L145.246 137.936L164.829 164.557L165.231 165.104L165.634 164.557L185.217 137.936L165.951 164.787L165.555 165.339L166.2 165.553L197.569 175.951L166.079 165.925L165.431 165.719L165.427 166.399L165.231 199.445L165.036 166.399Z" stroke="black"/>
<circle cx="165.68" cy="165.673" r="19.7719" fill="url(#paint0_linear)"/>
<defs>
<linearGradient id="paint0_linear" x1="165.68" y1="145.901" x2="165.68" y2="185.445" gradientUnits="userSpaceOnUse">
<stop stop-color="#58B794"/>
<stop offset="1" stop-color="#1E7CD3"/>
</linearGradient>
</defs>
</svg>
