<svg fill="none" height="800" viewBox="0 0 800 800" width="800" xmlns="http://www.w3.org/2000/svg" xmlns:xlink="http://www.w3.org/1999/xlink"><filter id="a" color-interpolation-filters="sRGB" filterUnits="userSpaceOnUse" height="800" width="800" x="0" y="0"><feFlood flood-opacity="0" result="BackgroundImageFix"/><feColorMatrix in="SourceAlpha" result="hardAlpha" type="matrix" values="0 0 0 0 0 0 0 0 0 0 0 0 0 0 0 0 0 0 127 0"/><feOffset dy="3"/><feGaussianBlur stdDeviation="125"/><feComposite in2="hardAlpha" operator="out"/><feColorMatrix type="matrix" values="0 0 0 0 0.244687 0 0 0 0 0.363121 0 0 0 0 0.725 0 0 0 1 0"/><feBlend in2="BackgroundImageFix" mode="normal" result="effect1_dropShadow"/><feBlend in="SourceGraphic" in2="effect1_dropShadow" mode="normal" result="shape"/></filter><linearGradient id="b" gradientUnits="userSpaceOnUse" x1="554" x2="245" y1="294" y2="506.5"><stop offset="0" stop-color="#293b72"/><stop offset="1" stop-color="#0d100f"/></linearGradient><radialGradient id="c" cx="0" cy="0" gradientTransform="matrix(-111.49962779 113.00034514 -151.37728363 -149.36689583 578.5 424)" gradientUnits="userSpaceOnUse" r="1"><stop offset="0" stop-color="#fff" stop-opacity="0"/><stop offset="1" stop-opacity=".34"/></radialGradient><g filter="url(#a)"><path d="m400 547c82.843 0 150-67.157 150-150s-67.157-150-150-150-150 67.157-150 150 67.157 150 150 150z" fill="#c4c4c4"/></g><path d="m399.625 550.134c85.398 0 154.626-69.228 154.626-154.626 0-85.397-69.228-154.625-154.626-154.625-85.397 0-154.625 69.228-154.625 154.625 0 85.398 69.228 154.626 154.625 154.626z" fill="url(#b)"/><path d="m399.625 550.134c85.398 0 154.626-69.228 154.626-154.626 0-85.397-69.228-154.625-154.626-154.625-85.397 0-154.625 69.228-154.625 154.625 0 85.398 69.228 154.626 154.625 154.626z" fill="url(#c)"/><circle cx="399.99" cy="395.51" fill="#000" r="37.2475" stroke="#2b344d"/><g fill="#8ba0a5" stroke="#8ba0a5"><path d="m537.965 350.676c-27.724 9.009-40.879 18.752-39.464 29.229-2.509-9.975-18.099-10.378-46.771-1.209 28.586-9.434 40.962-18.924 37.128-28.469 5.014 9.308 21.383 9.458 49.107.449z" stroke-width=".2"/><path d="m262.014 350.676c27.724 9.009 44.093 8.859 49.107-.449-3.834 9.545 8.542 19.035 37.128 28.469-28.672-9.169-44.262-8.766-46.771 1.209 1.415-10.477-11.74-20.22-39.464-29.229z" stroke-width=".2"/><path d="m254.912 395.508c29.151 0 44.673-5.201 46.564-15.603-.696 10.262 14.007 15.463 44.109 15.603-30.102.139-44.805 5.34-44.109 15.603-1.891-10.402-17.413-15.603-46.564-15.603z" stroke-width=".2"/><path d="m262.014 440.339c27.724-9.008 40.879-18.751 39.464-29.228 2.509 9.975 18.099 10.378 46.771 1.209-28.586 9.434-40.962 18.924-37.128 28.469-5.014-9.308-21.383-9.458-49.107-.45z" stroke-width=".2"/><path d="m444.818 257.532c-9.008 27.724-8.858 44.093.45 49.106-9.545-3.833-19.035 8.543-28.469 37.129 9.169-28.672 8.766-44.262-1.209-46.772 10.477 1.416 20.22-11.739 29.228-39.463z" stroke-width=".2"/><path d="m399.99 250.431c0 29.151 5.2 44.673 15.602 46.564-10.262-.696-15.463 14.007-15.602 44.109-.14-30.102-5.341-44.805-15.603-44.109 10.402-1.891 15.603-17.413 15.603-46.564z" stroke-width=".2"/><path d="m355.157 257.532c9.008 27.724 18.751 40.879 29.228 39.463-9.975 2.51-10.378 18.1-1.209 46.772-9.434-28.586-18.924-40.962-28.469-37.129 9.308-5.013 9.458-21.382.45-49.106z" stroke-width=".2"/><path d="m355.157 533.484c9.008-27.725 8.858-44.094-.45-49.107 9.545 3.834 19.035-8.543 28.469-37.128-9.169 28.672-8.766 44.262 1.209 46.771-10.477-1.415-20.22 11.739-29.228 39.464z" stroke-width=".2"/><path d="m399.99 540.585c0-29.152-5.201-44.673-15.603-46.565 10.262.696 15.463-14.007 15.603-44.108.139 30.101 5.34 44.804 15.602 44.108-10.402 1.892-15.602 17.413-15.602 46.565z" stroke-width=".2"/><path d="m444.818 533.484c-9.008-27.725-18.751-40.879-29.228-39.464 9.975-2.509 10.378-18.099 1.209-46.771 9.434 28.585 18.924 40.962 28.469 37.128-9.308 5.013-9.458 21.382-.45 49.107z" stroke-width=".2"/><path d="m537.965 440.339c-27.724-9.008-44.093-8.858-49.107.45 3.834-9.545-8.542-19.035-37.128-28.469 28.672 9.169 44.262 8.766 46.771-1.209-1.415 10.477 11.74 20.22 39.464 29.228z" stroke-width=".2"/><path d="m545.066 395.508c-29.152 0-44.673 5.201-46.565 15.603.697-10.263-14.006-15.464-44.108-15.603 30.102-.14 44.805-5.341 44.108-15.603 1.892 10.402 17.413 15.603 46.565 15.603z" stroke-width=".2"/><path d="m314.584 278.233c17.161 23.565 30.502 33.05 40.024 28.456-8.705 5.479-4.255 20.426 13.353 44.841-17.833-24.251-30.693-33.075-38.579-26.47 7.295-7.653 2.363-23.262-14.798-46.827z" stroke-width=".2"/><path d="m282.525 310.364c23.602 17.109 39.222 22.007 46.858 14.695-6.586 7.9 2.266 20.74 26.557 38.52-24.455-17.554-39.411-21.971-44.871-13.254 4.573-9.532-4.942-22.852-28.544-39.961z" stroke-width=".2"/><path d="m485.393 512.783c-17.161-23.565-30.502-33.05-40.025-28.456 8.706-5.479 4.255-20.426-13.353-44.841 17.833 24.251 30.693 33.075 38.579 26.47-7.295 7.653-2.362 23.262 14.799 46.827z" stroke-width=".2"/><path d="m517.454 480.652c-23.603-17.109-39.223-22.007-46.859-14.695 6.586-7.901-2.266-20.741-26.557-38.52 24.455 17.553 39.412 21.971 44.871 13.253-4.573 9.533 4.942 22.853 28.545 39.962z" stroke-width=".2"/></g><path d="m422.776 492.904c-15.488 3.139-23.082-5.078-22.783-24.65.298 19.572-7.296 27.789-22.784 24.65l-8.126-2.266-5.62 17.296c5.402 1.756 10.945 3.124 16.543 4.084 13.312 2.716 19.974 12.377 19.987 28.982.012-16.605 6.674-26.266 19.986-28.982 5.598-.96 11.141-2.328 16.543-4.084l-5.62-17.296z" fill="#f7262b"/><path d="m422.776 298.112c-15.488-3.139-23.082 5.078-22.783 24.65.298-19.572-7.296-27.789-22.784-24.65l-8.126 2.266-5.62-17.296c5.402-1.756 10.945-3.125 16.543-4.084 13.312-2.716 19.974-12.377 19.987-28.982.012 16.605 6.674 26.266 19.986 28.982 5.598.959 11.141 2.328 16.543 4.084l-5.62 17.296z" fill="#f7262b"/><path d="m302.596 418.291c-3.139-15.487 5.078-23.081 24.65-22.783-19.572.299-27.789-7.296-24.65-22.783l2.266-8.126-17.296-5.62c-1.756 5.401-3.125 10.945-4.084 16.543-2.716 13.311-12.377 19.973-28.982 19.986 16.605.013 26.266 6.675 28.982 19.986.959 5.599 2.328 11.142 4.084 16.544l17.296-5.62z" fill="#f7262b"/><path d="m497.389 418.291c3.139-15.487-5.078-23.081-24.651-22.783 19.573.299 27.79-7.296 24.651-22.783l-2.266-8.126 17.296-5.62c1.756 5.401 3.124 10.945 4.084 16.543 2.716 13.311 12.376 19.973 28.981 19.986-16.605.013-26.265 6.675-28.981 19.986-.96 5.599-2.328 11.142-4.084 16.544l-17.296-5.62z" fill="#f7262b"/><path d="m421.368 424.934c10.862 15.294 13.368 24.39 7.518 27.289-5.783 3.028-11.669-4.346-17.657-22.122l25.289 77.833c-9.164-28.408-10.332-44.278-3.503-47.609 6.708-3.567 18.86 6.706 36.457 30.819z" fill="#efca82" stroke="#efca82" stroke-width=".2"/><path d="m434.582 406.748c17.777 5.988 25.151 11.874 22.123 17.658-2.9 5.85-11.996 3.344-27.289-7.518l66.209 48.104c-24.112-17.597-34.385-29.749-30.818-36.458 3.33-6.829 19.2-5.661 47.609 3.504z" fill="#efca82" stroke="#efca82" stroke-width=".2"/><path d="m434.582 384.268c17.901-5.604 27.327-5.177 28.276 1.283 1.093 6.436-7.739 9.755-26.496 9.957h81.839c-29.85-.063-45.304-3.856-46.361-11.38-1.32-7.482 12.206-15.866 40.576-25.149z" fill="#efca82" stroke="#efca82" stroke-width=".2"/><path d="m421.369 366.082c11.189-15.056 19.065-20.251 23.63-15.583 4.667 4.565-.527 12.441-15.583 23.63l66.209-48.104c-24.186 17.495-38.918 23.509-44.196 18.044-5.466-5.278.549-20.01 18.044-44.197z" fill="#efca82" stroke="#efca82" stroke-width=".2"/><path d="m399.99 359.135c.202-18.757 3.521-27.589 9.958-26.496 6.459.95 6.886 10.375 1.282 28.277l25.29-77.834c-9.284 28.37-17.667 41.895-25.15 40.576-7.524-1.057-11.317-16.511-11.38-46.362z" fill="#efca82" stroke="#efca82" stroke-width=".2"/><path d="m378.61 366.082c-10.861-15.294-13.368-24.39-7.518-27.289 5.784-3.028 11.67 4.346 17.658 22.122l-25.29-77.833c9.165 28.408 10.333 44.278 3.504 47.609-6.708 3.567-18.861-6.706-36.457-30.818z" fill="#efca82" stroke="#efca82" stroke-width=".2"/><path d="m370.562 374.128c-15.056-11.188-20.25-19.065-15.582-23.629 4.564-4.668 12.441.526 23.629 15.583l-48.104-66.21c17.495 24.187 23.51 38.919 18.045 44.197-5.278 5.465-20.01-.549-44.197-18.044z" fill="#efca82" stroke="#efca82" stroke-width=".2"/><path d="m363.616 395.508c-18.757-.202-27.589-3.521-26.496-9.958.95-6.459 10.375-6.886 28.276-1.282l-77.833-25.29c28.37 9.284 41.895 17.668 40.576 25.15-1.057 7.524-16.511 11.317-46.362 11.38z" fill="#efca82" stroke="#efca82" stroke-width=".2"/><path d="m370.563 416.887c-15.294 10.862-24.39 13.368-27.289 7.519-3.029-5.784 4.346-11.67 22.122-17.658l-77.834 25.289c28.409-9.164 44.279-10.332 47.61-3.503 3.567 6.708-6.706 18.861-30.819 36.457z" fill="#efca82" stroke="#efca82" stroke-width=".2"/><path d="m378.609 424.934c-11.188 15.057-19.065 20.251-23.629 15.583-4.668-4.565.526-12.441 15.582-23.629l-66.209 48.103c24.187-17.495 38.919-23.509 44.197-18.044 5.465 5.278-.55 20.01-18.045 44.197z" fill="#efca82" stroke="#efca82" stroke-width=".2"/><path d="m399.99 431.881c-.202 18.757-3.521 27.589-9.957 26.496-6.459-.95-6.887-10.375-1.283-28.276l-25.289 77.833c9.284-28.37 17.667-41.895 25.149-40.576 7.524 1.057 11.318 16.511 11.38 46.362z" fill="#efca82" stroke="#efca82" stroke-width=".2"/></svg>