<svg fill="none" height="800" viewBox="0 0 800 800" width="800" xmlns="http://www.w3.org/2000/svg" xmlns:xlink="http://www.w3.org/1999/xlink"><filter id="a" color-interpolation-filters="sRGB" filterUnits="userSpaceOnUse" height="800" width="800" x="0" y="0"><feFlood flood-opacity="0" result="BackgroundImageFix"/><feColorMatrix in="SourceAlpha" result="hardAlpha" type="matrix" values="0 0 0 0 0 0 0 0 0 0 0 0 0 0 0 0 0 0 127 0"/><feOffset dy="3"/><feGaussianBlur stdDeviation="125"/><feComposite in2="hardAlpha" operator="out"/><feColorMatrix type="matrix" values="0 0 0 0 0.244687 0 0 0 0 0.363121 0 0 0 0 0.725 0 0 0 1 0"/><feBlend in2="BackgroundImageFix" mode="normal" result="effect1_dropShadow"/><feBlend in="SourceGraphic" in2="effect1_dropShadow" mode="normal" result="shape"/></filter><linearGradient id="b" gradientUnits="userSpaceOnUse" x1="555" x2="246" y1="294" y2="506.5"><stop offset="0" stop-color="#293b72"/><stop offset="1" stop-color="#0d100f"/></linearGradient><radialGradient id="c" cx="0" cy="0" gradientTransform="matrix(-111.49962779 113.00034514 -151.37728363 -149.36689583 579.5 424)" gradientUnits="userSpaceOnUse" r="1"><stop offset="0" stop-color="#fff" stop-opacity="0"/><stop offset="1" stop-opacity=".34"/></radialGradient><g filter="url(#a)"><path d="m400 547c82.843 0 150-67.157 150-150s-67.157-150-150-150-150 67.157-150 150 67.157 150 150 150z" fill="#c4c4c4"/></g><path d="m400.625 550.134c85.398 0 154.626-69.228 154.626-154.626 0-85.397-69.228-154.625-154.626-154.625-85.397 0-154.625 69.228-154.625 154.625 0 85.398 69.228 154.626 154.625 154.626z" fill="url(#b)"/><path d="m400.625 550.134c85.398 0 154.626-69.228 154.626-154.626 0-85.397-69.228-154.625-154.626-154.625-85.397 0-154.625 69.228-154.625 154.625 0 85.398 69.228 154.626 154.625 154.626z" fill="url(#c)"/><circle cx="400.99" cy="395.51" fill="#000" r="37.2475" stroke="#2b344d"/><g stroke-width=".75"><path d="m422.37 424.933c10.862 15.294 13.368 24.39 7.518 27.289-5.784 3.028-11.669-4.346-17.658-22.122l25.29 77.833c-9.165-28.408-10.333-44.278-3.504-47.609 6.709-3.567 18.861 6.706 36.458 30.818z" fill="#efca82" stroke="#efca82"/><path d="m430.418 416.887c15.056 11.188 20.25 19.065 15.583 23.629-4.565 4.668-12.442-.526-23.63-15.582l48.104 66.209c-17.495-24.187-23.51-38.919-18.044-44.197 5.278-5.465 20.01.549 44.196 18.044z" fill="#efca82" stroke="#efca82"/><path d="m435.584 406.747c17.777 5.988 25.151 11.874 22.122 17.658-2.899 5.85-11.995 3.344-27.288-7.518l66.209 48.104c-24.113-17.597-34.385-29.749-30.818-36.458 3.33-6.829 19.2-5.661 47.609 3.504z" fill="#efca82" stroke="#efca82"/><path d="m435.584 384.267c17.901-5.604 27.327-5.177 28.276 1.283 1.093 6.436-7.739 9.756-26.496 9.957h81.839c-29.85-.062-45.304-3.856-46.362-11.38-1.319-7.482 12.206-15.865 40.577-25.149z" fill="#efca82" stroke="#efca82"/><path d="m430.418 374.128c15.293-10.862 24.389-13.368 27.288-7.518 3.029 5.783-4.345 11.669-22.122 17.657l77.834-25.289c-28.409 9.165-44.279 10.332-47.609 3.503-3.567-6.708 6.705-18.861 30.818-36.457z" fill="#efca82" stroke="#efca82"/><path d="m422.371 366.081c11.188-15.056 19.065-20.25 23.63-15.583 4.667 4.565-.527 12.442-15.583 23.63l66.209-48.104c-24.186 17.495-38.918 23.51-44.196 18.044-5.466-5.278.549-20.01 18.044-44.196z" fill="#efca82" stroke="#efca82"/><path d="m412.23 360.915c5.989-17.777 11.874-25.151 17.658-22.122 5.85 2.899 3.344 11.995-7.518 27.288l48.104-66.209c-17.597 24.113-29.749 34.385-36.458 30.818-6.829-3.33-5.661-19.2 3.504-47.609z" fill="#efca82" stroke="#efca82"/><path d="m400.99 359.135c.202-18.757 3.521-27.589 9.958-26.496 6.459.949 6.886 10.375 1.282 28.276l25.29-77.834c-9.284 28.371-17.667 41.896-25.15 40.576-7.524-1.057-11.317-16.511-11.38-46.361z" fill="#efca82" stroke="#efca82"/><path d="m412.23 430.1c5.604 17.901 5.177 27.327-1.282 28.276-6.437 1.093-9.756-7.739-9.958-26.496v81.839c.063-29.85 3.856-45.304 11.38-46.362 7.483-1.319 15.866 12.206 25.15 40.576z" fill="#efca82" stroke="#efca82"/><path d="m379.612 366.081c-10.861-15.293-13.368-24.389-7.518-27.289 5.784-3.028 11.67 4.346 17.658 22.123l-25.29-77.834c9.165 28.409 10.333 44.279 3.504 47.609-6.708 3.567-18.861-6.705-36.457-30.818z" fill="#efca82" stroke="#efca82"/><path d="m371.564 374.128c-15.056-11.189-20.25-19.065-15.582-23.63 4.564-4.668 12.441.527 23.629 15.583l-48.103-66.209c17.494 24.186 23.509 38.918 18.044 44.196-5.278 5.466-20.01-.549-44.197-18.044z" fill="#efca82" stroke="#efca82"/><path d="m366.398 384.267c-17.776-5.988-25.151-11.874-22.122-17.658 2.899-5.849 11.995-3.343 27.288 7.518l-66.209-48.103c24.113 17.596 34.386 29.749 30.819 36.457-3.331 6.829-19.201 5.661-47.609-3.504z" fill="#efca82" stroke="#efca82"/><path d="m364.618 395.507c-18.757-.201-27.589-3.521-26.496-9.957.95-6.459 10.375-6.887 28.276-1.283l-77.833-25.289c28.37 9.284 41.895 17.667 40.576 25.149-1.057 7.524-16.511 11.318-46.362 11.38z" fill="#efca82" stroke="#efca82"/><path d="m371.564 416.887c-15.293 10.861-24.389 13.367-27.288 7.518-3.029-5.784 4.346-11.67 22.122-17.658l-77.833 25.29c28.408-9.165 44.278-10.333 47.609-3.504 3.567 6.708-6.706 18.861-30.819 36.457z" fill="#efca82" stroke="#efca82"/><path d="m379.611 424.933c-11.188 15.056-19.065 20.251-23.629 15.583-4.668-4.565.526-12.441 15.582-23.629l-66.209 48.103c24.187-17.495 38.919-23.509 44.197-18.044 5.465 5.278-.55 20.01-18.044 44.197z" fill="#efca82" stroke="#efca82"/><path d="m389.752 430.1c-5.988 17.776-11.874 25.15-17.658 22.122-5.85-2.899-3.343-11.995 7.518-27.289l-48.103 66.209c17.596-24.112 29.749-34.385 36.457-30.818 6.829 3.331 5.661 19.2-3.504 47.609z" fill="#efca82" stroke="#efca82"/><path d="m400.99 431.88c-.202 18.757-3.521 27.589-9.957 26.496-6.459-.95-6.887-10.375-1.283-28.276l-25.289 77.833c9.284-28.37 17.667-41.895 25.149-40.576 7.524 1.057 11.318 16.511 11.38 46.362z" fill="#efca82" stroke="#efca82"/><path d="m389.75 360.915c-5.604-17.902-5.176-27.327 1.283-28.277 6.436-1.093 9.755 7.739 9.957 26.496v-81.839c-.062 29.851-3.856 45.305-11.38 46.362-7.482 1.319-15.865-12.206-25.149-40.576z" fill="#efca82" stroke="#efca82"/><path d="m538.965 350.676c-27.724 9.009-40.879 18.752-39.464 29.229-2.509-9.975-18.099-10.378-46.771-1.209 28.586-9.434 40.962-18.925 37.128-28.469 5.014 9.308 21.383 9.458 49.107.449z" fill="#8ba0a5" stroke="#8ba0a5"/><path d="m263.014 350.676c27.724 9.009 44.093 8.859 49.107-.449-3.834 9.544 8.542 19.035 37.128 28.469-28.672-9.169-44.263-8.766-46.772 1.209 1.416-10.477-11.739-20.22-39.463-29.229z" fill="#8ba0a5" stroke="#8ba0a5"/><path d="m445.82 257.532c-9.008 27.724-8.858 44.093.45 49.106-9.545-3.833-19.035 8.543-28.469 37.129 9.169-28.672 8.766-44.262-1.209-46.772 10.477 1.416 20.22-11.739 29.228-39.463z" fill="#8ba0a5" stroke="#8ba0a5"/><path d="m400.989 250.431c0 29.151 5.201 44.673 15.603 46.565-10.262-.697-15.463 14.006-15.603 44.108-.139-30.102-5.34-44.805-15.602-44.108 10.402-1.892 15.602-17.414 15.602-46.565z" fill="#8ba0a5" stroke="#8ba0a5"/><path d="m356.159 257.532c9.008 27.724 18.751 40.879 29.228 39.463-9.975 2.51-10.378 18.1-1.209 46.772-9.434-28.586-18.924-40.962-28.469-37.129 9.308-5.013 9.458-21.382.45-49.106z" fill="#8ba0a5" stroke="#8ba0a5"/><path d="m518.337 310.201c-23.579 17.141-33.076 30.475-28.49 40.001-5.471-8.71-20.422-4.272-44.852 13.316 24.266-17.813 33.101-30.665 26.503-38.557 7.647 7.301 23.26 2.381 46.839-14.76z" fill="#8ba0a5" stroke="#8ba0a5"/><path d="m486.231 278.115c-17.128 23.588-22.039 39.203-14.734 46.846-7.895-6.593-20.742 2.248-38.541 26.524 17.573-24.44 22.004-39.393 13.291-44.859 9.528 4.581 22.856-4.923 39.984-28.511z" fill="#8ba0a5" stroke="#8ba0a5"/><path d="m356.159 533.484c9.008-27.725 8.858-44.094-.45-49.107 9.545 3.833 19.035-8.543 28.469-37.128-9.169 28.671-8.766 44.262 1.209 46.771-10.477-1.416-20.22 11.739-29.228 39.464z" fill="#8ba0a5" stroke="#8ba0a5"/><path d="m400.989 540.584c0-29.151-5.2-44.673-15.602-46.564 10.262.696 15.463-14.007 15.602-44.109.14 30.102 5.341 44.805 15.603 44.109-10.402 1.891-15.603 17.413-15.603 46.564z" fill="#8ba0a5" stroke="#8ba0a5"/><path d="m445.82 533.484c-9.008-27.725-18.751-40.88-29.228-39.464 9.975-2.509 10.378-18.1 1.209-46.771 9.434 28.585 18.924 40.961 28.469 37.128-9.308 5.013-9.458 21.382-.45 49.107z" fill="#8ba0a5" stroke="#8ba0a5"/><path d="m283.592 480.743c23.589-17.127 33.094-30.454 28.514-39.983 5.466 8.713 20.419 4.284 44.86-13.288-24.277 17.798-33.119 30.644-26.527 38.54-7.642-7.306-23.258-2.396-46.847 14.731z" fill="#8ba0a5" stroke="#8ba0a5"/><path d="m315.674 512.848c17.143-23.578 22.064-39.19 14.763-46.837 7.891 6.598 20.744-2.235 38.559-26.5-17.589 24.428-22.029 39.379-13.319 44.851-9.526-4.587-22.86 4.908-40.003 28.486z" fill="#8ba0a5" stroke="#8ba0a5"/><path d="m315.586 278.233c17.16 23.565 30.502 33.05 40.024 28.456-8.706 5.478-4.255 20.426 13.353 44.841-17.833-24.251-30.693-33.075-38.579-26.471 7.295-7.652 2.362-23.261-14.798-46.826z" fill="#8ba0a5" stroke="#8ba0a5"/><path d="m283.525 310.365c23.602 17.108 39.222 22.006 46.858 14.694-6.586 7.901 2.266 20.74 26.557 38.52-24.455-17.554-39.412-21.971-44.871-13.254 4.573-9.532-4.942-22.852-28.544-39.96z" fill="#8ba0a5" stroke="#8ba0a5"/><path d="m486.393 512.782c-17.161-23.564-30.503-33.05-40.025-28.456 8.706-5.478 4.255-20.425-13.353-44.84 17.833 24.251 30.693 33.074 38.579 26.47-7.295 7.653-2.362 23.262 14.799 46.826z" fill="#8ba0a5" stroke="#8ba0a5"/><path d="m518.454 480.651c-23.604-17.109-39.223-22.007-46.859-14.695 6.586-7.9-2.266-20.74-26.557-38.52 24.455 17.554 39.412 21.971 44.871 13.254-4.573 9.532 4.941 22.852 28.545 39.961z" fill="#8ba0a5" stroke="#8ba0a5"/><path d="m253.92 443.299c-10.06-30.253-10.06-65.286 0-95.539l17.296 5.62c-1.689 5.197-3.067 10.506-4.12 15.869-3.089 17.819 5.152 26.579 24.724 26.28-19.572-.298-27.813 8.462-24.724 26.281 1.053 5.363 2.431 10.671 4.12 15.869z" fill="#584974" stroke="#584974"/><path d="m548.018 347.76c10.059 30.253 10.059 65.286 0 95.539l-17.297-5.62c1.689-5.197 3.068-10.506 4.12-15.869 3.09-17.819-5.151-26.579-24.724-26.28 19.573.298 27.814-8.462 24.724-26.281-1.052-5.363-2.431-10.671-4.12-15.869z" fill="#584974" stroke="#584974"/></g></svg>