<svg fill="none" height="800" viewBox="0 0 800 800" width="800" xmlns="http://www.w3.org/2000/svg" xmlns:xlink="http://www.w3.org/1999/xlink"><filter id="a" color-interpolation-filters="sRGB" filterUnits="userSpaceOnUse" height="800" width="800" x="0" y="0"><feFlood flood-opacity="0" result="BackgroundImageFix"/><feColorMatrix in="SourceAlpha" result="hardAlpha" type="matrix" values="0 0 0 0 0 0 0 0 0 0 0 0 0 0 0 0 0 0 127 0"/><feOffset dy="3"/><feGaussianBlur stdDeviation="125"/><feComposite in2="hardAlpha" operator="out"/><feColorMatrix type="matrix" values="0 0 0 0 0.244687 0 0 0 0 0.363121 0 0 0 0 0.725 0 0 0 1 0"/><feBlend in2="BackgroundImageFix" mode="normal" result="effect1_dropShadow"/><feBlend in="SourceGraphic" in2="effect1_dropShadow" mode="normal" result="shape"/></filter><linearGradient id="b" gradientUnits="userSpaceOnUse" x1="558" x2="249" y1="294" y2="506.5"><stop offset="0" stop-color="#293b72"/><stop offset="1" stop-color="#0d100f"/></linearGradient><radialGradient id="c" cx="0" cy="0" gradientTransform="matrix(-111.49962779 113.00034514 -151.37728363 -149.36689583 582.5 424)" gradientUnits="userSpaceOnUse" r="1"><stop offset="0" stop-color="#fff" stop-opacity="0"/><stop offset="1" stop-opacity=".34"/></radialGradient><g filter="url(#a)"><path d="m400 547c82.843 0 150-67.157 150-150s-67.157-150-150-150-150 67.157-150 150 67.157 150 150 150z" fill="#c4c4c4"/></g><path d="m403.625 550.134c85.398 0 154.626-69.228 154.626-154.626 0-85.397-69.228-154.625-154.626-154.625-85.397 0-154.625 69.228-154.625 154.625 0 85.398 69.228 154.626 154.625 154.626z" fill="url(#b)"/><path d="m403.625 550.134c85.398 0 154.626-69.228 154.626-154.626 0-85.397-69.228-154.625-154.626-154.625-85.397 0-154.625 69.228-154.625 154.625 0 85.398 69.228 154.626 154.625 154.626z" fill="url(#c)"/><circle cx="403.99" cy="395.51" fill="#000" r="37.2475" stroke="#2b344d"/><path d="m357.23 248.489c30.254-10.06 65.286-10.06 95.539 0l-5.62 17.296c-5.197-1.689-10.506-3.067-15.868-4.12-17.819-3.09-26.58 5.151-26.281 24.724.299-19.573-8.462-27.814-26.281-24.724-5.362 1.053-10.671 2.431-15.869 4.12z" fill="#584974" stroke="#584974" stroke-width=".75"/><path d="m452.77 542.588c-30.254 10.06-65.286 10.06-95.539 0l5.62-17.296c5.197 1.689 10.506 3.067 15.868 4.12 17.819 3.089 26.58-5.152 26.281-24.724-.299 19.572 8.462 27.813 26.281 24.724 5.362-1.053 10.671-2.431 15.869-4.12z" fill="#584974" stroke="#584974" stroke-width=".75"/><path d="m334.798 533.296c-28.506-14.278-53.278-39.05-67.556-67.556l16.204-8.256c2.481 4.869 5.26 9.597 8.308 14.134 10.415 14.784 22.437 15.151 36.065 1.101-14.05 13.628-13.684 25.65 1.101 36.065 4.537 3.048 9.265 5.827 14.134 8.308z" fill="#584974" stroke="#584974" stroke-width=".75"/><path d="m475.202 257.78c28.506 14.279 53.278 39.051 67.556 67.557l-16.204 8.256c-2.481-4.869-5.26-9.598-8.308-14.134-10.415-14.785-22.437-15.152-36.065-1.101 14.05-13.629 13.684-25.65-1.101-36.066-4.537-3.047-9.265-5.827-14.134-8.307z" fill="#584974" stroke="#584974" stroke-width=".75"/><path d="m267.241 325.337c14.279-28.506 39.051-53.278 67.557-67.557l8.256 16.205c-4.869 2.48-9.598 5.26-14.134 8.307-14.785 10.415-15.152 22.437-1.101 36.066-13.629-14.051-25.65-13.684-36.066 1.101-3.047 4.536-5.827 9.265-8.307 14.134z" fill="#584974" stroke="#584974" stroke-width=".75"/><path d="m542.757 465.74c-14.279 28.506-39.051 53.278-67.556 67.556l-8.257-16.204c4.869-2.481 9.598-5.26 14.134-8.308 14.785-10.415 15.152-22.437 1.101-36.065 13.629 14.051 25.651 13.684 36.066-1.101 3.047-4.536 5.827-9.265 8.307-14.134z" fill="#584974" stroke="#584974" stroke-width=".75"/><g fill="#f7262b"><path d="m427.785 492.904c-15.487 3.139-23.081-5.078-22.783-24.65.299 19.572-7.295 27.789-22.783 24.65l-8.126-2.266-5.62 17.296c5.402 1.756 10.945 3.125 16.543 4.084 13.311 2.716 19.973 12.377 19.986 28.982.013-16.605 6.675-26.266 19.986-28.982 5.599-.959 11.142-2.328 16.544-4.084l-5.62-17.296z"/><path d="m427.785 298.111c-15.487-3.138-23.081 5.079-22.783 24.651.299-19.572-7.295-27.789-22.783-24.651l-8.126 2.267-5.62-17.297c5.402-1.755 10.945-3.124 16.543-4.084 13.311-2.715 19.973-12.376 19.986-28.981.013 16.605 6.675 26.266 19.986 28.981 5.599.96 11.142 2.329 16.544 4.084l-5.62 17.297z"/><path d="m307.605 418.291c-3.138-15.487 5.079-23.082 24.651-22.783-19.572.298-27.789-7.296-24.651-22.783l2.267-8.127-17.297-5.62c-1.755 5.402-3.124 10.945-4.084 16.544-2.715 13.311-12.376 19.973-28.981 19.986 16.605.013 26.266 6.675 28.981 19.986.96 5.598 2.329 11.142 4.084 16.543l17.297-5.619z"/><path d="m502.397 418.291c3.138-15.487-5.078-23.082-24.651-22.783 19.573.298 27.789-7.296 24.651-22.783l-2.267-8.127 17.297-5.62c1.755 5.402 3.124 10.945 4.084 16.544 2.716 13.311 12.376 19.973 28.981 19.986-16.605.013-26.265 6.675-28.981 19.986-.96 5.598-2.329 11.142-4.084 16.543l-17.297-5.619z"/><path d="m320.022 342.748c8.731-13.17 19.912-12.73 33.54 1.321-14.051-13.629-14.491-24.809-1.32-33.541l7.349-4.144-8.257-16.204c-5.061 2.578-9.948 5.53-14.586 8.81-11.332 7.492-22.874 5.372-34.625-6.361 11.733 11.751 13.853 23.293 6.361 34.626-3.28 4.637-6.232 9.524-8.81 14.586l16.204 8.256z"/><path d="m457.76 480.488c13.17-8.732 12.73-19.912-1.321-33.541 13.629 14.051 24.809 14.491 33.541 1.321l4.144-7.349 16.204 8.256c-2.578 5.061-5.53 9.949-8.81 14.586-7.492 11.333-5.372 22.874 6.361 34.625-11.751-11.732-23.293-13.852-34.626-6.36-4.637 3.279-9.524 6.232-14.585 8.81l-8.257-16.205z"/><path d="m352.242 480.488c-13.17-8.732-12.73-19.912 1.321-33.541-13.629 14.051-24.809 14.491-33.541 1.321l-4.144-7.349-16.204 8.256c2.578 5.061 5.53 9.949 8.81 14.586 7.492 11.333 5.372 22.874-6.36 34.625 11.75-11.732 23.292-13.853 34.625-6.36 4.637 3.279 9.525 6.231 14.586 8.81l8.256-16.205z"/><path d="m489.981 342.748c-8.732-13.17-19.912-12.73-33.541 1.321 14.051-13.629 14.491-24.809 1.32-33.541l-7.348-4.144 8.256-16.204c5.061 2.578 9.948 5.53 14.586 8.81 11.333 7.492 22.874 5.372 34.625-6.36-11.732 11.75-13.853 23.292-6.36 34.625 3.279 4.637 6.231 9.525 8.81 14.586l-16.205 8.256z"/></g><path d="m259.922 395.569c29.151 0 44.673-5.201 46.564-15.603-.696 10.262 14.007 15.463 44.109 15.603-30.102.14-44.805 5.34-44.109 15.603-1.891-10.402-17.413-15.603-46.564-15.603z" fill="#8ba0a5" stroke="#8ba0a5" stroke-width=".75"/><path d="m404.999 250.492c0 29.151 5.201 44.673 15.603 46.564-10.262-.696-15.463 14.007-15.603 44.109-.139-30.102-5.34-44.805-15.603-44.109 10.402-1.891 15.603-17.413 15.603-46.564z" fill="#8ba0a5" stroke="#8ba0a5" stroke-width=".75"/><path d="m360.167 533.545c9.008-27.724 8.858-44.093-.45-49.107 9.545 3.834 19.034-8.543 28.469-37.128-9.169 28.672-8.766 44.262 1.209 46.771-10.477-1.415-20.22 11.74-29.228 39.464z" fill="#8ba0a5" stroke="#8ba0a5" stroke-width=".75"/><path d="m404.999 540.646c0-29.151-5.201-44.673-15.603-46.565 10.263.697 15.464-14.006 15.603-44.108.14 30.102 5.341 44.805 15.603 44.108-10.402 1.892-15.603 17.414-15.603 46.565z" fill="#8ba0a5" stroke="#8ba0a5" stroke-width=".75"/><path d="m449.83 533.545c-9.008-27.724-18.751-40.879-29.228-39.464 9.975-2.509 10.378-18.099 1.209-46.771 9.434 28.585 18.924 40.962 28.469 37.128-9.308 5.014-9.458 21.383-.45 49.107z" fill="#8ba0a5" stroke="#8ba0a5" stroke-width=".75"/><path d="m550.076 395.569c-29.152 0-44.673 5.201-46.565 15.603.696-10.263-14.007-15.463-44.109-15.603 30.102-.14 44.805-5.341 44.109-15.603 1.892 10.402 17.413 15.603 46.565 15.603z" fill="#8ba0a5" stroke="#8ba0a5" stroke-width=".75"/></svg>